<svg width="24" height="24" viewBox="0 0 24 24" fill="none" xmlns="http://www.w3.org/2000/svg">
<path fill-rule="evenodd" clip-rule="evenodd" d="M13.9838 2.54161C14.0711 2.71093 14.0928 2.92777 14.1361 3.36144C14.2182 4.1823 14.2593 4.59274 14.4311 4.81793C14.649 5.10358 15.0034 5.25038 15.3595 5.20248C15.6402 5.16472 15.9594 4.90352 16.5979 4.38113C16.9352 4.10515 17.1038 3.96716 17.2853 3.90918C17.5158 3.83555 17.7652 3.84798 17.9872 3.94419C18.162 4.01994 18.3161 4.17402 18.6243 4.4822L19.5178 5.37567C19.8259 5.68385 19.98 5.83794 20.0558 6.01275C20.152 6.23478 20.1644 6.48415 20.0908 6.71464C20.0328 6.89612 19.8948 7.06478 19.6188 7.4021C19.0964 8.0406 18.8352 8.35984 18.7975 8.64056C18.7496 8.99662 18.8964 9.35102 19.182 9.56893C19.4072 9.74072 19.8176 9.78176 20.6385 9.86385C21.0722 9.90722 21.2891 9.92891 21.4584 10.0162C21.6734 10.1272 21.841 10.3123 21.9299 10.5373C22 10.7145 22 10.9324 22 11.3682V12.6319C22 13.0676 22 13.2855 21.93 13.4626C21.841 13.6877 21.6734 13.8729 21.4583 13.9838C21.289 14.0711 21.0722 14.0928 20.6386 14.1361L20.6386 14.1361C19.818 14.2182 19.4077 14.2592 19.1825 14.4309C18.8967 14.6489 18.7499 15.0034 18.7979 15.3596C18.8357 15.6402 19.0968 15.9593 19.619 16.5976C19.8949 16.9348 20.0328 17.1034 20.0908 17.2848C20.1645 17.5154 20.152 17.7648 20.0558 17.9869C19.98 18.1617 19.826 18.3157 19.5179 18.6238L18.6243 19.5174C18.3162 19.8255 18.1621 19.9796 17.9873 20.0554C17.7652 20.1516 17.5159 20.164 17.2854 20.0904C17.1039 20.0324 16.9352 19.8944 16.5979 19.6184L16.5979 19.6184C15.9594 19.096 15.6402 18.8348 15.3595 18.7971C15.0034 18.7492 14.649 18.896 14.4311 19.1816C14.2593 19.4068 14.2183 19.8173 14.1362 20.6383C14.0928 21.0722 14.0711 21.2891 13.9837 21.4585C13.8728 21.6735 13.6877 21.8409 13.4628 21.9299C13.2856 22 13.0676 22 12.6316 22H11.3682C10.9324 22 10.7145 22 10.5373 21.9299C10.3123 21.841 10.1272 21.6734 10.0162 21.4584C9.92891 21.2891 9.90722 21.0722 9.86385 20.6385C9.78176 19.8176 9.74072 19.4072 9.56892 19.182C9.35101 18.8964 8.99663 18.7496 8.64057 18.7975C8.35985 18.8352 8.04059 19.0964 7.40208 19.6189L7.40206 19.6189C7.06473 19.8949 6.89607 20.0329 6.71458 20.0908C6.4841 20.1645 6.23474 20.152 6.01272 20.0558C5.8379 19.9801 5.6838 19.826 5.37561 19.5178L4.48217 18.6243C4.17398 18.3162 4.01988 18.1621 3.94414 17.9873C3.84794 17.7652 3.8355 17.5159 3.90913 17.2854C3.96711 17.1039 4.10511 16.9352 4.3811 16.5979C4.90351 15.9594 5.16471 15.6402 5.20247 15.3594C5.25037 15.0034 5.10357 14.649 4.81792 14.4311C4.59273 14.2593 4.1823 14.2182 3.36143 14.1361C2.92776 14.0928 2.71093 14.0711 2.54161 13.9838C2.32656 13.8728 2.15902 13.6877 2.07005 13.4627C2 13.2855 2 13.0676 2 12.6318V11.3683C2 10.9324 2 10.7144 2.07008 10.5372C2.15905 10.3123 2.32654 10.1272 2.54152 10.0163C2.71088 9.92891 2.92777 9.90722 3.36155 9.86384H3.36155H3.36156C4.18264 9.78173 4.59319 9.74068 4.81842 9.56881C5.10395 9.35092 5.2507 8.99664 5.20287 8.64066C5.16514 8.35987 4.90385 8.04052 4.38128 7.40182C4.10516 7.06435 3.96711 6.89561 3.90914 6.71405C3.83557 6.48364 3.848 6.23438 3.94413 6.01243C4.01988 5.83754 4.17403 5.68339 4.48233 5.37509L5.37565 4.48177L5.37566 4.48177C5.68385 4.17357 5.83795 4.01947 6.01277 3.94373C6.23478 3.84753 6.48414 3.8351 6.71463 3.90872C6.89612 3.9667 7.06481 4.10472 7.4022 4.38076C8.04061 4.9031 8.35982 5.16427 8.64044 5.20207C8.99661 5.25003 9.35113 5.10319 9.56907 4.81742C9.74077 4.59227 9.78181 4.18195 9.86387 3.36131C9.90722 2.92776 9.9289 2.71098 10.0162 2.5417C10.1271 2.32658 10.3123 2.15898 10.5374 2.07001C10.7145 2 10.9324 2 11.3681 2H12.6318C13.0676 2 13.2855 2 13.4627 2.07005C13.6877 2.15902 13.8728 2.32656 13.9838 2.54161ZM12 16C14.2091 16 16 14.2091 16 12C16 9.79086 14.2091 8 12 8C9.79086 8 8 9.79086 8 12C8 14.2091 9.79086 16 12 16Z" fill="#2C9ED7"/>
<path fill-rule="evenodd" clip-rule="evenodd" d="M13.9225 4.22528V4.22529L13.9225 4.22532C13.9802 4.80199 14.009 5.09032 14.1015 5.26424C14.3262 5.68698 14.8191 5.89111 15.2769 5.75111C15.4653 5.69351 15.6895 5.51001 16.1381 5.14302C16.3754 4.94889 16.494 4.85183 16.6158 4.79737C16.9074 4.667 17.2437 4.68377 17.5209 4.84251C17.6367 4.90882 17.7451 5.01721 17.9619 5.23397L17.9619 5.23398L18.766 6.0381C18.9828 6.25488 19.0911 6.36327 19.1575 6.47906C19.3162 6.75624 19.333 7.09257 19.2026 7.38416C19.1481 7.50598 19.0511 7.62462 18.8569 7.86189C18.4899 8.31046 18.3064 8.53474 18.2488 8.72311C18.1088 9.18093 18.313 9.67375 18.7357 9.89849C18.9096 9.99096 19.198 10.0198 19.7747 10.0775C20.0798 10.108 20.2323 10.1232 20.3569 10.1709C20.6553 10.2849 20.8813 10.5345 20.965 10.8428C21 10.9715 21 11.1248 21 11.4314V12.5687C21 12.8752 21 13.0284 20.965 13.1571C20.8813 13.4654 20.6553 13.7152 20.3569 13.8292C20.2322 13.8768 20.0797 13.892 19.7748 13.9225C19.1983 13.9802 18.9101 14.009 18.7362 14.1014C18.3133 14.3261 18.1091 14.8191 18.2492 15.277C18.3068 15.4653 18.4902 15.6895 18.8571 16.1378C19.0511 16.375 19.1481 16.4936 19.2026 16.6153C19.333 16.907 19.3163 17.2434 19.1574 17.5206C19.0911 17.6364 18.9828 17.7447 18.7661 17.9614L18.7661 17.9614L17.9619 18.7656C17.7451 18.9824 17.6367 19.0908 17.521 19.1571C17.2438 19.3158 16.9074 19.3326 16.6158 19.2022C16.494 19.1478 16.3754 19.0507 16.1381 18.8566L16.1381 18.8566C15.6896 18.4896 15.4653 18.3061 15.2769 18.2485C14.8191 18.1085 14.3263 18.3126 14.1015 18.7354C14.0091 18.9093 13.9802 19.1977 13.9226 19.7745C13.892 20.0797 13.8768 20.2323 13.8291 20.357C13.7151 20.6553 13.4655 20.8812 13.1573 20.965C13.0285 21 12.8752 21 12.5685 21H11.4314C11.1248 21 10.9715 21 10.8428 20.965C10.5345 20.8813 10.2849 20.6553 10.1709 20.3569C10.1232 20.2323 10.108 20.0798 10.0775 19.7747C10.0198 19.198 9.99096 18.9096 9.89849 18.7357C9.67375 18.313 9.18094 18.1088 8.72312 18.2488C8.53475 18.3064 8.31046 18.4899 7.86188 18.857L7.86187 18.857L7.86186 18.857C7.62458 19.0511 7.50593 19.1482 7.38411 19.2027C7.09252 19.333 6.75621 19.3162 6.47903 19.1575C6.36323 19.0912 6.25484 18.9828 6.03805 18.766L5.23395 17.9619C5.01717 17.7451 4.90878 17.6367 4.84246 17.5209C4.68373 17.2438 4.66696 16.9074 4.79732 16.6159C4.85178 16.494 4.94885 16.3754 5.14299 16.1381L5.14299 16.1381C5.51 15.6895 5.69351 15.4653 5.75111 15.2769C5.89111 14.8191 5.68697 14.3262 5.26424 14.1015C5.09032 14.009 4.80198 13.9802 4.22529 13.9225C3.92024 13.892 3.76772 13.8768 3.64308 13.8291C3.3447 13.7151 3.11874 13.4655 3.03499 13.1572C3 13.0284 3 12.8752 3 12.5686V11.4315C3 11.1248 3 10.9715 3.03501 10.8427C3.11877 10.5345 3.34469 10.2849 3.64299 10.1709C3.76768 10.1232 3.92025 10.108 4.2254 10.0775H4.2254C4.80228 10.0198 5.09072 9.99093 5.2647 9.89841C5.68731 9.67366 5.89139 9.18095 5.75148 8.7232C5.69389 8.53476 5.51031 8.31039 5.14315 7.86164C4.94891 7.62423 4.85178 7.50552 4.79731 7.38364C4.66702 7.09211 4.68379 6.75589 4.84244 6.47877C4.90877 6.36291 5.01722 6.25446 5.2341 6.03758L6.03809 5.23359L6.03809 5.23359C6.25488 5.0168 6.36327 4.90841 6.47907 4.84209C6.75625 4.68337 7.09256 4.66659 7.38415 4.79695C7.50598 4.85141 7.62464 4.9485 7.86198 5.14269L7.86199 5.14269C8.31048 5.50964 8.53472 5.69312 8.72301 5.75072C9.18092 5.89081 9.67387 5.68662 9.8986 5.26377C9.99101 5.0899 10.0198 4.80166 10.0775 4.22518C10.108 3.92024 10.1232 3.76777 10.1708 3.64316C10.2848 3.34472 10.5346 3.1187 10.8429 3.03496C10.9716 3 11.1248 3 11.4313 3H12.5686C12.8752 3 13.0284 3 13.1572 3.03499C13.4655 3.11874 13.7151 3.3447 13.8291 3.64307C13.8768 3.76772 13.892 3.92024 13.9225 4.22528ZM12 17.4C14.9823 17.4 17.4 14.9823 17.4 12C17.4 9.01766 14.9823 6.6 12 6.6C9.01766 6.6 6.6 9.01766 6.6 12C6.6 14.9823 9.01766 17.4 12 17.4Z" fill="#2C9ED7"/>
<rect x="10" y="9" width="4" height="4" rx="2" stroke="#147AC3"/>
<path d="M9 12C9 11.4477 9.44772 11 10 11H14C14.5523 11 15 11.4477 15 12V14C15 14.5523 14.5523 15 14 15H10C9.44772 15 9 14.5523 9 14V12Z" fill="#90D6FA"/>
</svg>
