<svg width="57" height="57" viewBox="0 0 57 57" fill="none" xmlns="http://www.w3.org/2000/svg">
<path d="M10.6486 36.5947C12.4133 31.1274 18.1317 28.4692 23.964 28.4692H35.411C41.2433 28.4692 46.9617 31.1274 48.7264 36.5947C49.1988 38.0581 49.5989 39.6817 49.8442 41.4338C50.1276 43.4589 48.4186 45.125 46.3402 45.125H13.0348C10.9564 45.125 9.24744 43.4589 9.53085 41.4338C9.77606 39.6817 10.1762 38.0581 10.6486 36.5947Z" fill="#EFF6FF"/>
<path d="M40.6952 13.2938C40.6952 19.3241 35.7669 24.2127 29.6875 24.2127C23.6081 24.2127 18.6798 19.3241 18.6798 13.2938C18.6798 7.26353 23.6081 2.375 29.6875 2.375C35.7669 2.375 40.6952 7.26353 40.6952 13.2938Z" fill="#EFF6FF"/>
<circle cx="29.6875" cy="43.9375" r="9.5" fill="#2C9ED7"/>
<path fill-rule="evenodd" clip-rule="evenodd" d="M30.0626 38C30.5238 38 30.9099 38.3495 30.9558 38.8084C31.0271 39.521 31.8632 39.8673 32.4175 39.4138C32.7744 39.1218 33.2946 39.1477 33.6207 39.4738L34.1512 40.0043C34.4773 40.3304 34.5032 40.8506 34.2112 41.2075C33.7577 41.7618 34.104 42.5979 34.8166 42.6692C35.2755 42.7151 35.625 43.1012 35.625 43.5624V44.3127C35.625 44.7738 35.2755 45.1599 34.8167 45.2058C34.1041 45.2771 33.7578 46.1131 34.2113 46.6673C34.5033 47.0242 34.4773 47.5443 34.1513 47.8704L33.6207 48.4009C33.2946 48.727 32.7744 48.753 32.4175 48.4609C31.8632 48.0074 31.0271 48.3539 30.9558 49.0665C30.91 49.5254 30.5238 49.875 30.0625 49.875H29.3124C28.8512 49.875 28.4651 49.5255 28.4192 49.0666C28.3479 48.354 27.5118 48.0077 26.9575 48.4612C26.6005 48.7532 26.0804 48.7273 25.7543 48.4012L25.2238 47.8707C24.8977 47.5446 24.8717 47.0244 25.1638 46.6675C25.6173 46.1132 25.271 45.2771 24.5584 45.2058C24.0995 45.1599 23.75 44.7738 23.75 44.3126V43.5625C23.75 43.1012 24.0995 42.7151 24.5584 42.6692C25.2711 42.5979 25.6174 41.7617 25.1639 41.2073C24.8718 40.8503 24.8977 40.3301 25.2239 40.004L25.7543 39.4735C26.0804 39.1474 26.6006 39.1215 26.9576 39.4136C27.5118 39.867 28.3479 39.5208 28.4192 38.8083C28.4651 38.3494 28.8512 38 29.3123 38H30.0626ZM29.6875 46.3125C30.9992 46.3125 32.0625 45.2492 32.0625 43.9375C32.0625 42.6258 30.9992 41.5625 29.6875 41.5625C28.3758 41.5625 27.3125 42.6258 27.3125 43.9375C27.3125 45.2492 28.3758 46.3125 29.6875 46.3125Z" fill="#EFF6FF"/>
</svg>
