<svg width="24" height="24" viewBox="0 0 24 24" fill="none" xmlns="http://www.w3.org/2000/svg">
<path d="M18.5 13L20.5 15M20.5 15L18.5 17M20.5 15H5" stroke="#90D6FA" stroke-linecap="round" stroke-linejoin="round"/>
<path fill-rule="evenodd" clip-rule="evenodd" d="M9 6H15C15.5523 6 16 6.44772 16 7V19C16 19.5523 15.5523 20 15 20H9C8.44772 20 8 19.5523 8 19V17H7V19C7 20.1046 7.89543 21 9 21H15C16.1046 21 17 20.1046 17 19V7C17 5.89543 16.1046 5 15 5H9C7.89543 5 7 5.89543 7 7V13H8V7C8 6.44772 8.44772 6 9 6Z" fill="#2C9ED7"/>
<path d="M18.4906 10H5.45912C4.7044 9.86172 4 9.35471 4 8.11022C4 6.67215 5.30818 6.40481 5.96226 6.45091C6.12327 4.38598 7.90776 4.48431 8.77987 4.79159C8.7631 4.08484 9.17233 2.56073 10.9434 2.11825C13.1572 1.56514 14.4151 3.08618 14.7673 3.91584C15.2034 3.74683 16.327 3.58397 17.3333 4.28457C18.3396 4.98518 18.4235 6.02071 18.3396 6.45091C18.8931 6.48163 20 6.85652 20 8.11022C20 9.36393 18.9937 9.89245 18.4906 10Z" fill="url(#paint0_linear_2475_84820)"/>
<defs>
<linearGradient id="paint0_linear_2475_84820" x1="12.7619" y1="2" x2="12.7619" y2="10" gradientUnits="userSpaceOnUse">
<stop stop-color="#2C9ED7"/>
<stop offset="1" stop-color="#90D6FA"/>
</linearGradient>
</defs>
</svg>
