<svg width="57" height="57" viewBox="0 0 57 57" fill="none" xmlns="http://www.w3.org/2000/svg">
<path fill-rule="evenodd" clip-rule="evenodd" d="M28.5 49.875C40.3051 49.875 49.875 40.3051 49.875 28.5C49.875 16.6949 40.3051 7.125 28.5 7.125C16.6949 7.125 7.125 16.6949 7.125 28.5C7.125 40.3051 16.6949 49.875 28.5 49.875ZM39.5364 22.6554C40.2436 21.8068 40.1289 20.5457 39.2804 19.8386C38.4318 19.1314 37.1707 19.2461 36.4636 20.0946L25.9906 32.6622L20.4142 27.0858C19.6332 26.3047 18.3668 26.3047 17.5858 27.0858C16.8047 27.8668 16.8047 29.1332 17.5858 29.9142L24.7108 37.0392C25.1081 37.4366 25.6543 37.6484 26.2156 37.6229C26.777 37.5975 27.3017 37.337 27.6614 36.9054L39.5364 22.6554Z" fill="#EFF6FF"/>
</svg>
