<svg width="24" height="24" viewBox="0 0 24 24" fill="none" xmlns="http://www.w3.org/2000/svg">
<path d="M3.51205 17.2088C4.29879 14.7788 6.8482 13.5974 9.44837 13.5974H14.5516C17.1518 13.5974 19.7012 14.7788 20.4879 17.2088C20.6985 17.8591 20.8769 18.5807 20.9862 19.3595C21.1126 20.2595 20.3507 21 19.4241 21H4.57591C3.64931 21 2.8874 20.2595 3.01375 19.3595C3.12307 18.5807 3.30147 17.8591 3.51205 17.2088Z" fill="#2C9ED7"/>
<path d="M16.9075 6.85281C16.9075 9.53295 14.7103 11.7056 12 11.7056C9.28969 11.7056 7.09255 9.53295 7.09255 6.85281C7.09255 4.17268 9.28969 2 12 2C14.7103 2 16.9075 4.17268 16.9075 6.85281Z" fill="#2C9ED7"/>
<circle cx="12" cy="20" r="4" fill="#90D6FA"/>
<path d="M10 20.8L11.3333 22L14 19" stroke="#EFF6FF" stroke-linecap="round" stroke-linejoin="round"/>
</svg>
