<svg width="56" height="56" viewBox="0 0 56 56" fill="none" xmlns="http://www.w3.org/2000/svg">
<path fill-rule="evenodd" clip-rule="evenodd" d="M28.9224 15.0654C28.7136 15.0984 28.5207 15.1966 28.3712 15.3461L8.03253 35.6848C7.64201 36.0753 7.642 36.7084 8.03253 37.099L19.2262 48.2926C19.6167 48.6831 20.2498 48.6831 20.6404 48.2926L40.979 27.9539C41.1285 27.8045 41.2267 27.6115 41.2597 27.4028L43.3585 14.1103C43.4644 13.4397 42.8854 12.8607 42.2148 12.9666L28.9224 15.0654ZM37.1992 19.6527C38.0696 20.5231 39.4808 20.5231 40.3512 19.6527C41.2216 18.7823 41.2216 17.3711 40.3512 16.5007C39.4808 15.6304 38.0696 15.6304 37.1992 16.5007C36.3288 17.3711 36.3288 18.7823 37.1992 19.6527Z" fill="#EFF6FF"/>
<path d="M17.743 37.7344C17.9089 37.6137 18.0975 37.542 18.3087 37.5194C18.5236 37.493 18.7348 37.5156 18.9422 37.5873C19.1534 37.6552 19.3382 37.7683 19.4966 37.9267C19.6965 38.1266 19.8266 38.3585 19.8869 38.6225C19.9435 38.8827 19.9209 39.158 19.819 39.4484C19.7172 39.7312 19.5343 40.0046 19.2703 40.2686L17.7995 41.7394L13.8567 37.7966L15.2709 36.3824C15.5387 36.1146 15.8121 35.9317 16.0912 35.8337C16.3665 35.7318 16.6267 35.7092 16.8718 35.7658C17.1169 35.8223 17.3338 35.9449 17.5224 36.1335C17.7562 36.3673 17.8863 36.6256 17.9127 36.9085C17.9391 37.1838 17.8825 37.4591 17.743 37.7344ZM16.0742 38.9845L16.9397 38.119C17.1811 37.8777 17.3112 37.6344 17.33 37.3893C17.3489 37.1442 17.2584 36.9217 17.0585 36.7218C16.8586 36.5219 16.6361 36.4314 16.391 36.4503C16.1459 36.4691 15.8988 36.603 15.6499 36.8519L14.7957 37.7061L16.0742 38.9845ZM18.8008 39.8896C19.0572 39.6332 19.1968 39.373 19.2194 39.109C19.242 38.845 19.1459 38.6055 18.9309 38.3906C18.7122 38.1718 18.4652 38.0757 18.1899 38.1021C17.9108 38.1247 17.6449 38.2623 17.3922 38.515L16.4985 39.4088L17.89 40.8004L18.8008 39.8896ZM23.3448 36.1941L20.7936 35.5209L20.1714 36.1432L21.7836 37.7554L21.2688 38.2702L17.326 34.3273L18.5987 33.0546C18.8967 32.7566 19.1984 32.5568 19.5038 32.4549C19.8131 32.3493 20.1054 32.3324 20.3807 32.404C20.656 32.4757 20.9049 32.6227 21.1274 32.8453C21.3989 33.1168 21.5592 33.4355 21.6082 33.8013C21.661 34.1633 21.5648 34.5348 21.3197 34.9157L23.9614 35.5775L23.3448 36.1941ZM19.7584 35.7302L20.5164 34.9722C20.7955 34.6932 20.9369 34.416 20.9407 34.1407C20.9407 33.8616 20.8257 33.607 20.5956 33.377C20.3618 33.1432 20.111 33.0319 19.8433 33.0432C19.5793 33.0508 19.3059 33.196 19.023 33.4788L18.265 34.2368L19.7584 35.7302ZM26.1642 31.6211L24.4445 33.3408L25.0046 34.5344L24.4615 35.0775L21.9668 29.7317L22.5608 29.1378L27.9009 31.6381L27.3578 32.1811L26.1642 31.6211ZM25.5985 31.3496L22.8946 30.0711L24.173 32.7751L25.5985 31.3496ZM31.6221 27.9169L31.1073 28.4316L25.8974 27.3625L29.0369 30.502L28.5222 31.0168L24.5737 27.0683L25.0884 26.5535L30.2927 27.617L27.1588 24.4831L27.6736 23.9684L31.6221 27.9169ZM29.7843 21.869C30.2143 21.439 30.6668 21.1487 31.142 20.9978C31.6172 20.8394 32.0867 20.8262 32.5505 20.9582C33.0182 21.0864 33.4538 21.3523 33.8573 21.7558C34.2608 22.1594 34.5267 22.5949 34.6549 23.0626C34.7831 23.5227 34.768 23.9903 34.6096 24.4655C34.4512 24.9331 34.1571 25.3819 33.7272 25.8118L32.4996 27.0393L28.5568 23.0965L29.7843 21.869ZM33.3029 25.3875C33.812 24.8784 34.0666 24.3561 34.0666 23.8206C34.0628 23.2813 33.8177 22.7684 33.3312 22.2819C32.8409 21.7917 32.3224 21.5446 31.7755 21.5409C31.2325 21.5333 30.7083 21.7822 30.2029 22.2876L29.4902 23.0003L32.5901 26.1003L33.3029 25.3875Z" fill="#2C9ED7"/>
</svg>
