<svg width="57" height="57" viewBox="0 0 57 57" fill="none" xmlns="http://www.w3.org/2000/svg">
<path fill-rule="evenodd" clip-rule="evenodd" d="M23.3322 44.3406C21.427 42.2488 19.9218 39.0935 19.071 35.333C18.972 35.3777 18.8746 35.4232 18.7789 35.4693C16.6129 36.5123 15.5278 37.7603 15.3175 38.9143C17.3791 41.4318 20.1534 43.3433 23.3322 44.3406ZM23.1194 40.5916C22.2029 38.942 21.4565 36.9143 20.9626 34.6238C22.8484 34.0418 25.1054 33.6717 27.593 33.6058V44.9033C26.0809 44.4351 24.4928 43.0639 23.1194 40.5916ZM29.593 45.0024C31.2162 44.6579 32.9573 43.2718 34.4463 40.5916C35.3253 39.0095 36.0478 37.0796 36.5412 34.9036C34.6576 34.1968 32.2901 33.7268 29.593 33.6189V45.0024ZM29.593 31.6174C32.3449 31.7205 34.8395 32.1783 36.9168 32.912C37.1423 31.4286 37.2646 29.8562 37.2646 28.2218C37.2646 26.5834 37.1417 25.0075 36.9152 23.5209C34.8382 24.2545 32.3442 24.7122 29.593 24.8153V31.6174ZM29.593 22.8138C32.289 22.7059 34.6556 22.2361 36.5389 21.5296C36.0455 19.3578 35.3239 17.4315 34.4463 15.8519C32.9573 13.1718 31.2162 11.7856 29.593 11.4411V22.8138ZM27.593 11.5402V22.8269C25.0452 22.7589 22.8029 22.3686 20.9755 21.76C21.4695 19.494 22.2109 17.4872 23.1194 15.8519C24.4928 13.3796 26.0809 12.0084 27.593 11.5402ZM27.593 24.8275V31.6051C25.035 31.6687 22.659 32.035 20.609 32.6413C20.409 31.2377 20.301 29.7571 20.301 28.2218C20.301 26.666 20.4119 25.1665 20.617 23.7463C22.6233 24.3805 24.9886 24.7624 27.593 24.8275ZM34.5774 43.9463C36.2489 41.9466 37.5833 39.1065 38.3943 35.761C40.2877 36.8386 41.1478 38.1034 41.1791 39.2659C39.4044 41.3171 37.1443 42.9368 34.5774 43.9463ZM38.8132 33.7166C40.5581 34.601 41.9744 35.794 42.6846 37.2387C44.3364 34.6283 45.2926 31.534 45.2926 28.2163C45.2926 24.8985 44.3363 21.8041 42.6843 19.1936C41.9738 20.6386 40.5569 21.8319 38.8114 22.7165C39.1061 24.4581 39.2646 26.3066 39.2646 28.2218C39.2646 30.1331 39.1067 31.978 38.8132 33.7166ZM34.5639 12.4811C37.1364 13.4902 39.4013 15.1119 41.1791 17.1668C41.1473 18.3296 40.2864 19.5947 38.3919 20.6725C37.5784 17.3224 36.24 14.4796 34.5639 12.4811ZM23.346 12.0878C21.4551 14.1567 19.9567 17.2724 19.0991 20.9879L19.0689 20.9726C16.8111 19.8239 15.82 18.4051 15.82 17.0999H15.6717C17.6953 14.7854 20.3401 13.028 23.346 12.0878ZM11.5 28.2163C11.5 24.8232 12.5002 21.6636 14.2219 19.0165C14.8898 20.5562 16.3371 21.8267 18.1619 22.7552C18.3384 22.8449 18.5194 22.9322 18.705 23.0168C18.4419 24.6701 18.301 26.4163 18.301 28.2218C18.301 29.9881 18.4359 31.6977 18.688 33.3191C18.4209 33.4305 18.1617 33.5466 17.9112 33.6673C16.1902 34.496 14.7403 35.6118 13.9422 36.9711C12.3924 34.4179 11.5 31.4213 11.5 28.2163ZM47.2926 28.2163C47.2926 38.6525 38.8324 47.1126 28.3963 47.1126C17.9602 47.1126 9.5 38.6525 9.5 28.2163C9.5 17.7802 17.9602 9.32007 28.3963 9.32007C38.8324 9.32007 47.2926 17.7802 47.2926 28.2163Z" fill="white"/>
<ellipse cx="43.32" cy="38.7599" rx="9.12" ry="9.12" fill="#EFF6FF"/>
<path d="M40.0181 35.8026C39.9682 35.5997 40.1595 35.4083 40.3625 35.4582L48.3855 37.4313C48.6228 37.4897 48.6545 37.8111 48.4352 37.9357L44.7179 40.0477C44.672 40.0738 44.6338 40.1121 44.6077 40.158L42.4956 43.8753C42.371 44.0946 42.0496 44.0629 41.9912 43.8256L40.0181 35.8026Z" fill="#2C9ED7"/>
<path d="M40.8084 38.2368L42.7967 36.2485L46.9694 40.4213C47.2837 40.7355 47.2714 41.2573 46.942 41.5868L46.1467 42.3821C45.8172 42.7115 45.2954 42.7238 44.9812 42.4095L40.8084 38.2368Z" fill="#2C9ED7"/>
</svg>
