<svg width="24" height="24" viewBox="0 0 24 24" fill="none" xmlns="http://www.w3.org/2000/svg">
<path d="M3 8C3 7.05719 3 6.58579 3.29289 6.29289C3.58579 6 4.05719 6 5 6H19C19.9428 6 20.4142 6 20.7071 6.29289C21 6.58579 21 7.05719 21 8V16C21 16.9428 21 17.4142 20.7071 17.7071C20.4142 18 19.9428 18 19 18H5C4.05719 18 3.58579 18 3.29289 17.7071C3 17.4142 3 16.9428 3 16V8Z" stroke="#2C9ED7"/>
<path d="M6 9L17 9" stroke="#2C9ED7" stroke-linecap="round"/>
<path d="M6 12H11" stroke="#2C9ED7" stroke-linecap="round"/>
<path d="M6 15H8" stroke="#2C9ED7" stroke-linecap="round"/>
<path d="M17.3465 11.7173C17.6971 11.3324 18.3029 11.3324 18.6535 11.7173C18.8862 11.9727 19.2462 12.0691 19.5754 11.9643C20.0715 11.8063 20.5961 12.1092 20.7073 12.6179C20.7811 12.9553 21.0447 13.2189 21.3821 13.2927C21.8908 13.4039 22.1937 13.9285 22.0357 14.4246C21.9309 14.7538 22.0273 15.1138 22.2827 15.3465C22.6676 15.6971 22.6676 16.3029 22.2827 16.6535C22.0273 16.8862 21.9309 17.2462 22.0357 17.5754C22.1937 18.0715 21.8908 18.5961 21.3821 18.7073C21.0447 18.7811 20.7811 19.0447 20.7073 19.3821C20.5961 19.8908 20.0715 20.1937 19.5754 20.0357C19.2462 19.9309 18.8862 20.0273 18.6535 20.2827C18.3029 20.6676 17.6971 20.6676 17.3465 20.2827C17.1138 20.0273 16.7538 19.9309 16.4246 20.0357C15.9285 20.1937 15.4039 19.8908 15.2927 19.3821C15.2189 19.0447 14.9553 18.7811 14.6179 18.7073C14.1092 18.5961 13.8063 18.0715 13.9643 17.5754C14.0691 17.2462 13.9727 16.8862 13.7173 16.6535C13.3324 16.3029 13.3324 15.6971 13.7173 15.3465C13.9727 15.1138 14.0691 14.7538 13.9643 14.4246C13.8063 13.9285 14.1092 13.4039 14.6179 13.2927C14.9553 13.2189 15.2189 12.9553 15.2927 12.6179C15.4039 12.1092 15.9285 11.8063 16.4246 11.9643C16.7538 12.0691 17.1138 11.9727 17.3465 11.7173Z" fill="url(#paint0_linear_870_20483)"/>
<circle cx="18" cy="16" r="3" fill="url(#paint1_linear_870_20483)"/>
<defs>
<linearGradient id="paint0_linear_870_20483" x1="18.4762" y1="11" x2="18.4762" y2="21" gradientUnits="userSpaceOnUse">
<stop stop-color="#E5BA21"/>
<stop offset="1" stop-color="#FFD234"/>
</linearGradient>
<linearGradient id="paint1_linear_870_20483" x1="18.2857" y1="13" x2="18.2857" y2="19" gradientUnits="userSpaceOnUse">
<stop stop-color="#FFE999"/>
<stop offset="1" stop-color="#FFF9E5"/>
</linearGradient>
</defs>
</svg>
