<svg width="24" height="24" viewBox="0 0 24 24" fill="none" xmlns="http://www.w3.org/2000/svg">
<path fill-rule="evenodd" clip-rule="evenodd" d="M12 11.7056C14.7103 11.7056 16.9075 9.53295 16.9075 6.85281C16.9075 4.17268 14.7103 2 12 2C9.28969 2 7.09255 4.17268 7.09255 6.85281C7.09255 9.53295 9.28969 11.7056 12 11.7056ZM8.25571 13.6819C6.10404 13.9913 4.17751 15.1534 3.51205 17.2088C3.30147 17.8591 3.12307 18.5807 3.01375 19.3595C2.8874 20.2595 3.64931 21 4.57591 21H11L8.25571 13.6819ZM10.2987 13.5974L11.1056 15.2111C11.4741 15.9482 12.5259 15.9482 12.8944 15.2111L13.7013 13.5974H10.2987ZM15.7443 13.6819L13 21H19.4241C20.3507 21 21.1126 20.2595 20.9862 19.3595C20.8769 18.5807 20.6985 17.8591 20.4879 17.2088C19.8225 15.1534 17.896 13.9913 15.7443 13.6819Z" fill="#2C9ED7"/>
<path d="M13.2545 17.509L12.7236 16.4472C12.5866 16.1731 12.3064 16 12 16C11.6936 16 11.4134 16.1731 11.2764 16.4472L10.7455 17.509C10.5926 17.8148 10.6065 18.1775 10.7824 18.4707L11.8285 20.2142C11.9062 20.3436 12.0938 20.3436 12.1715 20.2142L13.2176 18.4707C13.3935 18.1775 13.4074 17.8148 13.2545 17.509Z" fill="#90D6FA"/>
</svg>
