<svg width="24" height="24" viewBox="0 0 24 24" fill="none" xmlns="http://www.w3.org/2000/svg">
<path d="M2 8C2 5.17157 2 3.75736 2.87868 2.87868C3.75736 2 5.17157 2 8 2H16C18.8284 2 20.2426 2 21.1213 2.87868C22 3.75736 22 5.17157 22 8V16C22 18.8284 22 20.2426 21.1213 21.1213C20.2426 22 18.8284 22 16 22H8C5.17157 22 3.75736 22 2.87868 21.1213C2 20.2426 2 18.8284 2 16V8Z" stroke="white"/>
<path d="M12 2V22" stroke="white"/>
<path d="M22 12L2 12" stroke="white"/>
<path d="M10 4V10" stroke="white"/>
<path d="M20 20L14 20" stroke="white"/>
<path d="M8 6V10" stroke="white"/>
<path d="M18 18L14 18" stroke="white"/>
<path d="M6 5V10" stroke="white"/>
<path d="M19 16L14 16" stroke="white"/>
<path d="M4 7V10" stroke="white"/>
<path d="M17 14L14 14" stroke="white"/>
<mask id="path-12-inside-1_1298_11624" fill="white">
<path fill-rule="evenodd" clip-rule="evenodd" d="M16.9721 9.51943C18.4963 9.51943 19.7318 8.28386 19.7318 6.75971C19.7318 5.23557 18.4963 4 16.9721 4C15.448 4 14.2124 5.23557 14.2124 6.75971C14.2124 6.75972 14.2124 6.75972 14.2124 6.75973H16.9721V9.51943Z"/>
</mask>
<path fill-rule="evenodd" clip-rule="evenodd" d="M16.9721 9.51943C18.4963 9.51943 19.7318 8.28386 19.7318 6.75971C19.7318 5.23557 18.4963 4 16.9721 4C15.448 4 14.2124 5.23557 14.2124 6.75971C14.2124 6.75972 14.2124 6.75972 14.2124 6.75973H16.9721V9.51943Z" fill="white"/>
<path d="M16.9721 9.51943H15.9721V10.5194H16.9721V9.51943ZM14.2124 6.75973H13.2124V7.75973H14.2124V6.75973ZM16.9721 6.75973H17.9721V5.75973H16.9721V6.75973ZM18.7318 6.75971C18.7318 7.73158 17.944 8.51943 16.9721 8.51943V10.5194C19.0485 10.5194 20.7318 8.83615 20.7318 6.75971H18.7318ZM16.9721 5C17.944 5 18.7318 5.78785 18.7318 6.75971H20.7318C20.7318 4.68328 19.0485 3 16.9721 3V5ZM15.2124 6.75971C15.2124 5.78785 16.0003 5 16.9721 5V3C14.8957 3 13.2124 4.68328 13.2124 6.75971H15.2124ZM15.2124 6.75973C15.2124 6.75973 15.2124 6.75973 15.2124 6.75973C15.2124 6.75973 15.2124 6.75973 15.2124 6.75973C15.2124 6.75973 15.2124 6.75973 15.2124 6.75973C15.2124 6.75973 15.2124 6.75973 15.2124 6.75973C15.2124 6.75973 15.2124 6.75973 15.2124 6.75973C15.2124 6.75973 15.2124 6.75973 15.2124 6.75973C15.2124 6.75973 15.2124 6.75973 15.2124 6.75973C15.2124 6.75973 15.2124 6.75973 15.2124 6.75973C15.2124 6.75973 15.2124 6.75973 15.2124 6.75973C15.2124 6.75973 15.2124 6.75973 15.2124 6.75973C15.2124 6.75973 15.2124 6.75973 15.2124 6.75973C15.2124 6.75973 15.2124 6.75973 15.2124 6.75973C15.2124 6.75973 15.2124 6.75973 15.2124 6.75973C15.2124 6.75973 15.2124 6.75973 15.2124 6.75973C15.2124 6.75973 15.2124 6.75973 15.2124 6.75973C15.2124 6.75973 15.2124 6.75973 15.2124 6.75973C15.2124 6.75973 15.2124 6.75973 15.2124 6.75973C15.2124 6.75973 15.2124 6.75973 15.2124 6.75973C15.2124 6.75973 15.2124 6.75973 15.2124 6.75973C15.2124 6.75973 15.2124 6.75973 15.2124 6.75973C15.2124 6.75973 15.2124 6.75973 15.2124 6.75973C15.2124 6.75973 15.2124 6.75973 15.2124 6.75973C15.2124 6.75973 15.2124 6.75973 15.2124 6.75973C15.2124 6.75973 15.2124 6.75973 15.2124 6.75973C15.2124 6.75973 15.2124 6.75973 15.2124 6.75973C15.2124 6.75973 15.2124 6.75973 15.2124 6.75973C15.2124 6.75973 15.2124 6.75973 15.2124 6.75973C15.2124 6.75973 15.2124 6.75973 15.2124 6.75973C15.2124 6.75973 15.2124 6.75973 15.2124 6.75973C15.2124 6.75973 15.2124 6.75973 15.2124 6.75973C15.2124 6.75973 15.2124 6.75973 15.2124 6.75973C15.2124 6.75973 15.2124 6.75973 15.2124 6.75973C15.2124 6.75973 15.2124 6.75973 15.2124 6.75973C15.2124 6.75973 15.2124 6.75973 15.2124 6.75973C15.2124 6.75973 15.2124 6.75973 15.2124 6.75973C15.2124 6.75973 15.2124 6.75973 15.2124 6.75973C15.2124 6.75973 15.2124 6.75973 15.2124 6.75973C15.2124 6.75973 15.2124 6.75973 15.2124 6.75973C15.2124 6.75973 15.2124 6.75973 15.2124 6.75973C15.2124 6.75973 15.2124 6.75973 15.2124 6.75973C15.2124 6.75973 15.2124 6.75973 15.2124 6.75973C15.2124 6.75973 15.2124 6.75973 15.2124 6.75973C15.2124 6.75973 15.2124 6.75973 15.2124 6.75973C15.2124 6.75973 15.2124 6.75973 15.2124 6.75973C15.2124 6.75973 15.2124 6.75973 15.2124 6.75973C15.2124 6.75973 15.2124 6.75973 15.2124 6.75973C15.2124 6.75973 15.2124 6.75973 15.2124 6.75973C15.2124 6.75973 15.2124 6.75973 15.2124 6.75973C15.2124 6.75973 15.2124 6.75973 15.2124 6.75973C15.2124 6.75973 15.2124 6.75973 15.2124 6.75973C15.2124 6.75973 15.2124 6.75973 15.2124 6.75973C15.2124 6.75973 15.2124 6.75973 15.2124 6.75973C15.2124 6.75973 15.2124 6.75973 15.2124 6.75973C15.2124 6.75973 15.2124 6.75973 15.2124 6.75973C15.2124 6.75973 15.2124 6.75973 15.2124 6.75973C15.2124 6.75973 15.2124 6.75973 15.2124 6.75973C15.2124 6.75973 15.2124 6.75973 15.2124 6.75973C15.2124 6.75973 15.2124 6.75973 15.2124 6.75973C15.2124 6.75973 15.2124 6.75973 15.2124 6.75973C15.2124 6.75973 15.2124 6.75973 15.2124 6.75973C15.2124 6.75973 15.2124 6.75973 15.2124 6.75973C15.2124 6.75973 15.2124 6.75973 15.2124 6.75973C15.2124 6.75973 15.2124 6.75973 15.2124 6.75973C15.2124 6.75973 15.2124 6.75973 15.2124 6.75973C15.2124 6.75973 15.2124 6.75973 15.2124 6.75973C15.2124 6.75973 15.2124 6.75973 15.2124 6.75973C15.2124 6.75973 15.2124 6.75973 15.2124 6.75973C15.2124 6.75973 15.2124 6.75973 15.2124 6.75973C15.2124 6.75973 15.2124 6.75973 15.2124 6.75973C15.2124 6.75973 15.2124 6.75973 15.2124 6.75973C15.2124 6.75973 15.2124 6.75973 15.2124 6.75973C15.2124 6.75973 15.2124 6.75973 15.2124 6.75973C15.2124 6.75973 15.2124 6.75973 15.2124 6.75973C15.2124 6.75973 15.2124 6.75973 15.2124 6.75973C15.2124 6.75973 15.2124 6.75973 15.2124 6.75973C15.2124 6.75973 15.2124 6.75973 15.2124 6.75973C15.2124 6.75973 15.2124 6.75973 15.2124 6.75973C15.2124 6.75973 15.2124 6.75973 15.2124 6.75973C15.2124 6.75973 15.2124 6.75973 15.2124 6.75973C15.2124 6.75973 15.2124 6.75973 15.2124 6.75973C15.2124 6.75973 15.2124 6.75973 15.2124 6.75973C15.2124 6.75973 15.2124 6.75973 15.2124 6.75973C15.2124 6.75973 15.2124 6.75973 15.2124 6.75973C15.2124 6.75973 15.2124 6.75973 15.2124 6.75973C15.2124 6.75973 15.2124 6.75973 15.2124 6.75973C15.2124 6.75973 15.2124 6.75973 15.2124 6.75973C15.2124 6.75973 15.2124 6.75973 15.2124 6.75973C15.2124 6.75973 15.2124 6.75973 15.2124 6.75973C15.2124 6.75973 15.2124 6.75973 15.2124 6.75973C15.2124 6.75973 15.2124 6.75973 15.2124 6.75973C15.2124 6.75973 15.2124 6.75973 15.2124 6.75973C15.2124 6.75973 15.2124 6.75973 15.2124 6.75973C15.2124 6.75973 15.2124 6.75973 15.2124 6.75973C15.2124 6.75973 15.2124 6.75973 15.2124 6.75973C15.2124 6.75973 15.2124 6.75973 15.2124 6.75973C15.2124 6.75973 15.2124 6.75973 15.2124 6.75973C15.2124 6.75973 15.2124 6.75973 15.2124 6.75973C15.2124 6.75973 15.2124 6.75973 15.2124 6.75973C15.2124 6.75973 15.2124 6.75973 15.2124 6.75973C15.2124 6.75973 15.2124 6.75973 15.2124 6.75973C15.2124 6.75973 15.2124 6.75973 15.2124 6.75973C15.2124 6.75973 15.2124 6.75973 15.2124 6.75973C15.2124 6.75973 15.2124 6.75973 15.2124 6.75973C15.2124 6.75973 15.2124 6.75973 15.2124 6.75973C15.2124 6.75973 15.2124 6.75973 15.2124 6.75973C15.2124 6.75973 15.2124 6.75973 15.2124 6.75973C15.2124 6.75973 15.2124 6.75973 15.2124 6.75973C15.2124 6.75973 15.2124 6.75973 15.2124 6.75973C15.2124 6.75973 15.2124 6.75973 15.2124 6.75973C15.2124 6.75973 15.2124 6.75973 15.2124 6.75973C15.2124 6.75973 15.2124 6.75973 15.2124 6.75973C15.2124 6.75973 15.2124 6.75973 15.2124 6.75973C15.2124 6.75973 15.2124 6.75973 15.2124 6.75973C15.2124 6.75973 15.2124 6.75973 15.2124 6.75973C15.2124 6.75973 15.2124 6.75973 15.2124 6.75973C15.2124 6.75973 15.2124 6.75973 15.2124 6.75973C15.2124 6.75973 15.2124 6.75973 15.2124 6.75973C15.2124 6.75973 15.2124 6.75973 15.2124 6.75973C15.2124 6.75973 15.2124 6.75973 15.2124 6.75973C15.2124 6.75973 15.2124 6.75973 15.2124 6.75973C15.2124 6.75973 15.2124 6.75973 15.2124 6.75973C15.2124 6.75973 15.2124 6.75973 15.2124 6.75973C15.2124 6.75973 15.2124 6.75973 15.2124 6.75973C15.2124 6.75973 15.2124 6.75973 15.2124 6.75973C15.2124 6.75973 15.2124 6.75973 15.2124 6.75973C15.2124 6.75973 15.2124 6.75973 15.2124 6.75973C15.2124 6.75973 15.2124 6.75973 15.2124 6.75973C15.2124 6.75973 15.2124 6.75973 15.2124 6.75973C15.2124 6.75973 15.2124 6.75973 15.2124 6.75973C15.2124 6.75973 15.2124 6.75973 15.2124 6.75973C15.2124 6.75973 15.2124 6.75973 15.2124 6.75973C15.2124 6.75973 15.2124 6.75973 15.2124 6.75973C15.2124 6.75973 15.2124 6.75973 15.2124 6.75973C15.2124 6.75973 15.2124 6.75973 15.2124 6.75973C15.2124 6.75973 15.2124 6.75973 15.2124 6.75973C15.2124 6.75973 15.2124 6.75973 15.2124 6.75973C15.2124 6.75973 15.2124 6.75973 15.2124 6.75973C15.2124 6.75973 15.2124 6.75973 15.2124 6.75973C15.2124 6.75973 15.2124 6.75973 15.2124 6.75973C15.2124 6.75973 15.2124 6.75973 15.2124 6.75973C15.2124 6.75973 15.2124 6.75973 15.2124 6.75973C15.2124 6.75973 15.2124 6.75973 15.2124 6.75973C15.2124 6.75973 15.2124 6.75973 15.2124 6.75973C15.2124 6.75973 15.2124 6.75973 15.2124 6.75973C15.2124 6.75973 15.2124 6.75973 15.2124 6.75973C15.2124 6.75973 15.2124 6.75973 15.2124 6.75973C15.2124 6.75973 15.2124 6.75973 15.2124 6.75973C15.2124 6.75973 15.2124 6.75973 15.2124 6.75973C15.2124 6.75973 15.2124 6.75973 15.2124 6.75973C15.2124 6.75973 15.2124 6.75973 15.2124 6.75973C15.2124 6.75973 15.2124 6.75973 15.2124 6.75973C15.2124 6.75973 15.2124 6.75973 15.2124 6.75973C15.2124 6.75973 15.2124 6.75973 15.2124 6.75973C15.2124 6.75973 15.2124 6.75973 15.2124 6.75973C15.2124 6.75973 15.2124 6.75973 15.2124 6.75973C15.2124 6.75973 15.2124 6.75973 15.2124 6.75973C15.2124 6.75973 15.2124 6.75973 15.2124 6.75973C15.2124 6.75973 15.2124 6.75973 15.2124 6.75973C15.2124 6.75973 15.2124 6.75973 15.2124 6.75973C15.2124 6.75973 15.2124 6.75973 15.2124 6.75973C15.2124 6.75973 15.2124 6.75973 15.2124 6.75973C15.2124 6.75973 15.2124 6.75973 15.2124 6.75973C15.2124 6.75973 15.2124 6.75973 15.2124 6.75973C15.2124 6.75973 15.2124 6.75973 15.2124 6.75973C15.2124 6.75972 15.2124 6.75972 15.2124 6.75972C15.2124 6.75972 15.2124 6.75972 15.2124 6.75972C15.2124 6.75972 15.2124 6.75972 15.2124 6.75972C15.2124 6.75972 15.2124 6.75972 15.2124 6.75972C15.2124 6.75972 15.2124 6.75972 15.2124 6.75972C15.2124 6.75972 15.2124 6.75972 15.2124 6.75972C15.2124 6.75972 15.2124 6.75972 15.2124 6.75972C15.2124 6.75972 15.2124 6.75972 15.2124 6.75972C15.2124 6.75972 15.2124 6.75972 15.2124 6.75972C15.2124 6.75972 15.2124 6.75972 15.2124 6.75972C15.2124 6.75972 15.2124 6.75972 15.2124 6.75972C15.2124 6.75972 15.2124 6.75972 15.2124 6.75972C15.2124 6.75972 15.2124 6.75972 15.2124 6.75972C15.2124 6.75972 15.2124 6.75972 15.2124 6.75972C15.2124 6.75972 15.2124 6.75972 15.2124 6.75972C15.2124 6.75972 15.2124 6.75972 15.2124 6.75972C15.2124 6.75972 15.2124 6.75972 15.2124 6.75972C15.2124 6.75972 15.2124 6.75972 15.2124 6.75972C15.2124 6.75972 15.2124 6.75972 15.2124 6.75972C15.2124 6.75972 15.2124 6.75972 15.2124 6.75972C15.2124 6.75972 15.2124 6.75972 15.2124 6.75972C15.2124 6.75972 15.2124 6.75972 15.2124 6.75972C15.2124 6.75972 15.2124 6.75972 15.2124 6.75972C15.2124 6.75972 15.2124 6.75972 15.2124 6.75972C15.2124 6.75972 15.2124 6.75972 15.2124 6.75972C15.2124 6.75972 15.2124 6.75972 15.2124 6.75972C15.2124 6.75972 15.2124 6.75972 15.2124 6.75972C15.2124 6.75972 15.2124 6.75972 15.2124 6.75972C15.2124 6.75972 15.2124 6.75972 15.2124 6.75972C15.2124 6.75972 15.2124 6.75972 15.2124 6.75972C15.2124 6.75972 15.2124 6.75972 15.2124 6.75972C15.2124 6.75972 15.2124 6.75972 15.2124 6.75972C15.2124 6.75972 15.2124 6.75972 15.2124 6.75972C15.2124 6.75972 15.2124 6.75972 15.2124 6.75972C15.2124 6.75972 15.2124 6.75972 15.2124 6.75972C15.2124 6.75972 15.2124 6.75972 15.2124 6.75972C15.2124 6.75972 15.2124 6.75972 15.2124 6.75972C15.2124 6.75972 15.2124 6.75972 15.2124 6.75972C15.2124 6.75972 15.2124 6.75972 15.2124 6.75972C15.2124 6.75972 15.2124 6.75972 15.2124 6.75972C15.2124 6.75972 15.2124 6.75972 15.2124 6.75972C15.2124 6.75972 15.2124 6.75972 15.2124 6.75972C15.2124 6.75972 15.2124 6.75972 15.2124 6.75972C15.2124 6.75972 15.2124 6.75972 15.2124 6.75972C15.2124 6.75972 15.2124 6.75972 15.2124 6.75972C15.2124 6.75972 15.2124 6.75972 15.2124 6.75972C15.2124 6.75972 15.2124 6.75972 15.2124 6.75972C15.2124 6.75972 15.2124 6.75972 15.2124 6.75972C15.2124 6.75972 15.2124 6.75972 15.2124 6.75972C15.2124 6.75972 15.2124 6.75972 15.2124 6.75972C15.2124 6.75972 15.2124 6.75972 15.2124 6.75972C15.2124 6.75972 15.2124 6.75972 15.2124 6.75972C15.2124 6.75972 15.2124 6.75972 15.2124 6.75972C15.2124 6.75972 15.2124 6.75972 15.2124 6.75972C15.2124 6.75972 15.2124 6.75972 15.2124 6.75972C15.2124 6.75972 15.2124 6.75972 15.2124 6.75972C15.2124 6.75972 15.2124 6.75972 15.2124 6.75972C15.2124 6.75972 15.2124 6.75972 15.2124 6.75972C15.2124 6.75972 15.2124 6.75972 15.2124 6.75972C15.2124 6.75972 15.2124 6.75972 15.2124 6.75972C15.2124 6.75972 15.2124 6.75972 15.2124 6.75972C15.2124 6.75972 15.2124 6.75972 15.2124 6.75972C15.2124 6.75972 15.2124 6.75972 15.2124 6.75972C15.2124 6.75972 15.2124 6.75972 15.2124 6.75972C15.2124 6.75972 15.2124 6.75972 15.2124 6.75972C15.2124 6.75972 15.2124 6.75972 15.2124 6.75972C15.2124 6.75972 15.2124 6.75972 15.2124 6.75972C15.2124 6.75972 15.2124 6.75972 15.2124 6.75972C15.2124 6.75972 15.2124 6.75972 15.2124 6.75972C15.2124 6.75972 15.2124 6.75972 15.2124 6.75972C15.2124 6.75972 15.2124 6.75972 15.2124 6.75972C15.2124 6.75972 15.2124 6.75972 15.2124 6.75972C15.2124 6.75972 15.2124 6.75972 15.2124 6.75972C15.2124 6.75972 15.2124 6.75972 15.2124 6.75972C15.2124 6.75972 15.2124 6.75972 15.2124 6.75972C15.2124 6.75972 15.2124 6.75972 15.2124 6.75972C15.2124 6.75972 15.2124 6.75972 15.2124 6.75972C15.2124 6.75972 15.2124 6.75972 15.2124 6.75972C15.2124 6.75972 15.2124 6.75972 15.2124 6.75972C15.2124 6.75972 15.2124 6.75972 15.2124 6.75972C15.2124 6.75972 15.2124 6.75972 15.2124 6.75972C15.2124 6.75972 15.2124 6.75972 15.2124 6.75972C15.2124 6.75972 15.2124 6.75972 15.2124 6.75972C15.2124 6.75972 15.2124 6.75972 15.2124 6.75972C15.2124 6.75972 15.2124 6.75972 15.2124 6.75972C15.2124 6.75972 15.2124 6.75972 15.2124 6.75972C15.2124 6.75972 15.2124 6.75972 15.2124 6.75972C15.2124 6.75972 15.2124 6.75972 15.2124 6.75972C15.2124 6.75972 15.2124 6.75972 15.2124 6.75972C15.2124 6.75972 15.2124 6.75972 15.2124 6.75972C15.2124 6.75972 15.2124 6.75972 15.2124 6.75972C15.2124 6.75972 15.2124 6.75972 15.2124 6.75972C15.2124 6.75972 15.2124 6.75972 15.2124 6.75972C15.2124 6.75972 15.2124 6.75972 15.2124 6.75972C15.2124 6.75972 15.2124 6.75972 15.2124 6.75972C15.2124 6.75972 15.2124 6.75972 15.2124 6.75972C15.2124 6.75972 15.2124 6.75972 15.2124 6.75972C15.2124 6.75972 15.2124 6.75972 15.2124 6.75972C15.2124 6.75972 15.2124 6.75972 15.2124 6.75972C15.2124 6.75972 15.2124 6.75972 15.2124 6.75972C15.2124 6.75972 15.2124 6.75972 15.2124 6.75972C15.2124 6.75972 15.2124 6.75972 15.2124 6.75972C15.2124 6.75972 15.2124 6.75972 15.2124 6.75972C15.2124 6.75972 15.2124 6.75972 15.2124 6.75972C15.2124 6.75972 15.2124 6.75972 15.2124 6.75972C15.2124 6.75972 15.2124 6.75972 15.2124 6.75972C15.2124 6.75972 15.2124 6.75972 15.2124 6.75972C15.2124 6.75972 15.2124 6.75972 15.2124 6.75972C15.2124 6.75972 15.2124 6.75972 15.2124 6.75972C15.2124 6.75972 15.2124 6.75972 15.2124 6.75972C15.2124 6.75972 15.2124 6.75972 15.2124 6.75972C15.2124 6.75972 15.2124 6.75972 15.2124 6.75972C15.2124 6.75972 15.2124 6.75972 15.2124 6.75972C15.2124 6.75972 15.2124 6.75972 15.2124 6.75972C15.2124 6.75972 15.2124 6.75972 15.2124 6.75972C15.2124 6.75972 15.2124 6.75972 15.2124 6.75972C15.2124 6.75972 15.2124 6.75972 15.2124 6.75972C15.2124 6.75972 15.2124 6.75972 15.2124 6.75972C15.2124 6.75972 15.2124 6.75972 15.2124 6.75972C15.2124 6.75972 15.2124 6.75972 15.2124 6.75972C15.2124 6.75972 15.2124 6.75972 15.2124 6.75972C15.2124 6.75972 15.2124 6.75972 15.2124 6.75972C15.2124 6.75972 15.2124 6.75972 15.2124 6.75972C15.2124 6.75972 15.2124 6.75972 15.2124 6.75972C15.2124 6.75972 15.2124 6.75972 15.2124 6.75972C15.2124 6.75972 15.2124 6.75972 15.2124 6.75972C15.2124 6.75972 15.2124 6.75972 15.2124 6.75972C15.2124 6.75972 15.2124 6.75972 15.2124 6.75972C15.2124 6.75972 15.2124 6.75972 15.2124 6.75972C15.2124 6.75972 15.2124 6.75972 15.2124 6.75972C15.2124 6.75972 15.2124 6.75972 15.2124 6.75972C15.2124 6.75972 15.2124 6.75972 15.2124 6.75972C15.2124 6.75972 15.2124 6.75972 15.2124 6.75972C15.2124 6.75972 15.2124 6.75972 15.2124 6.75972C15.2124 6.75972 15.2124 6.75972 15.2124 6.75972C15.2124 6.75972 15.2124 6.75972 15.2124 6.75972C15.2124 6.75972 15.2124 6.75972 15.2124 6.75972C15.2124 6.75972 15.2124 6.75972 15.2124 6.75972C15.2124 6.75972 15.2124 6.75972 15.2124 6.75972C15.2124 6.75972 15.2124 6.75972 15.2124 6.75972C15.2124 6.75972 15.2124 6.75972 15.2124 6.75972C15.2124 6.75972 15.2124 6.75972 15.2124 6.75972C15.2124 6.75972 15.2124 6.75972 15.2124 6.75972C15.2124 6.75972 15.2124 6.75972 15.2124 6.75972C15.2124 6.75972 15.2124 6.75972 15.2124 6.75972C15.2124 6.75972 15.2124 6.75972 15.2124 6.75972C15.2124 6.75972 15.2124 6.75972 15.2124 6.75972C15.2124 6.75972 15.2124 6.75972 15.2124 6.75972C15.2124 6.75972 15.2124 6.75972 15.2124 6.75972C15.2124 6.75972 15.2124 6.75972 15.2124 6.75972C15.2124 6.75972 15.2124 6.75972 15.2124 6.75972C15.2124 6.75972 15.2124 6.75972 15.2124 6.75972C15.2124 6.75972 15.2124 6.75972 15.2124 6.75972C15.2124 6.75972 15.2124 6.75972 15.2124 6.75972C15.2124 6.75972 15.2124 6.75972 15.2124 6.75972C15.2124 6.75972 15.2124 6.75972 15.2124 6.75972C15.2124 6.75972 15.2124 6.75972 15.2124 6.75972C15.2124 6.75972 15.2124 6.75972 15.2124 6.75972C15.2124 6.75972 15.2124 6.75972 15.2124 6.75972C15.2124 6.75972 15.2124 6.75972 15.2124 6.75972C15.2124 6.75972 15.2124 6.75972 15.2124 6.75972C15.2124 6.75972 15.2124 6.75972 15.2124 6.75972C15.2124 6.75972 15.2124 6.75972 15.2124 6.75972C15.2124 6.75972 15.2124 6.75972 15.2124 6.75972C15.2124 6.75972 15.2124 6.75972 15.2124 6.75972C15.2124 6.75972 15.2124 6.75972 15.2124 6.75972C15.2124 6.75972 15.2124 6.75972 15.2124 6.75972C15.2124 6.75972 15.2124 6.75972 15.2124 6.75972C15.2124 6.75972 15.2124 6.75972 15.2124 6.75972C15.2124 6.75972 15.2124 6.75972 15.2124 6.75972C15.2124 6.75972 15.2124 6.75972 15.2124 6.75972C15.2124 6.75972 15.2124 6.75972 15.2124 6.75972C15.2124 6.75972 15.2124 6.75972 15.2124 6.75972C15.2124 6.75972 15.2124 6.75972 15.2124 6.75972C15.2124 6.75972 15.2124 6.75972 15.2124 6.75972C15.2124 6.75972 15.2124 6.75972 15.2124 6.75972C15.2124 6.75972 15.2124 6.75972 15.2124 6.75972C15.2124 6.75972 15.2124 6.75972 15.2124 6.75972C15.2124 6.75972 15.2124 6.75972 15.2124 6.75972C15.2124 6.75972 15.2124 6.75972 15.2124 6.75972C15.2124 6.75972 15.2124 6.75972 15.2124 6.75972C15.2124 6.75972 15.2124 6.75972 15.2124 6.75972C15.2124 6.75972 15.2124 6.75972 15.2124 6.75972C15.2124 6.75972 15.2124 6.75972 15.2124 6.75972C15.2124 6.75972 15.2124 6.75972 15.2124 6.75972C15.2124 6.75972 15.2124 6.75972 15.2124 6.75972C15.2124 6.75972 15.2124 6.75972 15.2124 6.75972C15.2124 6.75972 15.2124 6.75972 15.2124 6.75972C15.2124 6.75972 15.2124 6.75972 15.2124 6.75972C15.2124 6.75972 15.2124 6.75972 15.2124 6.75972C15.2124 6.75972 15.2124 6.75972 15.2124 6.75972C15.2124 6.75972 15.2124 6.75972 15.2124 6.75972C15.2124 6.75972 15.2124 6.75972 15.2124 6.75972C15.2124 6.75972 15.2124 6.75972 15.2124 6.75972C15.2124 6.75972 15.2124 6.75972 15.2124 6.75972C15.2124 6.75972 15.2124 6.75972 15.2124 6.75972C15.2124 6.75972 15.2124 6.75972 15.2124 6.75972C15.2124 6.75972 15.2124 6.75972 15.2124 6.75972C15.2124 6.75972 15.2124 6.75972 15.2124 6.75972C15.2124 6.75972 15.2124 6.75972 15.2124 6.75972C15.2124 6.75972 15.2124 6.75972 15.2124 6.75972C15.2124 6.75972 15.2124 6.75972 15.2124 6.75972C15.2124 6.75972 15.2124 6.75972 15.2124 6.75972C15.2124 6.75972 15.2124 6.75972 15.2124 6.75972C15.2124 6.75972 15.2124 6.75972 15.2124 6.75972C15.2124 6.75972 15.2124 6.75972 15.2124 6.75972C15.2124 6.75972 15.2124 6.75972 15.2124 6.75972C15.2124 6.75972 15.2124 6.75972 15.2124 6.75972C15.2124 6.75972 15.2124 6.75972 15.2124 6.75972C15.2124 6.75972 15.2124 6.75972 15.2124 6.75972C15.2124 6.75972 15.2124 6.75972 15.2124 6.75972C15.2124 6.75972 15.2124 6.75972 15.2124 6.75972C15.2124 6.75972 15.2124 6.75972 15.2124 6.75972C15.2124 6.75972 15.2124 6.75972 15.2124 6.75972C15.2124 6.75972 15.2124 6.75972 15.2124 6.75972C15.2124 6.75972 15.2124 6.75972 15.2124 6.75972C15.2124 6.75972 15.2124 6.75972 15.2124 6.75972C15.2124 6.75972 15.2124 6.75972 15.2124 6.75972C15.2124 6.75972 15.2124 6.75972 15.2124 6.75972C15.2124 6.75972 15.2124 6.75972 15.2124 6.75972C15.2124 6.75972 15.2124 6.75972 15.2124 6.75972C15.2124 6.75972 15.2124 6.75972 15.2124 6.75972C15.2124 6.75972 15.2124 6.75972 15.2124 6.75972C15.2124 6.75972 15.2124 6.75972 15.2124 6.75972C15.2124 6.75972 15.2124 6.75972 15.2124 6.75972C15.2124 6.75972 15.2124 6.75972 15.2124 6.75972C15.2124 6.75972 15.2124 6.75972 15.2124 6.75972C15.2124 6.75972 15.2124 6.75972 15.2124 6.75972C15.2124 6.75972 15.2124 6.75972 15.2124 6.75972C15.2124 6.75972 15.2124 6.75972 15.2124 6.75972C15.2124 6.75972 15.2124 6.75972 15.2124 6.75972C15.2124 6.75972 15.2124 6.75972 15.2124 6.75972C15.2124 6.75972 15.2124 6.75972 15.2124 6.75972C15.2124 6.75972 15.2124 6.75972 15.2124 6.75972C15.2124 6.75972 15.2124 6.75972 15.2124 6.75972C15.2124 6.75972 15.2124 6.75972 15.2124 6.75972C15.2124 6.75972 15.2124 6.75972 15.2124 6.75972C15.2124 6.75972 15.2124 6.75972 15.2124 6.75972C15.2124 6.75972 15.2124 6.75972 15.2124 6.75972C15.2124 6.75972 15.2124 6.75972 15.2124 6.75972C15.2124 6.75972 15.2124 6.75972 15.2124 6.75972C15.2124 6.75972 15.2124 6.75972 15.2124 6.75972C15.2124 6.75972 15.2124 6.75972 15.2124 6.75972C15.2124 6.75972 15.2124 6.75972 15.2124 6.75972C15.2124 6.75972 15.2124 6.75972 15.2124 6.75972C15.2124 6.75972 15.2124 6.75972 15.2124 6.75972C15.2124 6.75972 15.2124 6.75972 15.2124 6.75972C15.2124 6.75972 15.2124 6.75972 15.2124 6.75972C15.2124 6.75972 15.2124 6.75972 15.2124 6.75972C15.2124 6.75972 15.2124 6.75972 15.2124 6.75972C15.2124 6.75972 15.2124 6.75972 15.2124 6.75972C15.2124 6.75972 15.2124 6.75972 15.2124 6.75972C15.2124 6.75972 15.2124 6.75972 15.2124 6.75972C15.2124 6.75972 15.2124 6.75972 15.2124 6.75972C15.2124 6.75972 15.2124 6.75972 15.2124 6.75972C15.2124 6.75972 15.2124 6.75972 15.2124 6.75972C15.2124 6.75972 15.2124 6.75972 15.2124 6.75972C15.2124 6.75972 15.2124 6.75972 15.2124 6.75972C15.2124 6.75972 15.2124 6.75972 15.2124 6.75972C15.2124 6.75972 15.2124 6.75972 15.2124 6.75972C15.2124 6.75972 15.2124 6.75972 15.2124 6.75972C15.2124 6.75972 15.2124 6.75972 15.2124 6.75972C15.2124 6.75972 15.2124 6.75972 15.2124 6.75972C15.2124 6.75972 15.2124 6.75972 15.2124 6.75972C15.2124 6.75972 15.2124 6.75972 15.2124 6.75972C15.2124 6.75972 15.2124 6.75972 15.2124 6.75972C15.2124 6.75972 15.2124 6.75972 15.2124 6.75972C15.2124 6.75972 15.2124 6.75972 15.2124 6.75972C15.2124 6.75972 15.2124 6.75972 15.2124 6.75972C15.2124 6.75972 15.2124 6.75972 15.2124 6.75972C15.2124 6.75972 15.2124 6.75972 15.2124 6.75972C15.2124 6.75972 15.2124 6.75972 15.2124 6.75972C15.2124 6.75972 15.2124 6.75972 15.2124 6.75972C15.2124 6.75972 15.2124 6.75972 15.2124 6.75972C15.2124 6.75972 15.2124 6.75972 15.2124 6.75972C15.2124 6.75972 15.2124 6.75972 15.2124 6.75972C15.2124 6.75972 15.2124 6.75972 15.2124 6.75972C15.2124 6.75972 15.2124 6.75972 15.2124 6.75972C15.2124 6.75972 15.2124 6.75972 15.2124 6.75972C15.2124 6.75972 15.2124 6.75972 15.2124 6.75972C15.2124 6.75972 15.2124 6.75972 15.2124 6.75972C15.2124 6.75972 15.2124 6.75972 15.2124 6.75972C15.2124 6.75972 15.2124 6.75972 15.2124 6.75972C15.2124 6.75972 15.2124 6.75972 15.2124 6.75972C15.2124 6.75972 15.2124 6.75972 15.2124 6.75972C15.2124 6.75972 15.2124 6.75972 15.2124 6.75972C15.2124 6.75972 15.2124 6.75972 15.2124 6.75972C15.2124 6.75972 15.2124 6.75972 15.2124 6.75972C15.2124 6.75972 15.2124 6.75972 15.2124 6.75972C15.2124 6.75972 15.2124 6.75972 15.2124 6.75972C15.2124 6.75972 15.2124 6.75972 15.2124 6.75972C15.2124 6.75972 15.2124 6.75972 15.2124 6.75972C15.2124 6.75972 15.2124 6.75972 15.2124 6.75972C15.2124 6.75972 15.2124 6.75972 15.2124 6.75972C15.2124 6.75972 15.2124 6.75972 15.2124 6.75972C15.2124 6.75972 15.2124 6.75972 15.2124 6.75972C15.2124 6.75972 15.2124 6.75972 15.2124 6.75972C15.2124 6.75972 15.2124 6.75972 15.2124 6.75972C15.2124 6.75972 15.2124 6.75972 15.2124 6.75972C15.2124 6.75972 15.2124 6.75972 15.2124 6.75972C15.2124 6.75972 15.2124 6.75972 15.2124 6.75972C15.2124 6.75972 15.2124 6.75972 15.2124 6.75972C15.2124 6.75972 15.2124 6.75972 15.2124 6.75972C15.2124 6.75972 15.2124 6.75972 15.2124 6.75972C15.2124 6.75972 15.2124 6.75972 15.2124 6.75972C15.2124 6.75972 15.2124 6.75972 15.2124 6.75972C15.2124 6.75972 15.2124 6.75972 15.2124 6.75972C15.2124 6.75972 15.2124 6.75972 15.2124 6.75972C15.2124 6.75972 15.2124 6.75972 15.2124 6.75972C15.2124 6.75972 15.2124 6.75972 15.2124 6.75972C15.2124 6.75972 15.2124 6.75972 15.2124 6.75972C15.2124 6.75972 15.2124 6.75972 15.2124 6.75972C15.2124 6.75972 15.2124 6.75972 15.2124 6.75972C15.2124 6.75972 15.2124 6.75972 15.2124 6.75972C15.2124 6.75972 15.2124 6.75972 15.2124 6.75972C15.2124 6.75972 15.2124 6.75972 15.2124 6.75972C15.2124 6.75972 15.2124 6.75972 15.2124 6.75972C15.2124 6.75972 15.2124 6.75972 15.2124 6.75972C15.2124 6.75972 15.2124 6.75972 15.2124 6.75972C15.2124 6.75972 15.2124 6.75971 15.2124 6.75971C15.2124 6.75971 15.2124 6.75971 15.2124 6.75971C15.2124 6.75971 15.2124 6.75971 15.2124 6.75971C15.2124 6.75971 15.2124 6.75971 15.2124 6.75971C15.2124 6.75971 15.2124 6.75971 15.2124 6.75971C15.2124 6.75971 15.2124 6.75971 15.2124 6.75971C15.2124 6.75971 15.2124 6.75971 15.2124 6.75971C15.2124 6.75971 15.2124 6.75971 15.2124 6.75971C15.2124 6.75971 15.2124 6.75971 15.2124 6.75971C15.2124 6.75971 15.2124 6.75971 15.2124 6.75971C15.2124 6.75971 15.2124 6.75971 15.2124 6.75971C15.2124 6.75971 15.2124 6.75971 15.2124 6.75971C15.2124 6.75971 15.2124 6.75971 15.2124 6.75971C15.2124 6.75971 15.2124 6.75971 15.2124 6.75971C15.2124 6.75971 15.2124 6.75971 15.2124 6.75971C15.2124 6.75971 15.2124 6.75971 15.2124 6.75971C15.2124 6.75971 15.2124 6.75971 15.2124 6.75971C15.2124 6.75971 15.2124 6.75971 15.2124 6.75971C15.2124 6.75971 15.2124 6.75971 15.2124 6.75971C15.2124 6.75971 15.2124 6.75971 15.2124 6.75971C15.2124 6.75971 15.2124 6.75971 15.2124 6.75971C15.2124 6.75971 15.2124 6.75971 15.2124 6.75971C15.2124 6.75971 15.2124 6.75971 15.2124 6.75971C15.2124 6.75971 15.2124 6.75971 15.2124 6.75971C15.2124 6.75971 15.2124 6.75971 15.2124 6.75971C15.2124 6.75971 15.2124 6.75971 15.2124 6.75971C15.2124 6.75971 15.2124 6.75971 15.2124 6.75971C15.2124 6.75971 15.2124 6.75971 15.2124 6.75971C15.2124 6.75971 15.2124 6.75971 15.2124 6.75971H13.2124C13.2124 6.75971 13.2124 6.75971 13.2124 6.75971C13.2124 6.75971 13.2124 6.75971 13.2124 6.75971C13.2124 6.75971 13.2124 6.75971 13.2124 6.75971C13.2124 6.75971 13.2124 6.75971 13.2124 6.75971C13.2124 6.75971 13.2124 6.75971 13.2124 6.75971C13.2124 6.75971 13.2124 6.75971 13.2124 6.75971C13.2124 6.75971 13.2124 6.75971 13.2124 6.75971C13.2124 6.75971 13.2124 6.75971 13.2124 6.75971C13.2124 6.75971 13.2124 6.75971 13.2124 6.75971C13.2124 6.75971 13.2124 6.75971 13.2124 6.75971C13.2124 6.75971 13.2124 6.75971 13.2124 6.75971C13.2124 6.75971 13.2124 6.75971 13.2124 6.75971C13.2124 6.75971 13.2124 6.75971 13.2124 6.75971C13.2124 6.75971 13.2124 6.75971 13.2124 6.75971C13.2124 6.75971 13.2124 6.75971 13.2124 6.75971C13.2124 6.75971 13.2124 6.75971 13.2124 6.75971C13.2124 6.75971 13.2124 6.75971 13.2124 6.75971C13.2124 6.75971 13.2124 6.75971 13.2124 6.75971C13.2124 6.75971 13.2124 6.75971 13.2124 6.75971C13.2124 6.75971 13.2124 6.75971 13.2124 6.75971C13.2124 6.75971 13.2124 6.75971 13.2124 6.75971C13.2124 6.75971 13.2124 6.75971 13.2124 6.75971C13.2124 6.75971 13.2124 6.75971 13.2124 6.75971C13.2124 6.75971 13.2124 6.75971 13.2124 6.75971C13.2124 6.75971 13.2124 6.75971 13.2124 6.75971C13.2124 6.75971 13.2124 6.75971 13.2124 6.75971C13.2124 6.75971 13.2124 6.75971 13.2124 6.75971C13.2124 6.75971 13.2124 6.75971 13.2124 6.75971C13.2124 6.75971 13.2124 6.75972 13.2124 6.75972C13.2124 6.75972 13.2124 6.75972 13.2124 6.75972C13.2124 6.75972 13.2124 6.75972 13.2124 6.75972C13.2124 6.75972 13.2124 6.75972 13.2124 6.75972C13.2124 6.75972 13.2124 6.75972 13.2124 6.75972C13.2124 6.75972 13.2124 6.75972 13.2124 6.75972C13.2124 6.75972 13.2124 6.75972 13.2124 6.75972C13.2124 6.75972 13.2124 6.75972 13.2124 6.75972C13.2124 6.75972 13.2124 6.75972 13.2124 6.75972C13.2124 6.75972 13.2124 6.75972 13.2124 6.75972C13.2124 6.75972 13.2124 6.75972 13.2124 6.75972C13.2124 6.75972 13.2124 6.75972 13.2124 6.75972C13.2124 6.75972 13.2124 6.75972 13.2124 6.75972C13.2124 6.75972 13.2124 6.75972 13.2124 6.75972C13.2124 6.75972 13.2124 6.75972 13.2124 6.75972C13.2124 6.75972 13.2124 6.75972 13.2124 6.75972C13.2124 6.75972 13.2124 6.75972 13.2124 6.75972C13.2124 6.75972 13.2124 6.75972 13.2124 6.75972C13.2124 6.75972 13.2124 6.75972 13.2124 6.75972C13.2124 6.75972 13.2124 6.75972 13.2124 6.75972C13.2124 6.75972 13.2124 6.75972 13.2124 6.75972C13.2124 6.75972 13.2124 6.75972 13.2124 6.75972C13.2124 6.75972 13.2124 6.75972 13.2124 6.75972C13.2124 6.75972 13.2124 6.75972 13.2124 6.75972C13.2124 6.75972 13.2124 6.75972 13.2124 6.75972C13.2124 6.75972 13.2124 6.75972 13.2124 6.75972C13.2124 6.75972 13.2124 6.75972 13.2124 6.75972C13.2124 6.75972 13.2124 6.75972 13.2124 6.75972C13.2124 6.75972 13.2124 6.75972 13.2124 6.75972C13.2124 6.75972 13.2124 6.75972 13.2124 6.75972C13.2124 6.75972 13.2124 6.75972 13.2124 6.75972C13.2124 6.75972 13.2124 6.75972 13.2124 6.75972C13.2124 6.75972 13.2124 6.75972 13.2124 6.75972C13.2124 6.75972 13.2124 6.75972 13.2124 6.75972C13.2124 6.75972 13.2124 6.75972 13.2124 6.75972C13.2124 6.75972 13.2124 6.75972 13.2124 6.75972C13.2124 6.75972 13.2124 6.75972 13.2124 6.75972C13.2124 6.75972 13.2124 6.75972 13.2124 6.75972C13.2124 6.75972 13.2124 6.75972 13.2124 6.75972C13.2124 6.75972 13.2124 6.75972 13.2124 6.75972C13.2124 6.75972 13.2124 6.75972 13.2124 6.75972C13.2124 6.75972 13.2124 6.75972 13.2124 6.75972C13.2124 6.75972 13.2124 6.75972 13.2124 6.75972C13.2124 6.75972 13.2124 6.75972 13.2124 6.75972C13.2124 6.75972 13.2124 6.75972 13.2124 6.75972C13.2124 6.75972 13.2124 6.75972 13.2124 6.75972C13.2124 6.75972 13.2124 6.75972 13.2124 6.75972C13.2124 6.75972 13.2124 6.75972 13.2124 6.75972C13.2124 6.75972 13.2124 6.75972 13.2124 6.75972C13.2124 6.75972 13.2124 6.75972 13.2124 6.75972C13.2124 6.75972 13.2124 6.75972 13.2124 6.75972C13.2124 6.75972 13.2124 6.75972 13.2124 6.75972C13.2124 6.75972 13.2124 6.75972 13.2124 6.75972C13.2124 6.75972 13.2124 6.75972 13.2124 6.75972C13.2124 6.75972 13.2124 6.75972 13.2124 6.75972C13.2124 6.75972 13.2124 6.75972 13.2124 6.75972C13.2124 6.75972 13.2124 6.75972 13.2124 6.75972C13.2124 6.75972 13.2124 6.75972 13.2124 6.75972C13.2124 6.75972 13.2124 6.75972 13.2124 6.75972C13.2124 6.75972 13.2124 6.75972 13.2124 6.75972C13.2124 6.75972 13.2124 6.75972 13.2124 6.75972C13.2124 6.75972 13.2124 6.75972 13.2124 6.75972C13.2124 6.75972 13.2124 6.75972 13.2124 6.75972C13.2124 6.75972 13.2124 6.75972 13.2124 6.75972C13.2124 6.75972 13.2124 6.75972 13.2124 6.75972C13.2124 6.75972 13.2124 6.75972 13.2124 6.75972C13.2124 6.75972 13.2124 6.75972 13.2124 6.75972C13.2124 6.75972 13.2124 6.75972 13.2124 6.75972C13.2124 6.75972 13.2124 6.75972 13.2124 6.75972C13.2124 6.75972 13.2124 6.75972 13.2124 6.75972C13.2124 6.75972 13.2124 6.75972 13.2124 6.75972C13.2124 6.75972 13.2124 6.75972 13.2124 6.75972C13.2124 6.75972 13.2124 6.75972 13.2124 6.75972C13.2124 6.75972 13.2124 6.75972 13.2124 6.75972C13.2124 6.75972 13.2124 6.75972 13.2124 6.75972C13.2124 6.75972 13.2124 6.75972 13.2124 6.75972C13.2124 6.75972 13.2124 6.75972 13.2124 6.75972C13.2124 6.75972 13.2124 6.75972 13.2124 6.75972C13.2124 6.75972 13.2124 6.75972 13.2124 6.75972C13.2124 6.75972 13.2124 6.75972 13.2124 6.75972C13.2124 6.75972 13.2124 6.75972 13.2124 6.75972C13.2124 6.75972 13.2124 6.75972 13.2124 6.75972C13.2124 6.75972 13.2124 6.75972 13.2124 6.75972C13.2124 6.75972 13.2124 6.75972 13.2124 6.75972C13.2124 6.75972 13.2124 6.75972 13.2124 6.75972C13.2124 6.75972 13.2124 6.75972 13.2124 6.75972C13.2124 6.75972 13.2124 6.75972 13.2124 6.75972C13.2124 6.75972 13.2124 6.75972 13.2124 6.75972C13.2124 6.75972 13.2124 6.75972 13.2124 6.75972C13.2124 6.75972 13.2124 6.75972 13.2124 6.75972C13.2124 6.75972 13.2124 6.75972 13.2124 6.75972C13.2124 6.75972 13.2124 6.75972 13.2124 6.75972C13.2124 6.75972 13.2124 6.75972 13.2124 6.75972C13.2124 6.75972 13.2124 6.75972 13.2124 6.75972C13.2124 6.75972 13.2124 6.75972 13.2124 6.75972C13.2124 6.75972 13.2124 6.75972 13.2124 6.75972C13.2124 6.75972 13.2124 6.75972 13.2124 6.75972C13.2124 6.75972 13.2124 6.75972 13.2124 6.75972C13.2124 6.75972 13.2124 6.75972 13.2124 6.75972C13.2124 6.75972 13.2124 6.75972 13.2124 6.75972C13.2124 6.75972 13.2124 6.75972 13.2124 6.75972C13.2124 6.75972 13.2124 6.75972 13.2124 6.75972C13.2124 6.75972 13.2124 6.75972 13.2124 6.75972C13.2124 6.75972 13.2124 6.75972 13.2124 6.75972C13.2124 6.75972 13.2124 6.75972 13.2124 6.75972C13.2124 6.75972 13.2124 6.75972 13.2124 6.75972C13.2124 6.75972 13.2124 6.75972 13.2124 6.75972C13.2124 6.75972 13.2124 6.75972 13.2124 6.75972C13.2124 6.75972 13.2124 6.75972 13.2124 6.75972C13.2124 6.75972 13.2124 6.75972 13.2124 6.75972C13.2124 6.75972 13.2124 6.75972 13.2124 6.75972C13.2124 6.75972 13.2124 6.75972 13.2124 6.75972C13.2124 6.75972 13.2124 6.75972 13.2124 6.75972C13.2124 6.75972 13.2124 6.75972 13.2124 6.75972C13.2124 6.75972 13.2124 6.75972 13.2124 6.75972C13.2124 6.75972 13.2124 6.75972 13.2124 6.75972C13.2124 6.75972 13.2124 6.75972 13.2124 6.75972C13.2124 6.75972 13.2124 6.75972 13.2124 6.75972C13.2124 6.75972 13.2124 6.75972 13.2124 6.75972C13.2124 6.75972 13.2124 6.75972 13.2124 6.75972C13.2124 6.75972 13.2124 6.75972 13.2124 6.75972C13.2124 6.75972 13.2124 6.75972 13.2124 6.75972C13.2124 6.75972 13.2124 6.75972 13.2124 6.75972C13.2124 6.75972 13.2124 6.75972 13.2124 6.75972C13.2124 6.75972 13.2124 6.75972 13.2124 6.75972C13.2124 6.75972 13.2124 6.75972 13.2124 6.75972C13.2124 6.75972 13.2124 6.75972 13.2124 6.75972C13.2124 6.75972 13.2124 6.75972 13.2124 6.75972C13.2124 6.75972 13.2124 6.75972 13.2124 6.75972C13.2124 6.75972 13.2124 6.75972 13.2124 6.75972C13.2124 6.75972 13.2124 6.75972 13.2124 6.75972C13.2124 6.75972 13.2124 6.75972 13.2124 6.75972C13.2124 6.75972 13.2124 6.75972 13.2124 6.75972C13.2124 6.75972 13.2124 6.75972 13.2124 6.75972C13.2124 6.75972 13.2124 6.75972 13.2124 6.75972C13.2124 6.75972 13.2124 6.75972 13.2124 6.75972C13.2124 6.75972 13.2124 6.75972 13.2124 6.75972C13.2124 6.75972 13.2124 6.75972 13.2124 6.75972C13.2124 6.75972 13.2124 6.75972 13.2124 6.75972C13.2124 6.75972 13.2124 6.75972 13.2124 6.75972C13.2124 6.75972 13.2124 6.75972 13.2124 6.75972C13.2124 6.75972 13.2124 6.75972 13.2124 6.75972C13.2124 6.75972 13.2124 6.75972 13.2124 6.75972C13.2124 6.75972 13.2124 6.75972 13.2124 6.75972C13.2124 6.75972 13.2124 6.75972 13.2124 6.75972C13.2124 6.75972 13.2124 6.75972 13.2124 6.75972C13.2124 6.75972 13.2124 6.75972 13.2124 6.75972C13.2124 6.75972 13.2124 6.75972 13.2124 6.75972C13.2124 6.75972 13.2124 6.75972 13.2124 6.75972C13.2124 6.75972 13.2124 6.75972 13.2124 6.75972C13.2124 6.75972 13.2124 6.75972 13.2124 6.75972C13.2124 6.75972 13.2124 6.75972 13.2124 6.75972C13.2124 6.75972 13.2124 6.75972 13.2124 6.75972C13.2124 6.75972 13.2124 6.75972 13.2124 6.75972C13.2124 6.75972 13.2124 6.75972 13.2124 6.75972C13.2124 6.75972 13.2124 6.75972 13.2124 6.75972C13.2124 6.75972 13.2124 6.75972 13.2124 6.75972C13.2124 6.75972 13.2124 6.75972 13.2124 6.75972C13.2124 6.75972 13.2124 6.75972 13.2124 6.75972C13.2124 6.75972 13.2124 6.75972 13.2124 6.75972C13.2124 6.75972 13.2124 6.75972 13.2124 6.75972C13.2124 6.75972 13.2124 6.75972 13.2124 6.75972C13.2124 6.75972 13.2124 6.75972 13.2124 6.75972C13.2124 6.75972 13.2124 6.75972 13.2124 6.75972C13.2124 6.75972 13.2124 6.75972 13.2124 6.75972C13.2124 6.75972 13.2124 6.75972 13.2124 6.75972C13.2124 6.75972 13.2124 6.75972 13.2124 6.75972C13.2124 6.75972 13.2124 6.75972 13.2124 6.75972C13.2124 6.75972 13.2124 6.75972 13.2124 6.75972C13.2124 6.75972 13.2124 6.75972 13.2124 6.75972C13.2124 6.75972 13.2124 6.75972 13.2124 6.75972C13.2124 6.75972 13.2124 6.75972 13.2124 6.75972C13.2124 6.75972 13.2124 6.75972 13.2124 6.75972C13.2124 6.75972 13.2124 6.75972 13.2124 6.75972C13.2124 6.75972 13.2124 6.75972 13.2124 6.75972C13.2124 6.75972 13.2124 6.75972 13.2124 6.75972C13.2124 6.75972 13.2124 6.75972 13.2124 6.75972C13.2124 6.75972 13.2124 6.75972 13.2124 6.75972C13.2124 6.75972 13.2124 6.75972 13.2124 6.75972C13.2124 6.75972 13.2124 6.75972 13.2124 6.75972C13.2124 6.75972 13.2124 6.75972 13.2124 6.75972C13.2124 6.75972 13.2124 6.75972 13.2124 6.75972C13.2124 6.75972 13.2124 6.75972 13.2124 6.75972C13.2124 6.75972 13.2124 6.75972 13.2124 6.75972C13.2124 6.75972 13.2124 6.75972 13.2124 6.75972C13.2124 6.75972 13.2124 6.75972 13.2124 6.75972C13.2124 6.75972 13.2124 6.75972 13.2124 6.75972C13.2124 6.75972 13.2124 6.75972 13.2124 6.75972C13.2124 6.75972 13.2124 6.75972 13.2124 6.75972C13.2124 6.75972 13.2124 6.75972 13.2124 6.75972C13.2124 6.75972 13.2124 6.75972 13.2124 6.75972C13.2124 6.75972 13.2124 6.75972 13.2124 6.75972C13.2124 6.75972 13.2124 6.75972 13.2124 6.75972C13.2124 6.75972 13.2124 6.75972 13.2124 6.75972C13.2124 6.75972 13.2124 6.75972 13.2124 6.75972C13.2124 6.75972 13.2124 6.75972 13.2124 6.75972C13.2124 6.75972 13.2124 6.75972 13.2124 6.75972C13.2124 6.75972 13.2124 6.75972 13.2124 6.75972C13.2124 6.75972 13.2124 6.75972 13.2124 6.75972C13.2124 6.75972 13.2124 6.75972 13.2124 6.75972C13.2124 6.75972 13.2124 6.75972 13.2124 6.75972C13.2124 6.75972 13.2124 6.75972 13.2124 6.75972C13.2124 6.75972 13.2124 6.75972 13.2124 6.75972C13.2124 6.75972 13.2124 6.75972 13.2124 6.75972C13.2124 6.75972 13.2124 6.75972 13.2124 6.75972C13.2124 6.75972 13.2124 6.75972 13.2124 6.75972C13.2124 6.75972 13.2124 6.75972 13.2124 6.75972C13.2124 6.75972 13.2124 6.75972 13.2124 6.75972C13.2124 6.75972 13.2124 6.75972 13.2124 6.75972C13.2124 6.75972 13.2124 6.75972 13.2124 6.75972C13.2124 6.75972 13.2124 6.75972 13.2124 6.75972C13.2124 6.75972 13.2124 6.75972 13.2124 6.75972C13.2124 6.75972 13.2124 6.75972 13.2124 6.75972C13.2124 6.75972 13.2124 6.75972 13.2124 6.75972C13.2124 6.75972 13.2124 6.75972 13.2124 6.75972C13.2124 6.75972 13.2124 6.75972 13.2124 6.75972C13.2124 6.75972 13.2124 6.75972 13.2124 6.75972C13.2124 6.75972 13.2124 6.75972 13.2124 6.75972C13.2124 6.75972 13.2124 6.75972 13.2124 6.75972C13.2124 6.75972 13.2124 6.75972 13.2124 6.75972C13.2124 6.75972 13.2124 6.75972 13.2124 6.75972C13.2124 6.75972 13.2124 6.75972 13.2124 6.75972C13.2124 6.75972 13.2124 6.75972 13.2124 6.75972C13.2124 6.75972 13.2124 6.75972 13.2124 6.75972C13.2124 6.75972 13.2124 6.75972 13.2124 6.75972C13.2124 6.75972 13.2124 6.75972 13.2124 6.75972C13.2124 6.75972 13.2124 6.75972 13.2124 6.75972C13.2124 6.75972 13.2124 6.75972 13.2124 6.75972C13.2124 6.75972 13.2124 6.75972 13.2124 6.75972C13.2124 6.75972 13.2124 6.75972 13.2124 6.75972C13.2124 6.75972 13.2124 6.75972 13.2124 6.75972C13.2124 6.75972 13.2124 6.75972 13.2124 6.75972C13.2124 6.75972 13.2124 6.75972 13.2124 6.75972C13.2124 6.75972 13.2124 6.75972 13.2124 6.75972C13.2124 6.75972 13.2124 6.75972 13.2124 6.75972C13.2124 6.75972 13.2124 6.75972 13.2124 6.75972C13.2124 6.75972 13.2124 6.75972 13.2124 6.75972C13.2124 6.75972 13.2124 6.75972 13.2124 6.75972C13.2124 6.75972 13.2124 6.75972 13.2124 6.75972C13.2124 6.75972 13.2124 6.75972 13.2124 6.75972C13.2124 6.75972 13.2124 6.75972 13.2124 6.75972C13.2124 6.75972 13.2124 6.75972 13.2124 6.75972C13.2124 6.75972 13.2124 6.75972 13.2124 6.75972C13.2124 6.75972 13.2124 6.75972 13.2124 6.75972C13.2124 6.75972 13.2124 6.75972 13.2124 6.75972C13.2124 6.75972 13.2124 6.75972 13.2124 6.75972C13.2124 6.75972 13.2124 6.75972 13.2124 6.75972C13.2124 6.75972 13.2124 6.75972 13.2124 6.75972C13.2124 6.75972 13.2124 6.75972 13.2124 6.75972C13.2124 6.75972 13.2124 6.75972 13.2124 6.75972C13.2124 6.75972 13.2124 6.75972 13.2124 6.75972C13.2124 6.75972 13.2124 6.75972 13.2124 6.75972C13.2124 6.75972 13.2124 6.75972 13.2124 6.75972C13.2124 6.75972 13.2124 6.75972 13.2124 6.75972C13.2124 6.75972 13.2124 6.75972 13.2124 6.75972C13.2124 6.75972 13.2124 6.75972 13.2124 6.75972C13.2124 6.75972 13.2124 6.75972 13.2124 6.75972C13.2124 6.75972 13.2124 6.75972 13.2124 6.75972C13.2124 6.75972 13.2124 6.75972 13.2124 6.75972C13.2124 6.75972 13.2124 6.75972 13.2124 6.75972C13.2124 6.75972 13.2124 6.75972 13.2124 6.75972C13.2124 6.75972 13.2124 6.75972 13.2124 6.75972C13.2124 6.75972 13.2124 6.75972 13.2124 6.75972C13.2124 6.75972 13.2124 6.75972 13.2124 6.75972C13.2124 6.75972 13.2124 6.75972 13.2124 6.75972C13.2124 6.75972 13.2124 6.75972 13.2124 6.75972C13.2124 6.75972 13.2124 6.75972 13.2124 6.75972C13.2124 6.75972 13.2124 6.75972 13.2124 6.75972C13.2124 6.75972 13.2124 6.75972 13.2124 6.75972C13.2124 6.75972 13.2124 6.75972 13.2124 6.75972C13.2124 6.75972 13.2124 6.75972 13.2124 6.75972C13.2124 6.75972 13.2124 6.75972 13.2124 6.75972C13.2124 6.75972 13.2124 6.75972 13.2124 6.75972C13.2124 6.75972 13.2124 6.75972 13.2124 6.75972C13.2124 6.75972 13.2124 6.75972 13.2124 6.75972C13.2124 6.75972 13.2124 6.75972 13.2124 6.75972C13.2124 6.75972 13.2124 6.75972 13.2124 6.75972C13.2124 6.75972 13.2124 6.75972 13.2124 6.75972C13.2124 6.75972 13.2124 6.75972 13.2124 6.75972C13.2124 6.75972 13.2124 6.75972 13.2124 6.75972C13.2124 6.75972 13.2124 6.75972 13.2124 6.75972C13.2124 6.75972 13.2124 6.75972 13.2124 6.75972C13.2124 6.75972 13.2124 6.75972 13.2124 6.75972C13.2124 6.75972 13.2124 6.75972 13.2124 6.75972C13.2124 6.75972 13.2124 6.75972 13.2124 6.75972C13.2124 6.75972 13.2124 6.75972 13.2124 6.75972C13.2124 6.75972 13.2124 6.75972 13.2124 6.75972C13.2124 6.75972 13.2124 6.75972 13.2124 6.75972C13.2124 6.75972 13.2124 6.75972 13.2124 6.75972C13.2124 6.75972 13.2124 6.75972 13.2124 6.75972C13.2124 6.75972 13.2124 6.75972 13.2124 6.75972C13.2124 6.75972 13.2124 6.75972 13.2124 6.75972C13.2124 6.75972 13.2124 6.75972 13.2124 6.75972C13.2124 6.75972 13.2124 6.75972 13.2124 6.75972C13.2124 6.75972 13.2124 6.75972 13.2124 6.75972C13.2124 6.75972 13.2124 6.75972 13.2124 6.75972C13.2124 6.75972 13.2124 6.75972 13.2124 6.75972C13.2124 6.75972 13.2124 6.75972 13.2124 6.75972C13.2124 6.75972 13.2124 6.75972 13.2124 6.75972C13.2124 6.75972 13.2124 6.75972 13.2124 6.75972C13.2124 6.75972 13.2124 6.75972 13.2124 6.75972C13.2124 6.75972 13.2124 6.75972 13.2124 6.75972C13.2124 6.75972 13.2124 6.75972 13.2124 6.75972C13.2124 6.75972 13.2124 6.75972 13.2124 6.75972C13.2124 6.75972 13.2124 6.75972 13.2124 6.75972C13.2124 6.75972 13.2124 6.75972 13.2124 6.75972C13.2124 6.75972 13.2124 6.75972 13.2124 6.75972C13.2124 6.75972 13.2124 6.75972 13.2124 6.75972C13.2124 6.75972 13.2124 6.75972 13.2124 6.75972C13.2124 6.75972 13.2124 6.75972 13.2124 6.75972C13.2124 6.75972 13.2124 6.75972 13.2124 6.75972C13.2124 6.75972 13.2124 6.75972 13.2124 6.75972C13.2124 6.75972 13.2124 6.75972 13.2124 6.75972C13.2124 6.75972 13.2124 6.75972 13.2124 6.75972C13.2124 6.75972 13.2124 6.75972 13.2124 6.75972C13.2124 6.75972 13.2124 6.75972 13.2124 6.75972C13.2124 6.75972 13.2124 6.75972 13.2124 6.75972C13.2124 6.75972 13.2124 6.75972 13.2124 6.75972C13.2124 6.75972 13.2124 6.75972 13.2124 6.75972C13.2124 6.75972 13.2124 6.75972 13.2124 6.75973C13.2124 6.75973 13.2124 6.75973 13.2124 6.75973C13.2124 6.75973 13.2124 6.75973 13.2124 6.75973C13.2124 6.75973 13.2124 6.75973 13.2124 6.75973C13.2124 6.75973 13.2124 6.75973 13.2124 6.75973C13.2124 6.75973 13.2124 6.75973 13.2124 6.75973C13.2124 6.75973 13.2124 6.75973 13.2124 6.75973C13.2124 6.75973 13.2124 6.75973 13.2124 6.75973C13.2124 6.75973 13.2124 6.75973 13.2124 6.75973C13.2124 6.75973 13.2124 6.75973 13.2124 6.75973C13.2124 6.75973 13.2124 6.75973 13.2124 6.75973C13.2124 6.75973 13.2124 6.75973 13.2124 6.75973C13.2124 6.75973 13.2124 6.75973 13.2124 6.75973C13.2124 6.75973 13.2124 6.75973 13.2124 6.75973C13.2124 6.75973 13.2124 6.75973 13.2124 6.75973C13.2124 6.75973 13.2124 6.75973 13.2124 6.75973C13.2124 6.75973 13.2124 6.75973 13.2124 6.75973C13.2124 6.75973 13.2124 6.75973 13.2124 6.75973C13.2124 6.75973 13.2124 6.75973 13.2124 6.75973C13.2124 6.75973 13.2124 6.75973 13.2124 6.75973C13.2124 6.75973 13.2124 6.75973 13.2124 6.75973C13.2124 6.75973 13.2124 6.75973 13.2124 6.75973C13.2124 6.75973 13.2124 6.75973 13.2124 6.75973C13.2124 6.75973 13.2124 6.75973 13.2124 6.75973C13.2124 6.75973 13.2124 6.75973 13.2124 6.75973C13.2124 6.75973 13.2124 6.75973 13.2124 6.75973C13.2124 6.75973 13.2124 6.75973 13.2124 6.75973C13.2124 6.75973 13.2124 6.75973 13.2124 6.75973C13.2124 6.75973 13.2124 6.75973 13.2124 6.75973C13.2124 6.75973 13.2124 6.75973 13.2124 6.75973C13.2124 6.75973 13.2124 6.75973 13.2124 6.75973C13.2124 6.75973 13.2124 6.75973 13.2124 6.75973C13.2124 6.75973 13.2124 6.75973 13.2124 6.75973C13.2124 6.75973 13.2124 6.75973 13.2124 6.75973C13.2124 6.75973 13.2124 6.75973 13.2124 6.75973C13.2124 6.75973 13.2124 6.75973 13.2124 6.75973C13.2124 6.75973 13.2124 6.75973 13.2124 6.75973C13.2124 6.75973 13.2124 6.75973 13.2124 6.75973C13.2124 6.75973 13.2124 6.75973 13.2124 6.75973C13.2124 6.75973 13.2124 6.75973 13.2124 6.75973C13.2124 6.75973 13.2124 6.75973 13.2124 6.75973C13.2124 6.75973 13.2124 6.75973 13.2124 6.75973C13.2124 6.75973 13.2124 6.75973 13.2124 6.75973C13.2124 6.75973 13.2124 6.75973 13.2124 6.75973C13.2124 6.75973 13.2124 6.75973 13.2124 6.75973C13.2124 6.75973 13.2124 6.75973 13.2124 6.75973C13.2124 6.75973 13.2124 6.75973 13.2124 6.75973C13.2124 6.75973 13.2124 6.75973 13.2124 6.75973C13.2124 6.75973 13.2124 6.75973 13.2124 6.75973C13.2124 6.75973 13.2124 6.75973 13.2124 6.75973C13.2124 6.75973 13.2124 6.75973 13.2124 6.75973C13.2124 6.75973 13.2124 6.75973 13.2124 6.75973C13.2124 6.75973 13.2124 6.75973 13.2124 6.75973C13.2124 6.75973 13.2124 6.75973 13.2124 6.75973C13.2124 6.75973 13.2124 6.75973 13.2124 6.75973C13.2124 6.75973 13.2124 6.75973 13.2124 6.75973C13.2124 6.75973 13.2124 6.75973 13.2124 6.75973C13.2124 6.75973 13.2124 6.75973 13.2124 6.75973C13.2124 6.75973 13.2124 6.75973 13.2124 6.75973C13.2124 6.75973 13.2124 6.75973 13.2124 6.75973C13.2124 6.75973 13.2124 6.75973 13.2124 6.75973C13.2124 6.75973 13.2124 6.75973 13.2124 6.75973C13.2124 6.75973 13.2124 6.75973 13.2124 6.75973C13.2124 6.75973 13.2124 6.75973 13.2124 6.75973C13.2124 6.75973 13.2124 6.75973 13.2124 6.75973C13.2124 6.75973 13.2124 6.75973 13.2124 6.75973C13.2124 6.75973 13.2124 6.75973 13.2124 6.75973C13.2124 6.75973 13.2124 6.75973 13.2124 6.75973C13.2124 6.75973 13.2124 6.75973 13.2124 6.75973C13.2124 6.75973 13.2124 6.75973 13.2124 6.75973C13.2124 6.75973 13.2124 6.75973 13.2124 6.75973C13.2124 6.75973 13.2124 6.75973 13.2124 6.75973C13.2124 6.75973 13.2124 6.75973 13.2124 6.75973C13.2124 6.75973 13.2124 6.75973 13.2124 6.75973C13.2124 6.75973 13.2124 6.75973 13.2124 6.75973C13.2124 6.75973 13.2124 6.75973 13.2124 6.75973C13.2124 6.75973 13.2124 6.75973 13.2124 6.75973C13.2124 6.75973 13.2124 6.75973 13.2124 6.75973C13.2124 6.75973 13.2124 6.75973 13.2124 6.75973C13.2124 6.75973 13.2124 6.75973 13.2124 6.75973C13.2124 6.75973 13.2124 6.75973 13.2124 6.75973C13.2124 6.75973 13.2124 6.75973 13.2124 6.75973C13.2124 6.75973 13.2124 6.75973 13.2124 6.75973C13.2124 6.75973 13.2124 6.75973 13.2124 6.75973C13.2124 6.75973 13.2124 6.75973 13.2124 6.75973C13.2124 6.75973 13.2124 6.75973 13.2124 6.75973C13.2124 6.75973 13.2124 6.75973 13.2124 6.75973C13.2124 6.75973 13.2124 6.75973 13.2124 6.75973C13.2124 6.75973 13.2124 6.75973 13.2124 6.75973C13.2124 6.75973 13.2124 6.75973 13.2124 6.75973C13.2124 6.75973 13.2124 6.75973 13.2124 6.75973C13.2124 6.75973 13.2124 6.75973 13.2124 6.75973C13.2124 6.75973 13.2124 6.75973 13.2124 6.75973C13.2124 6.75973 13.2124 6.75973 13.2124 6.75973C13.2124 6.75973 13.2124 6.75973 13.2124 6.75973C13.2124 6.75973 13.2124 6.75973 13.2124 6.75973C13.2124 6.75973 13.2124 6.75973 13.2124 6.75973C13.2124 6.75973 13.2124 6.75973 13.2124 6.75973C13.2124 6.75973 13.2124 6.75973 13.2124 6.75973C13.2124 6.75973 13.2124 6.75973 13.2124 6.75973C13.2124 6.75973 13.2124 6.75973 13.2124 6.75973C13.2124 6.75973 13.2124 6.75973 13.2124 6.75973C13.2124 6.75973 13.2124 6.75973 13.2124 6.75973C13.2124 6.75973 13.2124 6.75973 13.2124 6.75973C13.2124 6.75973 13.2124 6.75973 13.2124 6.75973C13.2124 6.75973 13.2124 6.75973 13.2124 6.75973C13.2124 6.75973 13.2124 6.75973 13.2124 6.75973C13.2124 6.75973 13.2124 6.75973 13.2124 6.75973C13.2124 6.75973 13.2124 6.75973 13.2124 6.75973C13.2124 6.75973 13.2124 6.75973 13.2124 6.75973C13.2124 6.75973 13.2124 6.75973 13.2124 6.75973C13.2124 6.75973 13.2124 6.75973 13.2124 6.75973C13.2124 6.75973 13.2124 6.75973 13.2124 6.75973C13.2124 6.75973 13.2124 6.75973 13.2124 6.75973C13.2124 6.75973 13.2124 6.75973 13.2124 6.75973C13.2124 6.75973 13.2124 6.75973 13.2124 6.75973C13.2124 6.75973 13.2124 6.75973 13.2124 6.75973C13.2124 6.75973 13.2124 6.75973 13.2124 6.75973C13.2124 6.75973 13.2124 6.75973 13.2124 6.75973C13.2124 6.75973 13.2124 6.75973 13.2124 6.75973C13.2124 6.75973 13.2124 6.75973 13.2124 6.75973C13.2124 6.75973 13.2124 6.75973 13.2124 6.75973C13.2124 6.75973 13.2124 6.75973 13.2124 6.75973C13.2124 6.75973 13.2124 6.75973 13.2124 6.75973C13.2124 6.75973 13.2124 6.75973 13.2124 6.75973C13.2124 6.75973 13.2124 6.75973 13.2124 6.75973C13.2124 6.75973 13.2124 6.75973 13.2124 6.75973C13.2124 6.75973 13.2124 6.75973 13.2124 6.75973C13.2124 6.75973 13.2124 6.75973 13.2124 6.75973C13.2124 6.75973 13.2124 6.75973 13.2124 6.75973C13.2124 6.75973 13.2124 6.75973 13.2124 6.75973C13.2124 6.75973 13.2124 6.75973 13.2124 6.75973C13.2124 6.75973 13.2124 6.75973 13.2124 6.75973C13.2124 6.75973 13.2124 6.75973 13.2124 6.75973C13.2124 6.75973 13.2124 6.75973 13.2124 6.75973C13.2124 6.75973 13.2124 6.75973 13.2124 6.75973C13.2124 6.75973 13.2124 6.75973 13.2124 6.75973C13.2124 6.75973 13.2124 6.75973 13.2124 6.75973C13.2124 6.75973 13.2124 6.75973 13.2124 6.75973C13.2124 6.75973 13.2124 6.75973 13.2124 6.75973C13.2124 6.75973 13.2124 6.75973 13.2124 6.75973C13.2124 6.75973 13.2124 6.75973 13.2124 6.75973C13.2124 6.75973 13.2124 6.75973 13.2124 6.75973C13.2124 6.75973 13.2124 6.75973 13.2124 6.75973C13.2124 6.75973 13.2124 6.75973 13.2124 6.75973C13.2124 6.75973 13.2124 6.75973 13.2124 6.75973C13.2124 6.75973 13.2124 6.75973 13.2124 6.75973C13.2124 6.75973 13.2124 6.75973 13.2124 6.75973C13.2124 6.75973 13.2124 6.75973 13.2124 6.75973C13.2124 6.75973 13.2124 6.75973 13.2124 6.75973C13.2124 6.75973 13.2124 6.75973 13.2124 6.75973C13.2124 6.75973 13.2124 6.75973 13.2124 6.75973C13.2124 6.75973 13.2124 6.75973 13.2124 6.75973C13.2124 6.75973 13.2124 6.75973 13.2124 6.75973C13.2124 6.75973 13.2124 6.75973 13.2124 6.75973C13.2124 6.75973 13.2124 6.75973 13.2124 6.75973C13.2124 6.75973 13.2124 6.75973 13.2124 6.75973C13.2124 6.75973 13.2124 6.75973 13.2124 6.75973C13.2124 6.75973 13.2124 6.75973 13.2124 6.75973C13.2124 6.75973 13.2124 6.75973 13.2124 6.75973C13.2124 6.75973 13.2124 6.75973 13.2124 6.75973C13.2124 6.75973 13.2124 6.75973 13.2124 6.75973C13.2124 6.75973 13.2124 6.75973 13.2124 6.75973C13.2124 6.75973 13.2124 6.75973 13.2124 6.75973C13.2124 6.75973 13.2124 6.75973 13.2124 6.75973H15.2124ZM16.9721 5.75973H14.2124V7.75973H16.9721V5.75973ZM17.9721 9.51943V6.75973H15.9721V9.51943H17.9721Z" fill="white" mask="url(#path-12-inside-1_1298_11624)"/>
<path fill-rule="evenodd" clip-rule="evenodd" d="M14 6.97217H16.7597V9.73187C16.7597 9.73187 16.7597 9.73187 16.7597 9.73187C15.2356 9.73187 14 8.49631 14 6.97217Z" fill="white"/>
<path d="M4.59016 17.7963L4 17.2407V19H10V14L7.44262 16.4074L6.7541 15.7593L4.59016 17.7963Z" fill="white" stroke="white"/>
</svg>
