<svg width="24" height="24" viewBox="0 0 24 24" fill="none" xmlns="http://www.w3.org/2000/svg">
<path d="M2 8C2 5.17157 2 3.75736 2.87868 2.87868C3.75736 2 5.17157 2 8 2H16C18.8284 2 20.2426 2 21.1213 2.87868C22 3.75736 22 5.17157 22 8V16C22 18.8284 22 20.2426 21.1213 21.1213C20.2426 22 18.8284 22 16 22H8C5.17157 22 3.75736 22 2.87868 21.1213C2 20.2426 2 18.8284 2 16V8Z" stroke="#2C9ED7"/>
<path d="M12 2V22" stroke="#2C9ED7"/>
<path d="M22 12L2 12" stroke="#2C9ED7"/>
<path d="M10 4V10" stroke="#90D6FA"/>
<path d="M20 20L14 20" stroke="#2C9ED7"/>
<path d="M8 6V10" stroke="#90D6FA"/>
<path d="M18 18L14 18" stroke="#90D6FA"/>
<path d="M6 5V10" stroke="#90D6FA"/>
<path d="M19 16L14 16" stroke="#2C9ED7"/>
<path d="M4 7V10" stroke="#90D6FA"/>
<path d="M17 14L14 14" stroke="#90D6FA"/>
<path fill-rule="evenodd" clip-rule="evenodd" d="M16.9721 9.51943C18.4963 9.51943 19.7318 8.28386 19.7318 6.75971C19.7318 5.23557 18.4963 4 16.9721 4C15.448 4 14.2124 5.23557 14.2124 6.75971C14.2124 6.75972 14.2124 6.75972 14.2124 6.75973H16.9721V9.51943Z" fill="#90D6FA"/>
<path fill-rule="evenodd" clip-rule="evenodd" d="M14 6.97192H16.7597V9.73162C16.7597 9.73162 16.7597 9.73162 16.7597 9.73162C15.2356 9.73162 14 8.49606 14 6.97192Z" fill="#90D6FA"/>
<path d="M4.59016 17.7963L4 17.2407V19H10V14L7.44262 16.4074L6.7541 15.7593L4.59016 17.7963Z" fill="#90D6FA"/>
</svg>
