<svg width="48" height="48" viewBox="0 0 48 48" fill="none" xmlns="http://www.w3.org/2000/svg">
<path fill-rule="evenodd" clip-rule="evenodd" d="M11.9944 32.5115C13.8478 35.0434 16.4869 36.9639 19.5528 37.914C17.7866 36.0105 16.4066 33.0659 15.6743 29.5513C15.5114 29.6195 15.3527 29.6896 15.1983 29.7616C13.4979 30.5543 12.4182 31.5188 11.9944 32.5115ZM16.6215 29.1927C17.0648 31.3895 17.7669 33.3433 18.6497 34.9323C19.5325 36.5213 20.5537 37.6818 21.6323 38.396C22.2701 38.4958 22.9214 38.5548 23.5835 38.5703V28.087C20.9675 28.1187 18.5672 28.5281 16.6215 29.1927ZM27.097 38.2359C26.2822 38.4133 25.4424 38.5235 24.5835 38.5605V28.0934C27.3529 28.1624 29.8648 28.6548 31.8297 29.4222C31.3846 31.5257 30.7009 33.3988 29.849 34.9323C29.0293 36.4077 28.0904 37.5136 27.097 38.2359ZM35.8467 32.5541C34.181 34.8128 31.8881 36.5806 29.2251 37.6007C30.812 35.7479 32.06 33.0346 32.7652 29.828C34.4087 30.6193 35.4472 31.574 35.8467 32.5541ZM36.474 15.9369C37.9007 18.2114 38.7257 20.9018 38.7257 23.7849C38.7257 26.6578 37.9066 29.3393 36.4892 31.6087C35.8179 30.502 34.5757 29.5677 33.0477 28.8553L32.9663 28.8177C33.2509 27.2255 33.4047 25.5276 33.4047 23.7651C33.4047 21.9994 33.2504 20.2985 32.9648 18.7038L33.0026 18.6864L33.0477 18.6655C34.5643 17.9584 35.7993 17.0327 36.474 15.9369ZM29.2753 9.98854C31.91 11.0088 34.1795 12.7621 35.8337 14.9982C35.4247 15.9676 34.3903 16.9106 32.7633 17.6937C32.0652 14.5247 30.8369 11.8381 29.2753 9.98854ZM24.5835 9.00936C25.4693 9.04751 26.3349 9.16357 27.1736 9.35087C28.1387 10.0738 29.0504 11.1605 29.849 12.5979C30.6997 14.1292 31.3827 15.9994 31.8279 18.0993C29.8633 18.8662 27.352 19.3584 24.5835 19.4274V9.00936ZM23.5835 8.99957V19.4337C20.9683 19.402 18.5687 18.9929 16.6233 18.3286C17.0666 16.1354 17.7681 14.1848 18.6497 12.5979C19.5114 11.0469 20.505 9.90413 21.555 9.18614C22.2175 9.07891 22.8947 9.01569 23.5835 8.99957ZM32.0199 28.4241C29.9502 27.6436 27.3772 27.1602 24.5835 27.0931V20.4277C27.3765 20.3606 29.949 19.8774 32.0184 19.0973C32.2686 20.5668 32.4047 22.134 32.4047 23.7651C32.4047 25.3929 32.2692 26.9571 32.0199 28.4241ZM23.5835 27.087V20.4338C20.9401 20.4029 18.4815 19.9996 16.4429 19.323C16.2165 20.7269 16.094 22.2173 16.094 23.7651C16.094 25.3096 16.216 26.7969 16.4414 28.1982C18.4804 27.5213 20.9395 27.1179 23.5835 27.087ZM11.3586 31.5691C9.95634 29.3081 9.14673 26.6411 9.14673 23.7849C9.14673 20.9184 9.96224 18.2424 11.3739 15.9762C12.0537 17.0549 13.2773 17.9669 14.7757 18.6655C15.0049 18.7723 15.2421 18.875 15.487 18.9735C15.2315 20.4898 15.094 22.0985 15.094 23.7651C15.094 25.4284 15.2309 27.0342 15.4856 28.5479C15.2412 28.6462 15.0044 28.7487 14.7757 28.8553C13.266 29.5592 12.0353 30.4797 11.3586 31.5691ZM12.0078 15.0401C13.8501 12.5313 16.4649 10.6251 19.5015 9.67185C17.7614 11.5753 16.4017 14.4935 15.6761 17.9702C15.5126 17.9018 15.3533 17.8314 15.1983 17.7591C13.5156 16.9746 12.4407 16.0219 12.0078 15.0401Z" fill="url(#paint0_linear_3303_63322)"/>
<circle cx="24" cy="24" r="17.5" stroke="#639AC4"/>
<defs>
<linearGradient id="paint0_linear_3303_63322" x1="23.9362" y1="9.17559" x2="23.9362" y2="38.7463" gradientUnits="userSpaceOnUse">
<stop stop-color="#4579A0"/>
<stop offset="1" stop-color="#1F3F59"/>
</linearGradient>
</defs>
</svg>
