<svg width="57" height="57" viewBox="0 0 57 57" fill="none" xmlns="http://www.w3.org/2000/svg">
<path fill-rule="evenodd" clip-rule="evenodd" d="M28.5 9.35156C17.9246 9.35156 9.35156 17.9246 9.35156 28.5C9.35156 39.0754 17.9246 47.6484 28.5 47.6484C39.0754 47.6484 47.6484 39.0754 47.6484 28.5C47.6484 17.9246 39.0754 9.35156 28.5 9.35156ZM7.125 28.5C7.125 16.6949 16.6949 7.125 28.5 7.125C40.3051 7.125 49.875 16.6949 49.875 28.5C49.875 40.3051 40.3051 49.875 28.5 49.875C16.6949 49.875 7.125 40.3051 7.125 28.5Z" fill="#EFF6FF"/>
<path fill-rule="evenodd" clip-rule="evenodd" d="M21.2433 18.2282C22.3612 14.8576 24.0137 11.8706 26.0715 9.46631L24.3887 8.01562C22.1242 10.6614 20.3376 13.9093 19.1384 17.5251C19.0997 17.6417 19.0617 17.7586 19.0243 17.8758C17.1589 17.0819 15.4904 16.0612 14.0872 14.8606L12.648 16.5549C14.0119 17.7218 15.5793 18.7241 17.2968 19.5382L17.297 19.5283C17.9719 19.8427 19.2563 20.3905 20.5113 20.8078L20.516 20.7882C23.1876 21.6156 26.0501 22.0183 28.9283 21.974C30.7533 21.9459 32.5627 21.7384 34.3123 21.3584C34.3818 21.3315 34.466 21.3097 34.5661 21.2937C34.6125 21.2862 34.6597 21.2781 34.7076 21.2694C35.3079 21.1294 35.9006 20.9689 36.484 20.7882L36.4858 20.7956C37.7345 20.3878 39.0083 19.8544 39.6802 19.5468L39.6802 19.5491C41.6523 18.617 43.4245 17.4382 44.9179 16.0505L43.4107 14.4168C41.9141 15.8075 40.0718 16.9837 37.9757 17.8758C37.9383 17.7586 37.9003 17.6417 37.8616 17.5251C36.6624 13.9093 34.8758 10.6614 32.6113 8.01562L30.9285 9.46631C32.9863 11.8706 34.6389 14.8576 35.7568 18.2282C35.8023 18.3656 35.847 18.5035 35.8907 18.6419C33.6791 19.3334 31.3062 19.7107 28.8943 19.7479C26.219 19.7891 23.5677 19.4106 21.1094 18.6419C21.153 18.5035 21.1977 18.3656 21.2433 18.2282ZM44.2507 27.3206V29.547H48.6875V27.3206H44.2507ZM39.6602 37.309L39.6594 37.3393C38.7752 36.9273 36.8123 36.1635 35.2908 35.7413C33.1711 35.1953 30.9487 34.9076 28.7057 34.8911C26.1265 34.872 23.5655 35.2117 21.1483 35.8925C19.7244 36.3277 18.0837 36.9728 17.297 37.3393L17.2968 37.3293C15.3135 38.2694 13.5326 39.4594 12.035 40.8611L13.548 42.4893C15.0523 41.0814 16.9095 39.8919 19.0243 38.9918C19.1702 39.449 19.3257 39.9016 19.4908 40.3489C20.8014 43.8997 22.6885 47.0526 25.0363 49.5781L26.6584 48.0593C24.5321 45.7721 22.7909 42.8806 21.5711 39.5756C21.4071 39.1312 21.2531 38.6811 21.1094 38.2257C23.5022 37.4775 26.0807 37.0981 28.6894 37.1174C31.1714 37.1357 33.6162 37.5145 35.8907 38.2257C35.7469 38.6811 35.5929 39.1312 35.4289 39.5756C34.2091 42.8806 32.4679 45.7721 30.3416 48.0593L31.9637 49.5781C34.3115 47.0526 36.1987 43.8997 37.5092 40.3489C37.6743 39.9016 37.8298 39.449 37.9757 38.9918C40.2019 39.9393 42.1396 41.2062 43.6811 42.708L45.2263 41.1106C43.6668 39.5911 41.7791 38.308 39.6602 37.309ZM13.8585 29.547V27.3206H8.3125V29.547H13.8585Z" fill="#EFF6FF"/>
<path d="M16.625 30.7949V26.2019H18.0606C19.5 26.2019 20.2197 26.9482 20.2197 28.4407C20.2197 29.1561 20.0228 29.7273 19.6291 30.1543C19.2372 30.5814 18.7144 30.7949 18.0606 30.7949H16.625ZM17.5378 27.0443V29.9557H17.99C18.3856 29.9557 18.6955 29.8212 18.9197 29.5522C19.1458 29.2831 19.2589 28.9169 19.2589 28.4536C19.2589 28.0158 19.1468 27.672 18.9226 27.4222C18.7003 27.1702 18.3875 27.0443 17.9843 27.0443H17.5378Z" fill="#EFF6FF"/>
<path d="M22.6049 30.875C22.0246 30.875 21.5517 30.6615 21.1862 30.2344C20.8207 29.8052 20.638 29.2468 20.638 28.5593C20.638 27.8332 20.8235 27.246 21.1947 26.7976C21.5659 26.3492 22.0576 26.125 22.6699 26.125C23.2483 26.125 23.7155 26.3396 24.0716 26.7688C24.4296 27.198 24.6085 27.7639 24.6085 28.4664C24.6085 29.1881 24.423 29.77 24.0518 30.212C23.6826 30.654 23.2002 30.875 22.6049 30.875ZM22.6445 27.0154C22.3242 27.0154 22.0698 27.1521 21.8814 27.4254C21.693 27.6966 21.5988 28.0564 21.5988 28.5048C21.5988 28.9596 21.693 29.3194 21.8814 29.5842C22.0698 29.849 22.3166 29.9814 22.6218 29.9814C22.9365 29.9814 23.1861 29.8533 23.3707 29.597C23.5554 29.3386 23.6477 28.981 23.6477 28.524C23.6477 28.0478 23.5582 27.6774 23.3792 27.4126C23.2002 27.1478 22.9553 27.0154 22.6445 27.0154Z" fill="#EFF6FF"/>
<path d="M29.9017 30.7949H29.0002V28.0468C29.0002 27.75 29.0115 27.4222 29.0341 27.0635H29.0115C28.9644 27.3453 28.922 27.5482 28.8843 27.672L27.9348 30.7949H27.1887L26.2222 27.7041C26.1958 27.6208 26.1534 27.4073 26.095 27.0635H26.0696C26.0941 27.5162 26.1063 27.9133 26.1063 28.255V30.7949H25.284V26.2019H26.6207L27.4487 28.9244C27.5147 29.1422 27.5627 29.3611 27.5928 29.581H27.6098C27.6607 29.3269 27.7144 29.1059 27.7709 28.918L28.5989 26.2019H29.9017V30.7949Z" fill="#EFF6FF"/>
<path d="M34.3866 30.7949H33.3919L33.1036 29.7732H31.6623L31.3769 30.7949H30.3878L31.863 26.2019H32.9454L34.3866 30.7949ZM32.8945 28.9788L32.4593 27.435C32.4272 27.3197 32.4046 27.182 32.3914 27.0218H32.3688C32.3594 27.1564 32.3359 27.2898 32.2982 27.4222L31.8573 28.9788H32.8945Z" fill="#EFF6FF"/>
<path d="M35.8053 30.7949H34.8925V26.2019H35.8053V30.7949Z" fill="#EFF6FF"/>
<path d="M40.375 30.7949H39.4537L37.7835 27.9091C37.6856 27.7404 37.6177 27.6133 37.58 27.5279H37.5687C37.5838 27.6902 37.5914 27.9379 37.5914 28.271V30.7949H36.7294V26.2019H37.7129L39.3209 28.9981C39.3944 29.124 39.4622 29.249 39.5244 29.3728H39.5357C39.5206 29.266 39.5131 29.0557 39.5131 28.7418V26.2019H40.375V30.7949Z" fill="#EFF6FF"/>
</svg>
