<svg width="200" height="200" viewBox="0 0 200 200" fill="none" xmlns="http://www.w3.org/2000/svg">
<path fill-rule="evenodd" clip-rule="evenodd" d="M52.105 134.623C59.5312 144.565 69.9971 152.104 82.1254 155.862C75.1127 148.304 69.6153 136.66 66.6482 122.758C66.0302 123.018 65.4275 123.285 64.8405 123.558C57.8773 126.805 53.6517 130.711 52.105 134.623ZM71.3882 120.999C73.1542 129.585 75.9133 137.209 79.3568 143.407C83.4045 150.693 88.1166 155.585 92.972 158.135C94.5717 158.316 96.1906 158.434 97.8262 158.485V116.884C87.9436 117.05 78.8614 118.563 71.3882 120.999ZM109.882 157.652C107.573 158.05 105.218 158.314 102.826 158.436V116.916C113.308 117.227 122.832 119.055 130.411 121.881C128.64 130.107 125.953 137.422 122.628 143.407C118.822 150.257 114.429 154.991 109.882 157.652ZM147.234 134.796C140.572 143.647 131.495 150.576 120.981 154.604C127.274 147.256 132.24 136.539 135.092 123.872C141.763 127.103 145.791 130.952 147.234 134.796ZM150.39 68.0432C155.943 77.0809 159.146 87.7183 159.146 99.1037C159.146 110.447 155.967 121.048 150.451 130.064C147.651 125.59 142.61 121.855 136.544 119.027C136.396 118.958 136.247 118.889 136.098 118.821C137.185 112.57 137.771 105.92 137.771 99.024C137.771 92.115 137.183 85.4532 136.092 79.1919C136.243 79.1228 136.394 79.0534 136.544 78.9835C142.566 76.176 147.577 72.4741 150.39 68.0432ZM121.182 43.6815C131.584 47.7098 140.57 54.5822 147.184 63.3447C145.699 67.1469 141.684 70.9463 135.084 74.1416C132.262 61.6255 127.374 51.0153 121.182 43.6815ZM102.826 39.7712C105.348 39.9005 107.829 40.1871 110.259 40.6214C114.672 43.3202 118.927 47.9804 122.628 54.6411C125.948 60.6179 128.632 67.9199 130.403 76.132C122.826 78.9568 113.304 80.7834 102.826 81.0937V39.7712ZM97.8262 39.7222V81.1257C87.9469 80.9604 78.8674 79.4482 71.3955 77.0132C73.1618 68.4419 75.9181 60.8309 79.3568 54.6411C83.2994 47.5445 87.8722 42.719 92.594 40.1168C94.3165 39.9105 96.0617 39.7778 97.8262 39.7222ZM131.351 116.901C123.282 114.01 113.452 112.215 102.826 111.914V86.0958C113.45 85.7951 123.277 84.0014 131.345 81.111C132.269 86.7608 132.771 92.7717 132.771 99.024C132.771 105.263 132.271 111.262 131.351 116.901ZM97.8262 111.884V86.1264C87.7868 85.9658 78.4124 84.4733 70.5014 81.9773C69.6658 87.3739 69.2139 93.0902 69.2139 99.024C69.2139 104.945 69.6638 110.649 70.4958 116.035C78.408 113.538 87.7845 112.044 97.8262 111.884ZM48.921 129.906C43.4647 120.924 40.3228 110.381 40.3228 99.1037C40.3228 87.7841 43.4884 77.2039 48.9827 68.2001C51.8132 72.5615 56.7769 76.2092 62.7278 78.9835C63.6877 79.431 64.6827 79.8607 65.7103 80.2718C64.7365 86.2172 64.2139 92.5108 64.2139 99.024C64.2139 105.524 64.7344 111.806 65.7045 117.741C64.6789 118.151 63.6859 118.58 62.7278 119.027C56.7334 121.821 51.7407 125.502 48.921 129.906ZM52.1566 63.5155C59.5375 53.6639 69.9067 46.1803 81.9195 42.4093C75.0109 49.9662 69.5953 61.5048 66.6556 75.2555C66.0351 74.9945 65.4298 74.7265 64.8405 74.4517C57.9534 71.241 53.7443 67.3843 52.1566 63.5155Z" fill="url(#paint0_linear_1289_91703)"/>
<circle cx="100" cy="100" r="72.5" stroke="#2C9ED7" stroke-width="5"/>
<ellipse cx="158.333" cy="141.667" rx="33.3333" ry="33.3333" fill="white"/>
<path d="M141.667 148.333L152.778 158.333L175 133.333" stroke="#2C9ED7" stroke-width="10" stroke-linecap="round" stroke-linejoin="round"/>
<defs>
<linearGradient id="paint0_linear_1289_91703" x1="105.393" y1="39.7222" x2="105.393" y2="158.485" gradientUnits="userSpaceOnUse">
<stop stop-color="#2C9ED7"/>
<stop offset="1" stop-color="#90D6FA"/>
</linearGradient>
</defs>
</svg>
