<svg width="24" height="24" viewBox="0 0 24 24" fill="none" xmlns="http://www.w3.org/2000/svg">
<path fill-rule="evenodd" clip-rule="evenodd" d="M12 3.9375C7.5472 3.9375 3.9375 7.5472 3.9375 12C3.9375 16.4528 7.5472 20.0625 12 20.0625C16.4528 20.0625 20.0625 16.4528 20.0625 12C20.0625 7.5472 16.4528 3.9375 12 3.9375ZM3 12C3 7.02944 7.02944 3 12 3C16.9706 3 21 7.02944 21 12C21 16.9706 16.9706 21 12 21C7.02944 21 3 16.9706 3 12Z" fill="#EFF6FF"/>
<path fill-rule="evenodd" clip-rule="evenodd" d="M8.94453 7.67505C9.41522 6.25583 10.111 4.99814 10.9775 3.98582L10.2689 3.375C9.31547 4.489 8.5632 5.85654 8.05827 7.37899C8.04199 7.42808 8.02597 7.4773 8.01023 7.52664C7.2248 7.19236 6.52229 6.76262 5.93143 6.25711L5.32546 6.9705C5.89974 7.46182 6.55969 7.88385 7.28285 8.22663L7.28297 8.22243C7.56712 8.35483 8.10793 8.58549 8.63634 8.7612L8.63831 8.75293C9.7632 9.10129 10.9684 9.27086 12.1804 9.25221C12.9488 9.24038 13.7106 9.15302 14.4473 8.99302C14.4765 8.98168 14.512 8.97251 14.5541 8.96575C14.5737 8.96261 14.5936 8.95921 14.6137 8.95554C14.8665 8.89658 15.116 8.82901 15.3617 8.75293L15.3624 8.75603C15.8882 8.58434 16.4246 8.35973 16.7074 8.23022L16.7075 8.23122C17.5378 7.83875 18.284 7.34241 18.9128 6.75809L18.2782 6.07025C17.648 6.65581 16.8723 7.15102 15.9898 7.52663C15.974 7.47729 15.958 7.42808 15.9417 7.37899C15.4368 5.85654 14.6845 4.489 13.7311 3.375L13.0225 3.98582C13.889 4.99814 14.5848 6.25583 15.0555 7.67505C15.0747 7.73291 15.0935 7.79097 15.1119 7.84923C14.1807 8.1404 13.1816 8.29926 12.166 8.31489C11.0396 8.33224 9.92322 8.17289 8.88815 7.84923C8.90654 7.79097 8.92534 7.73291 8.94453 7.67505ZM18.6319 11.5034V12.4408H20.5V11.5034H18.6319ZM16.699 15.7091L16.6987 15.7218C16.3264 15.5484 15.4999 15.2267 14.8593 15.049C13.9668 14.8191 13.031 14.698 12.0866 14.691C11.0006 14.6829 9.92231 14.826 8.90453 15.1126C8.305 15.2959 7.6142 15.5675 7.28297 15.7218L7.28285 15.7176C6.44779 16.1135 5.69795 16.6145 5.06736 17.2047L5.7044 17.8903C6.33782 17.2974 7.11977 16.7966 8.01023 16.4176C8.07165 16.6101 8.13714 16.8007 8.20667 16.989C8.75846 18.4841 9.55306 19.8116 10.5416 20.875L11.2246 20.2355C10.3293 19.2724 9.59617 18.055 9.08258 16.6634C9.01352 16.4763 8.94869 16.2868 8.88815 16.095C9.89565 15.78 10.9813 15.6203 12.0797 15.6284C13.1248 15.6361 14.1542 15.7956 15.1119 16.095C15.0513 16.2868 14.9865 16.4763 14.9174 16.6634C14.4038 18.055 13.6707 19.2724 12.7754 20.2355L13.4584 20.875C14.4469 19.8116 15.2415 18.4841 15.7933 16.989C15.8629 16.8007 15.9283 16.6101 15.9898 16.4176C16.9271 16.8165 17.743 17.35 18.392 17.9823L19.0427 17.3097C18.386 16.6699 17.5912 16.1297 16.699 15.7091ZM5.83517 12.4408V11.5034H3.5V12.4408H5.83517Z" fill="#EFF6FF"/>
<path d="M7 12.9663V11.0324H7.60447C8.21053 11.0324 8.51356 11.3466 8.51356 11.9751C8.51356 12.2762 8.43067 12.5167 8.26487 12.6966C8.09987 12.8764 7.87974 12.9663 7.60447 12.9663H7ZM7.38434 11.3871V12.6129H7.57473C7.74131 12.6129 7.87181 12.5563 7.96621 12.443C8.0614 12.3297 8.109 12.1755 8.109 11.9804C8.109 11.7961 8.0618 11.6514 7.9674 11.5462C7.87379 11.4401 7.74211 11.3871 7.57235 11.3871H7.38434Z" fill="#EFF6FF"/>
<path d="M9.51785 13C9.27352 13 9.07441 12.9101 8.92051 12.7303C8.76662 12.5496 8.68967 12.3145 8.68967 12.0249C8.68967 11.7193 8.76781 11.472 8.92408 11.2832C9.08036 11.0944 9.2874 11 9.54522 11C9.78875 11 9.98548 11.0904 10.1354 11.2711C10.2861 11.4518 10.3615 11.69 10.3615 11.9858C10.3615 12.2897 10.2834 12.5347 10.1271 12.7208C9.9716 12.9069 9.76852 13 9.51785 13ZM9.53451 11.3749C9.39965 11.3749 9.29256 11.4325 9.21323 11.5475C9.1339 11.6617 9.09424 11.8132 9.09424 12.002C9.09424 12.1935 9.1339 12.345 9.21323 12.4565C9.29256 12.568 9.39648 12.6237 9.52499 12.6237C9.65746 12.6237 9.76257 12.5698 9.84031 12.4619C9.91805 12.3531 9.95693 12.2025 9.95693 12.0101C9.95693 11.8096 9.91924 11.6536 9.84388 11.5421C9.76852 11.4307 9.6654 11.3749 9.53451 11.3749Z" fill="#EFF6FF"/>
<path d="M12.5902 12.9663H12.2106V11.8092C12.2106 11.6842 12.2154 11.5462 12.2249 11.3951H12.2154C12.1955 11.5138 12.1777 11.5992 12.1618 11.6514L11.762 12.9663H11.4479L11.0409 11.6649C11.0298 11.6298 11.012 11.5399 10.9874 11.3951H10.9767C10.987 11.5857 10.9921 11.753 10.9921 11.8968V12.9663H10.6459V11.0324H11.2087L11.5574 12.1787C11.5851 12.2704 11.6053 12.3626 11.618 12.4552H11.6252C11.6466 12.3482 11.6692 12.2551 11.693 12.176L12.0416 11.0324H12.5902V12.9663Z" fill="#EFF6FF"/>
<path d="M14.4786 12.9663H14.0597L13.9384 12.5361H13.3315L13.2113 12.9663H12.7949L13.416 11.0324H13.8717L14.4786 12.9663ZM13.8503 12.2016L13.6671 11.5516C13.6536 11.503 13.6441 11.445 13.6385 11.3776H13.629C13.625 11.4343 13.6151 11.4904 13.5992 11.5462L13.4136 12.2016H13.8503Z" fill="#EFF6FF"/>
<path d="M15.0759 12.9663H14.6916V11.0324H15.0759V12.9663Z" fill="#EFF6FF"/>
<path d="M17 12.9663H16.6121L15.9089 11.7512C15.8676 11.6802 15.839 11.6267 15.8232 11.5907H15.8184C15.8248 11.659 15.8279 11.7633 15.8279 11.9036V12.9663H15.465V11.0324H15.8791L16.5562 12.2097C16.5871 12.2628 16.6157 12.3154 16.6418 12.3675H16.6466C16.6403 12.3225 16.6371 12.234 16.6371 12.1018V11.0324H17V12.9663Z" fill="#EFF6FF"/>
</svg>
