<svg width="24" height="24" viewBox="0 0 24 24" fill="none" xmlns="http://www.w3.org/2000/svg">
<circle cx="12" cy="12" r="9" fill="#ED3737"/>
<circle cx="10" cy="9" r="2" fill="#FDACAC"/>
<circle cx="10" cy="9" r="3.75" stroke="#FDACAC" stroke-width="0.5"/>
<path d="M15 19H10.5264C9.99897 19 9.57143 18.5725 9.57143 18.0451C9.57143 17.8194 9.49154 17.6011 9.34593 17.4288L7.37171 15.0921C7.15274 14.833 7.13625 14.4587 7.33158 14.1812L7.42264 14.0519C7.66806 13.7033 8.18154 13.6939 8.43958 14.0333L9.04509 14.8296C9.21497 15.053 9.57143 14.9328 9.57143 14.6522V13.7826V9.75974C9.57143 9.34015 9.91158 9 10.3312 9C10.7508 9 11.0909 9.34015 11.0909 9.75974V12.7968C11.0909 12.4322 11.3864 12.1367 11.751 12.1367H11.9091C12.361 12.1367 12.7273 12.503 12.7273 12.9549V13.3586C12.7273 12.9067 13.0936 12.5404 13.5455 12.5404C13.9973 12.5404 14.3636 12.9067 14.3636 13.3586V13.7623C14.3636 13.3104 14.7299 12.9441 15.1818 12.9441C15.6337 12.9441 16 13.3104 16 13.7623V18C16 18.5523 15.5523 19 15 19Z" fill="white"/>
</svg>
