<svg width="57" height="57" viewBox="0 0 57 57" fill="none" xmlns="http://www.w3.org/2000/svg">
<path d="M45.5 28.2091C48.0597 28.2091 50.1348 25.9237 50.1348 23.1045C50.1348 20.2854 48.0597 18 45.5 18C42.9403 18 40.8652 20.2854 40.8652 23.1045C40.8652 25.9237 42.9403 28.2091 45.5 28.2091Z" fill="#90D6FA"/>
<path d="M41.9637 30.2878C39.9316 30.6133 38.1121 31.8357 37.4836 33.9977C37.2847 34.6818 37.1162 35.4408 37.013 36.2599C36.8937 37.2067 37.6132 37.9856 38.4884 37.9856H44.5556L41.9637 30.2878Z" fill="#90D6FA"/>
<path d="M43.8932 30.199L45.1199 32.9313C45.2765 33.2802 45.7235 33.2802 45.8801 32.9313L47.1068 30.199H43.8932Z" fill="#90D6FA"/>
<path d="M49.0363 30.2878L46.4444 37.9856H52.5116C53.3868 37.9856 54.1063 37.2067 53.987 36.2599C53.8838 35.4408 53.7153 34.6818 53.5164 33.9977C52.8879 31.8357 51.0684 30.6133 49.0363 30.2878Z" fill="#90D6FA"/>
<path d="M45.5357 33.5151H45.4536C45.2013 33.5151 44.9795 33.7008 44.9093 33.9706L44.5372 35.4011C44.5006 35.5419 44.5091 35.6924 44.5613 35.8269L45.3667 37.9048C45.4164 38.033 45.5802 38.0314 45.6278 37.9022L46.3985 35.8149C46.4454 35.6877 46.4538 35.5468 46.4223 35.4138L46.0836 33.9851C46.018 33.7081 45.793 33.5151 45.5357 33.5151Z" fill="#90D6FA"/>
<path d="M11.5 28.2091C14.0597 28.2091 16.1348 25.9237 16.1348 23.1045C16.1348 20.2854 14.0597 18 11.5 18C8.94026 18 6.86519 20.2854 6.86519 23.1045C6.86519 25.9237 8.94026 28.2091 11.5 28.2091Z" fill="#90D6FA"/>
<path d="M7.96372 30.2878C5.9316 30.6133 4.11209 31.8357 3.4836 33.9977C3.28473 34.6818 3.11624 35.4408 3.01299 36.2599C2.89366 37.2067 3.61323 37.9856 4.48836 37.9856H10.5556L7.96372 30.2878Z" fill="#90D6FA"/>
<path d="M9.89322 30.199L11.1199 32.9313C11.2765 33.2802 11.7235 33.2802 11.8801 32.9313L13.1068 30.199H9.89322Z" fill="#90D6FA"/>
<path d="M15.0363 30.2878L12.4444 37.9856H18.5116C19.3868 37.9856 20.1063 37.2067 19.987 36.2599C19.8838 35.4408 19.7153 34.6818 19.5164 33.9977C18.8879 31.8357 17.0684 30.6133 15.0363 30.2878Z" fill="#90D6FA"/>
<path d="M11.5357 33.5151H11.4536C11.2013 33.5151 10.9795 33.7008 10.9093 33.9706L10.5372 35.4011C10.5006 35.5419 10.5091 35.6924 10.5613 35.8269L11.3667 37.9048C11.4164 38.033 11.5802 38.0314 11.6278 37.9022L12.3985 35.8149C12.4454 35.6877 12.4538 35.5468 12.4223 35.4138L12.0836 33.9851C12.018 33.7081 11.793 33.5151 11.5357 33.5151Z" fill="#90D6FA"/>
<path fill-rule="evenodd" clip-rule="evenodd" d="M28.5 27.638C32.7913 27.638 36.2701 24.1979 36.2701 19.9544C36.2701 15.7108 32.7913 12.2708 28.5 12.2708C24.2087 12.2708 20.7299 15.7108 20.7299 19.9544C20.7299 24.1979 24.2087 27.638 28.5 27.638ZM22.5715 30.7671C19.1647 31.257 16.1144 33.097 15.0607 36.3513C14.7273 37.3811 14.4449 38.5236 14.2718 39.7566C14.0717 41.1817 15.2781 42.3541 16.7452 42.3541L26.9167 42.3541L22.5715 30.7671ZM25.8063 30.6333L28.2317 35.4841C28.3422 35.7052 28.6578 35.7052 28.7683 35.4841L31.1937 30.6333H25.8063ZM34.4285 30.7671L30.0833 42.3541L40.2548 42.3541C41.7219 42.3541 42.9283 41.1817 42.7282 39.7566C42.5551 38.5236 42.2727 37.3811 41.9393 36.3513C40.8856 33.097 37.8353 31.257 34.4285 30.7671Z" fill="#EFF6FF"/>
<path d="M12.0252 15H11.9672C11.7891 15 11.6325 15.1177 11.583 15.2887L11.3204 16.1954C11.2945 16.2846 11.3005 16.38 11.3373 16.4652L11.9059 17.7821C11.941 17.8634 12.0565 17.8624 12.0902 17.7805L12.6342 16.4576C12.6673 16.377 12.6732 16.2877 12.651 16.2034L12.4119 15.2979C12.3656 15.1223 12.2068 15 12.0252 15Z" fill="#2C9ED7"/>
</svg>
