<svg width="200" height="200" viewBox="0 0 200 200" fill="none" xmlns="http://www.w3.org/2000/svg">
<path d="M164 101.284C173.637 101.284 181.449 92.7138 181.449 82.142C181.449 71.5702 173.637 63 164 63C154.363 63 146.551 71.5702 146.551 82.142C146.551 92.7138 154.363 101.284 164 101.284Z" fill="#90D6FA"/>
<path d="M150.687 109.079C143.037 110.3 136.187 114.884 133.821 122.991C133.072 125.557 132.438 128.403 132.049 131.475C131.6 135.025 134.309 137.946 137.603 137.946H160.444L150.687 109.079Z" fill="#90D6FA"/>
<path d="M157.951 108.746L162.569 118.992C163.159 120.301 164.841 120.301 165.431 118.992L170.049 108.746H157.951Z" fill="#90D6FA"/>
<path d="M177.313 109.079L167.556 137.946H190.397C193.691 137.946 196.4 135.025 195.951 131.475C195.562 128.403 194.928 125.557 194.179 122.991C191.813 114.884 184.963 110.3 177.313 109.079Z" fill="#90D6FA"/>
<path d="M164.135 121.182H163.825C162.876 121.182 162.04 121.878 161.776 122.89L160.375 128.254C160.238 128.782 160.27 129.346 160.466 129.851L163.498 137.643C163.685 138.124 164.302 138.118 164.481 137.633L167.382 129.806C167.559 129.329 167.591 128.801 167.472 128.302L166.197 122.944C165.95 121.905 165.103 121.182 164.135 121.182Z" fill="#90D6FA"/>
<path d="M35 101.284C44.6367 101.284 52.4487 92.7138 52.4487 82.142C52.4487 71.5702 44.6367 63 35 63C25.3633 63 17.5513 71.5702 17.5513 82.142C17.5513 92.7138 25.3633 101.284 35 101.284Z" fill="#90D6FA"/>
<path d="M21.687 109.079C14.0366 110.3 7.18669 114.884 4.82063 122.991C4.07191 125.557 3.43759 128.403 3.04889 131.475C2.59966 135.025 5.30864 137.946 8.60323 137.946H31.4444L21.687 109.079Z" fill="#90D6FA"/>
<path d="M28.9509 108.746L33.5689 118.992C34.1586 120.301 35.8414 120.301 36.4311 118.992L41.0491 108.746H28.9509Z" fill="#90D6FA"/>
<path d="M48.313 109.079L38.5556 137.946H61.3968C64.6914 137.946 67.4003 135.025 66.9511 131.475C66.5624 128.403 65.9281 125.557 65.1794 122.991C62.8133 114.884 55.9634 110.3 48.313 109.079Z" fill="#90D6FA"/>
<path d="M35.1345 121.182H34.8253C33.8757 121.182 33.0404 121.878 32.7762 122.89L31.3755 128.254C31.2377 128.782 31.2697 129.346 31.466 129.851L34.4984 137.643C34.6854 138.124 35.3018 138.118 35.4813 137.633L38.3824 129.806C38.5593 129.329 38.5908 128.801 38.4721 128.302L37.1972 122.944C36.95 121.905 36.103 121.182 35.1345 121.182Z" fill="#90D6FA"/>
<path fill-rule="evenodd" clip-rule="evenodd" d="M100 96.9757C115.057 96.9757 127.264 84.9053 127.264 70.0156C127.264 55.126 115.057 43.0556 100 43.0556C84.9427 43.0556 72.7364 55.126 72.7364 70.0156C72.7364 84.9053 84.9427 96.9757 100 96.9757ZM79.1984 107.955C67.2447 109.674 56.5417 116.13 52.8447 127.549C51.6749 131.162 50.6837 135.171 50.0764 139.497C49.3745 144.497 53.6073 148.611 58.755 148.611L94.4444 148.611L79.1984 107.955ZM90.5483 107.486L97.3167 121.022C98.4223 123.233 101.578 123.233 102.683 121.022L109.452 107.486H90.5483ZM120.802 107.955L105.556 148.611L141.245 148.611C146.393 148.611 150.626 144.497 149.924 139.497C149.316 135.171 148.325 131.162 147.155 127.549C143.458 116.13 132.755 109.674 120.802 107.955Z" fill="#2C9ED7"/>
<path d="M101.3 124H98.7004C98.2799 124 97.9043 124.263 97.7606 124.658L94.1283 134.647C94.0456 134.875 94.0481 135.124 94.1355 135.35L99.0674 148.091C99.3972 148.943 100.603 148.943 100.933 148.091L105.864 135.35C105.952 135.124 105.954 134.875 105.872 134.647L102.239 124.658C102.096 124.263 101.72 124 101.3 124Z" fill="#2C9ED7"/>
</svg>
