<svg width="24" height="24" viewBox="0 0 24 24" fill="none" xmlns="http://www.w3.org/2000/svg">
<path fill-rule="evenodd" clip-rule="evenodd" d="M15.3791 2C15.8451 2 16.2353 2.35314 16.2817 2.81686C16.3537 3.53698 17.1986 3.88696 17.7587 3.42868C18.1194 3.13357 18.645 3.15978 18.9746 3.48932L19.5107 4.0254C19.8402 4.35494 19.8664 4.88057 19.5713 5.24126C19.113 5.80139 19.463 6.6463 20.1831 6.71831C20.6469 6.76468 21 7.1549 21 7.62095V8.37913C21 8.84513 20.6469 9.23531 20.1832 9.28168C19.4631 9.35369 19.1132 10.1985 19.5714 10.7586C19.8665 11.1192 19.8403 11.6448 19.5108 11.9743L18.9746 12.5104C18.6451 12.84 18.1194 12.8662 17.7588 12.5711C17.1986 12.1128 16.3537 12.4629 16.2817 13.183C16.2353 13.6468 15.8451 14 15.379 14H14.6209C14.1549 14 13.7647 13.6469 13.7183 13.1831C13.6463 12.463 12.8014 12.113 12.2412 12.5713C11.8805 12.8664 11.3549 12.8402 11.0254 12.5107L10.4893 11.9746C10.1598 11.6451 10.1335 11.1194 10.4287 10.7587C10.8869 10.1986 10.537 9.3537 9.81686 9.28169C9.35314 9.23531 9 8.8451 9 8.37907V7.62101C9 7.15493 9.35317 6.76468 9.81693 6.71831C10.5371 6.64629 10.8871 5.80127 10.4288 5.24109C10.1336 4.88035 10.1598 4.35463 10.4894 4.02505L11.0254 3.48906C11.3549 3.15952 11.8806 3.13334 12.2413 3.42846C12.8014 3.8867 13.6463 3.53684 13.7183 2.81678C13.7647 2.3531 14.1549 2 14.6209 2H15.3791ZM15 10.4C16.3255 10.4 17.4 9.32548 17.4 8C17.4 6.67452 16.3255 5.6 15 5.6C13.6745 5.6 12.6 6.67452 12.6 8C12.6 9.32548 13.6745 10.4 15 10.4Z" fill="#2C9ED7"/>
<path fill-rule="evenodd" clip-rule="evenodd" d="M6.20887 12.0709C6.50898 11.9905 6.82119 12.1506 6.93107 12.4412C7.10169 12.8925 7.70616 12.9721 7.98777 12.5803C8.16912 12.3281 8.51212 12.2543 8.78118 12.4096L9.21889 12.6623C9.48796 12.8177 9.59554 13.1516 9.46773 13.4348C9.26927 13.8746 9.64043 14.3583 10.1166 14.2804C10.4232 14.2302 10.7179 14.4206 10.7984 14.7207L10.9292 15.2089C11.0096 15.509 10.8495 15.8212 10.5589 15.9311C10.1077 16.1017 10.0281 16.7061 10.4198 16.9877C10.672 17.169 10.7458 17.5119 10.5905 17.781L10.3378 18.2187C10.1824 18.4878 9.84846 18.5954 9.56527 18.4676C9.1255 18.2691 8.64183 18.6403 8.71971 19.1165C8.76987 19.4231 8.57951 19.7179 8.27937 19.7984L7.79123 19.9292C7.49113 20.0096 7.17891 19.8495 7.06904 19.5589C6.89841 19.1076 6.29394 19.028 6.01231 19.4198C5.83096 19.672 5.48796 19.7459 5.21889 19.5905L4.78119 19.3378C4.51212 19.1825 4.40455 18.8485 4.53235 18.5653C4.73081 18.1255 4.35967 17.6418 3.88352 17.7197C3.5769 17.7699 3.28217 17.5795 3.20176 17.2794L3.07096 16.7913C2.99054 16.4911 3.15062 16.1789 3.44126 16.069C3.8926 15.8984 3.97216 15.2938 3.58037 15.0122C3.32806 14.8308 3.25422 14.4878 3.40959 14.2187L3.66226 13.781C3.81761 13.512 4.15161 13.4044 4.4348 13.5322C4.87452 13.7307 5.35825 13.3596 5.28037 12.8835C5.23022 12.5769 5.42055 12.2822 5.72062 12.2018L6.20887 12.0709ZM7.41416 17.5455C8.26771 17.3168 8.77424 16.4395 8.54554 15.586C8.31683 14.7324 7.43949 14.2259 6.58594 14.4546C5.7324 14.6833 5.22587 15.5606 5.45457 16.4142C5.68328 17.2677 6.56062 17.7743 7.41416 17.5455Z" fill="#90D6FA"/>
</svg>
