<svg width="48" height="48" viewBox="0 0 48 48" fill="none" xmlns="http://www.w3.org/2000/svg">
<path fill-rule="evenodd" clip-rule="evenodd" d="M31.3069 6.99293C31.4182 7.1821 31.4431 7.43124 31.493 7.92951C31.5873 8.87342 31.6345 9.34538 31.8539 9.58895C32.0558 9.81304 32.348 9.93407 32.6491 9.91834C32.9765 9.90123 33.3436 9.60088 34.0778 9.00019L34.0778 9.00018C34.4653 8.68309 34.6591 8.52455 34.8716 8.46948C35.0689 8.41833 35.2772 8.42871 35.4685 8.49925C35.6744 8.57519 35.8514 8.75223 36.2055 9.10631L37.1436 10.0444C37.4977 10.3985 37.6748 10.5756 37.7507 10.7815C37.8212 10.9728 37.8316 11.181 37.7805 11.3784C37.7254 11.5909 37.5669 11.7846 37.2498 12.1722C36.6491 12.9064 36.3487 13.2735 36.3316 13.6009C36.3159 13.902 36.4369 14.1942 36.661 14.3961C36.9046 14.6155 37.3765 14.6627 38.3205 14.757C38.8188 14.8069 39.0679 14.8318 39.2571 14.9431C39.4328 15.0465 39.5727 15.2011 39.6581 15.3862C39.75 15.5855 39.75 15.8359 39.75 16.3367V17.6635C39.75 18.1641 39.75 18.4145 39.6581 18.6137C39.5727 18.7989 39.4328 18.9536 39.257 19.057C39.0679 19.1682 38.8188 19.1931 38.3206 19.2429C37.3769 19.3373 36.9051 19.3845 36.6615 19.6038C36.4373 19.8056 36.3162 20.098 36.332 20.3993C36.3492 20.7265 36.6494 21.0935 37.2499 21.8275L37.2499 21.8275C37.5669 22.2149 37.7254 22.4086 37.7805 22.621C37.8317 22.8184 37.8213 23.0268 37.7507 23.2182C37.6748 23.424 37.4978 23.601 37.1438 23.955L36.2056 24.8932C35.8515 25.2473 35.6744 25.4243 35.4685 25.5003C35.2772 25.5708 35.069 25.5812 34.8716 25.5301C34.6591 25.475 34.4654 25.3164 34.0778 24.9993C33.3436 24.3987 32.9765 24.0983 32.6492 24.0812C32.348 24.0655 32.0558 24.1865 31.854 24.4106C31.6346 24.6542 31.5874 25.1262 31.493 26.0702C31.4431 26.5687 31.4182 26.818 31.3069 27.0072C31.2035 27.1828 31.049 27.3227 30.8639 27.408C30.6646 27.5 30.4141 27.5 29.9132 27.5H28.5867C28.0859 27.5 27.8355 27.5 27.6362 27.4081C27.4511 27.3227 27.2965 27.1828 27.1931 27.0071C27.0818 26.8179 27.0569 26.5688 27.007 26.0705C26.9127 25.1265 26.8655 24.6546 26.6461 24.411C26.4442 24.1869 26.1521 24.0659 25.8509 24.0816C25.5235 24.0987 25.1564 24.3991 24.4222 24.9998C24.0346 25.3169 23.8408 25.4755 23.6283 25.5305C23.431 25.5817 23.2227 25.5713 23.0315 25.5008C22.8255 25.4248 22.6485 25.2478 22.2944 24.8937L21.3563 23.9556C21.0022 23.6015 20.8251 23.4244 20.7492 23.2185C20.6787 23.0272 20.6683 22.819 20.7194 22.6216C20.7745 22.4092 20.933 22.2154 21.2502 21.8278C21.8509 21.0936 22.1512 20.7265 22.1683 20.3991C22.1841 20.0979 22.063 19.8058 21.8389 19.6039C21.5954 19.3845 21.1234 19.3373 20.1795 19.2429H20.1795H20.1795C19.6812 19.1931 19.4321 19.1682 19.2429 19.0569C19.0672 18.9535 18.9273 18.7989 18.8419 18.6138C18.75 18.4145 18.75 18.1641 18.75 17.6634V16.3368C18.75 15.8359 18.75 15.5854 18.842 15.3861C18.9273 15.201 19.0672 15.0465 19.2428 14.9431C19.432 14.8318 19.6812 14.8069 20.1796 14.757C21.1238 14.6626 21.5959 14.6154 21.8395 14.3959C22.0634 14.1941 22.1844 13.9021 22.1687 13.601C22.1517 13.2735 21.8512 12.9063 21.2503 12.1719C20.9331 11.7842 20.7745 11.5903 20.7194 11.3778C20.6683 11.1805 20.6787 10.9724 20.7492 10.7812C20.8251 10.5752 21.0022 10.3981 21.3564 10.0438L22.2944 9.10586C22.6485 8.75175 22.8256 8.5747 23.0315 8.49876C23.2228 8.42824 23.431 8.41785 23.6284 8.469C23.8408 8.52406 24.0347 8.68264 24.4223 8.9998C25.1564 9.60045 25.5235 9.90077 25.8508 9.91792C26.152 9.9337 26.4443 9.81263 26.6462 9.58842C26.8655 9.34488 26.9127 8.87305 27.0071 7.92937C27.0569 7.43123 27.0818 7.18216 27.193 6.99302C27.2964 6.81723 27.4511 6.67726 27.6363 6.59187C27.8356 6.5 28.0859 6.5 28.5865 6.5H29.9134C30.4141 6.5 30.6645 6.5 30.8638 6.59192C31.0489 6.6773 31.2035 6.81722 31.3069 6.99293ZM29.25 21.2C31.5696 21.2 33.45 19.3196 33.45 17C33.45 14.6804 31.5696 12.8 29.25 12.8C26.9304 12.8 25.05 14.6804 25.05 17C25.05 19.3196 26.9304 21.2 29.25 21.2Z" fill="#639AC4"/>
<path fill-rule="evenodd" clip-rule="evenodd" d="M15.1292 24.772L15.1292 24.7721L15.1293 24.7721C15.1623 24.8595 15.1788 24.9032 15.1918 24.9318C15.4972 25.6079 16.4067 25.7277 16.8768 25.1536C16.8967 25.1293 16.9239 25.0914 16.9785 25.0155C17.0074 24.9753 17.0218 24.9553 17.0351 24.9384C17.3324 24.5601 17.857 24.4472 18.2837 24.6697C18.3027 24.6796 18.3241 24.692 18.3669 24.7167L18.367 24.7167L19.1329 25.159C19.1758 25.1837 19.1972 25.1961 19.2153 25.2076C19.6213 25.4658 19.7859 25.9766 19.6069 26.4233C19.5989 26.4432 19.5888 26.4657 19.5684 26.5108C19.53 26.596 19.5108 26.6386 19.4997 26.668C19.2376 27.3621 19.796 28.0898 20.5343 28.0163C20.5656 28.0132 20.6117 28.0057 20.7039 27.9906L20.7039 27.9906C20.7527 27.9826 20.7772 27.9786 20.7985 27.976C21.2762 27.9188 21.727 28.2099 21.8713 28.6689C21.8778 28.6894 21.8842 28.7133 21.897 28.7611L22.1259 29.6155C22.1387 29.6632 22.1451 29.6871 22.1498 29.708C22.2543 30.1777 22.0094 30.6553 21.567 30.8446C21.5473 30.853 21.5242 30.8618 21.478 30.8793L21.4779 30.8793C21.3907 30.9123 21.3471 30.9287 21.3185 30.9417C20.6423 31.2471 20.5225 32.1567 21.0967 32.6268C21.1209 32.6467 21.1588 32.6739 21.2345 32.7283L21.2345 32.7283C21.2746 32.7571 21.2946 32.7715 21.3114 32.7847C21.6898 33.0821 21.8027 33.6068 21.5802 34.0335C21.5703 34.0525 21.5579 34.0738 21.5333 34.1166L21.0909 34.8827C21.0662 34.9255 21.0538 34.947 21.0423 34.9651C20.7841 35.3711 20.2733 35.5356 19.8267 35.3567C19.8068 35.3487 19.7842 35.3385 19.7391 35.3182L19.7391 35.3182C19.6539 35.2797 19.6114 35.2605 19.5819 35.2494C18.8879 34.9873 18.1601 35.5458 18.2336 36.284C18.2367 36.3153 18.2443 36.3615 18.2594 36.4538C18.2674 36.5027 18.2714 36.5272 18.2739 36.5486C18.3311 37.0263 18.04 37.477 17.5811 37.6214C17.5606 37.6278 17.5367 37.6342 17.4888 37.6471L16.6345 37.8759C16.5867 37.8888 16.5628 37.8952 16.5419 37.8998C16.0722 38.0043 15.5947 37.7595 15.4054 37.3171C15.3969 37.2974 15.3882 37.2743 15.3707 37.228L15.3707 37.228L15.3707 37.2279C15.3376 37.1405 15.3211 37.0968 15.3082 37.0682C15.0027 36.3921 14.0932 36.2723 13.6232 36.8463C13.6033 36.8707 13.576 36.9086 13.5214 36.9845L13.5214 36.9846C13.4925 37.0247 13.4781 37.0448 13.4648 37.0617C13.1675 37.44 12.6429 37.5528 12.2162 37.3304C12.1972 37.3204 12.1758 37.3081 12.1329 37.2833L11.367 36.8411L11.3669 36.8411C11.3241 36.8163 11.3027 36.804 11.2846 36.7925C10.8786 36.5342 10.714 36.0235 10.893 35.5768C10.901 35.5569 10.9111 35.5343 10.9315 35.4892C10.9699 35.404 10.9891 35.3614 11.0003 35.332C11.2623 34.6379 10.7039 33.9102 9.96564 33.9837C9.93435 33.9868 9.88824 33.9944 9.79603 34.0094L9.79596 34.0094C9.74718 34.0174 9.72278 34.0214 9.70149 34.024C9.22373 34.0812 8.77295 33.7901 8.62859 33.3311C8.62216 33.3106 8.61576 33.2867 8.60295 33.2389L8.37405 32.3846C8.36122 32.3368 8.35481 32.3128 8.35015 32.2919C8.2457 31.8222 8.49049 31.3448 8.9328 31.1554C8.95255 31.147 8.97573 31.1382 9.02209 31.1207C9.10963 31.0876 9.1534 31.0711 9.18211 31.0581C9.85811 30.7526 9.97782 29.8432 9.40393 29.3732C9.37956 29.3532 9.34154 29.3259 9.26552 29.2713C9.22523 29.2423 9.20509 29.2278 9.18818 29.2145C8.80998 28.9172 8.6971 28.3927 8.91952 27.9661C8.92946 27.947 8.94186 27.9255 8.96666 27.8826L9.40883 27.1167C9.43358 27.0739 9.44595 27.0524 9.45747 27.0343C9.7157 26.6283 10.2265 26.4638 10.6731 26.6427C10.693 26.6507 10.7156 26.6609 10.7608 26.6813C10.8459 26.7197 10.8884 26.7389 10.9178 26.75C11.6119 27.0122 12.3398 26.4536 12.2662 25.7153C12.2631 25.684 12.2556 25.638 12.2405 25.546L12.2405 25.5459C12.2326 25.4972 12.2286 25.4729 12.226 25.4516C12.1687 24.9738 12.4599 24.5229 12.919 24.3786C12.9394 24.3722 12.9633 24.3658 13.011 24.353L13.8654 24.1241C13.9132 24.1113 13.9371 24.1049 13.958 24.1002C14.4277 23.9957 14.9052 24.2405 15.0946 24.6829C15.103 24.7026 15.1117 24.7257 15.1292 24.772ZM15.9747 33.7046C17.4684 33.3044 18.3548 31.769 17.9546 30.2753C17.5543 28.7816 16.019 27.8952 14.5253 28.2954C13.0316 28.6957 12.1451 30.231 12.5454 31.7247C12.9456 33.2184 14.481 34.1048 15.9747 33.7046Z" fill="#6F7379"/>
</svg>
