<svg width="200" height="200" viewBox="0 0 200 200" fill="none" xmlns="http://www.w3.org/2000/svg">
<path d="M19.0372 123.376C22.6796 111.652 34.4824 105.952 46.5202 105.952H70.1464C82.1842 105.952 93.987 111.652 97.6293 123.376C98.6042 126.513 99.4302 129.995 99.9363 133.752C100.521 138.094 96.9939 141.667 92.7041 141.667H23.9625C19.6727 141.667 16.1453 138.094 16.7303 133.752C17.2364 129.995 18.0623 126.513 19.0372 123.376Z" fill="#90D6FA"/>
<path d="M81.053 73.4127C81.053 86.3432 70.881 96.8254 58.3333 96.8254C45.7856 96.8254 35.6136 86.3432 35.6136 73.4127C35.6136 60.4822 45.7856 50 58.3333 50C70.881 50 81.053 60.4822 81.053 73.4127Z" fill="#90D6FA"/>
<path d="M102.371 123.376C106.013 111.652 117.816 105.952 129.854 105.952H153.48C165.518 105.952 177.32 111.652 180.963 123.376C181.938 126.513 182.764 129.995 183.27 133.752C183.855 138.094 180.327 141.667 176.037 141.667H107.296C103.006 141.667 99.4787 138.094 100.064 133.752C100.57 129.995 101.396 126.513 102.371 123.376Z" fill="#90D6FA"/>
<path d="M164.386 73.4127C164.386 86.3432 154.214 96.8254 141.667 96.8254C129.119 96.8254 118.947 86.3432 118.947 73.4127C118.947 60.4822 129.119 50 141.667 50C154.214 50 164.386 60.4822 164.386 73.4127Z" fill="#90D6FA"/>
<path d="M52.8447 128.383C57.2155 114.528 71.3789 107.792 85.8243 107.792H114.176C128.621 107.792 142.784 114.528 147.155 128.383C148.325 132.092 149.316 136.206 149.924 140.646C150.626 145.778 146.393 150 141.245 150H58.755C53.6073 150 49.3745 145.778 50.0764 140.646C50.6837 136.206 51.6749 132.092 52.8447 128.383Z" fill="#2C9ED7"/>
<path d="M127.264 69.3362C127.264 84.6177 115.057 97.0058 100 97.0058C84.9427 97.0058 72.7364 84.6177 72.7364 69.3362C72.7364 54.0548 84.9427 41.6667 100 41.6667C115.057 41.6667 127.264 54.0548 127.264 69.3362Z" fill="#2C9ED7"/>
</svg>
