<svg width="57" height="57" viewBox="0 0 57 57" fill="none" xmlns="http://www.w3.org/2000/svg">
<path d="M35.2672 45.3039L26.4144 49.7303C26.2815 49.7968 26.125 49.7001 26.125 49.5514L26.125 40.6986C26.125 40.5499 26.2815 40.4532 26.4144 40.5197L35.2672 44.9461C35.4146 45.0198 35.4146 45.2302 35.2672 45.3039Z" fill="#EFF6FF"/>
<path d="M27.3125 45.125C17.4749 45.125 9.5 37.153 9.5 27.3189C9.5 17.4849 17.4749 9.5129 27.3125 9.5129C33.25 9.26559 45.125 12.4806 45.125 27.3189" stroke="#EFF6FF" stroke-width="3" stroke-linecap="round"/>
<path d="M28.5 14.25V28C28.5 28.2761 28.7239 28.5 29 28.5H38" stroke="#EFF6FF" stroke-width="3" stroke-linecap="round"/>
<circle cx="28.5" cy="28.5" r="3.375" fill="#EFF6FF" stroke="#EFF6FF" stroke-width="2"/>
</svg>
