<svg width="24" height="24" viewBox="0 0 24 24" fill="none" xmlns="http://www.w3.org/2000/svg">
<path d="M22 16.214V4.70792C22 4.37836 21.6574 4.16059 21.359 4.30047L16.8154 6.43028C16.7193 6.47531 16.6105 6.48495 16.508 6.4575L7.49202 4.0425C7.38953 4.01505 7.28065 4.02469 7.18459 4.06972L2.259 6.37859C2.10095 6.45268 2 6.61149 2 6.78605V18.2921C2 18.6216 2.34259 18.8394 2.641 18.6995L7.18459 16.5697C7.28065 16.5247 7.38953 16.5151 7.49201 16.5425L16.508 18.9575C16.6105 18.9849 16.7193 18.9753 16.8154 18.9303L21.741 16.6214C21.8991 16.5473 22 16.3885 22 16.214Z" stroke="#639AC4"/>
<path d="M17 19V6" stroke="#639AC4"/>
<path d="M7 16.5L7 4" stroke="#639AC4"/>
<path d="M9 13.5L8.6263 13.1678C8.4579 13.3573 8.4579 13.6427 8.6263 13.8322L9 13.5ZM13 14C13.2761 14 13.5 13.7761 13.5 13.5C13.5 13.2239 13.2761 13 13 13V14ZM9.95963 11.6678L8.6263 13.1678L9.3737 13.8322L10.707 12.3322L9.95963 11.6678ZM8.6263 13.8322L9.95963 15.3322L10.707 14.6678L9.3737 13.1678L8.6263 13.8322ZM9 14H13V13H9V14Z" fill="#CBDFEE"/>
<path d="M15 9.5L15.3737 9.16782C15.5421 9.35726 15.5421 9.64274 15.3737 9.83218L15 9.5ZM11 10C10.7239 10 10.5 9.77614 10.5 9.5C10.5 9.22386 10.7239 9 11 9V10ZM14.0404 7.66782L15.3737 9.16782L14.6263 9.83218L13.293 8.33218L14.0404 7.66782ZM15.3737 9.83218L14.0404 11.3322L13.293 10.6678L14.6263 9.16782L15.3737 9.83218ZM15 10H11V9H15V10Z" fill="#CBDFEE"/>
</svg>
