<svg width="69" height="68" viewBox="0 0 69 68" fill="none" xmlns="http://www.w3.org/2000/svg">
<path d="M11.832 49.5833V18.4167C12.3043 15.1111 17.4987 8.5 34.4987 8.5C51.4987 8.5 56.6931 15.1111 57.1654 18.4167V49.5833C57.1654 52.4167 52.9154 58.0833 35.9154 58.0833C18.9154 58.0833 12.7765 52.4167 11.832 49.5833Z" fill="white"/>
<path d="M57.1654 18.2143C57.1654 23.5793 47.0172 27.9286 34.4987 27.9286C21.9802 27.9286 11.832 23.5793 11.832 18.2143M57.1654 18.2143C57.1654 12.8492 47.0172 8.5 34.4987 8.5C21.9802 8.5 11.832 12.8492 11.832 18.2143M57.1654 18.2143V34.1518M11.832 18.2143V34.1518M11.832 34.1518V48.9184C11.832 54.0918 21.9802 58.2857 34.4987 58.2857C47.0172 58.2857 57.1654 54.0918 57.1654 48.9184V34.1518M11.832 34.1518C11.832 39.433 21.9802 43.7143 34.4987 43.7143C47.0172 43.7143 57.1654 39.433 57.1654 34.1518" stroke="#FFD4AA" stroke-width="3"/>
</svg>
