<svg width="57" height="57" viewBox="0 0 57 57" fill="none" xmlns="http://www.w3.org/2000/svg">
<path fill-rule="evenodd" clip-rule="evenodd" d="M32.9892 5.48512C33.3702 5.95168 33.4379 6.62892 33.5733 7.98342C33.8307 10.5571 33.9594 11.8439 34.7071 12.3704C34.9488 12.5405 35.2251 12.6549 35.5162 12.7055C36.4172 12.862 37.4181 12.0431 39.4199 10.4052C40.4735 9.54321 41.0002 9.11222 41.5995 9.05166C41.7996 9.03144 42.0016 9.04152 42.1986 9.08155C42.7889 9.20143 43.2702 9.68269 44.2327 10.6452L46.3547 12.7672C47.3172 13.7298 47.7985 14.211 47.9184 14.8013C47.9584 14.9984 47.9685 15.2003 47.9483 15.4004C47.8877 15.9997 47.4567 16.5264 46.5947 17.58C44.9568 19.5819 44.1379 20.5828 44.2944 21.4838C44.3449 21.7749 44.4594 22.0512 44.6295 22.2928C45.1559 23.0406 46.4428 23.1693 49.0165 23.4267C50.3711 23.5621 51.0483 23.6298 51.5149 24.0108C51.6707 24.1379 51.8063 24.2879 51.9174 24.4555C52.25 24.9576 52.25 25.6383 52.25 26.9996V30.0007C52.25 31.3617 52.25 32.0422 51.9175 32.5443C51.8064 32.7121 51.6706 32.8621 51.5147 32.9894C51.0482 33.3702 50.3711 33.4379 49.0167 33.5733C46.4436 33.8306 45.1571 33.9593 44.6306 34.7067C44.4603 34.9485 44.3457 35.2251 44.2952 35.5166C44.1389 36.4173 44.9577 37.418 46.5951 39.4193C47.4568 40.4725 47.8877 40.9991 47.9483 41.5982C47.9686 41.7985 47.9585 42.0007 47.9184 42.198C47.7985 42.788 47.3173 43.2692 46.3551 44.2314L44.2328 46.3537C43.2703 47.3163 42.789 47.7975 42.1988 47.9174C42.0017 47.9574 41.7997 47.9675 41.5996 47.9473C41.0004 47.8867 40.4736 47.4557 39.4201 46.5938C37.4182 44.9559 36.4173 44.137 35.5163 44.2935C35.2252 44.344 34.9489 44.4585 34.7073 44.6286C33.9595 45.155 33.8308 46.442 33.5734 49.016C33.4379 50.371 33.3702 51.0485 32.9891 51.5151C32.862 51.6707 32.7122 51.8063 32.5447 51.9172C32.0425 52.25 31.3617 52.25 30.0001 52.25H26.9996C25.6383 52.25 24.9577 52.25 24.4555 51.9174C24.2879 51.8063 24.1379 51.6707 24.0108 51.5149C23.6298 51.0483 23.5621 50.3711 23.4267 49.0166C23.1693 46.4428 23.0406 45.1559 22.2928 44.6295C22.0512 44.4594 21.7749 44.345 21.4839 44.2944C20.5828 44.1379 19.5819 44.9568 17.58 46.5948L17.5799 46.5948C16.5263 47.4568 15.9995 47.8878 15.4003 47.9484C15.2002 47.9686 14.9983 47.9585 14.8012 47.9185C14.2109 47.7986 13.7297 47.3173 12.7671 46.3547L10.6452 44.2328C9.68259 43.2703 9.20131 42.789 9.08143 42.1987C9.04141 42.0017 9.03134 41.7997 9.05155 41.5996C9.1121 41.0004 9.54311 40.4736 10.4051 39.42C12.043 37.4181 12.862 36.4172 12.7055 35.5162C12.6549 35.2251 12.5405 34.9488 12.3704 34.7072C11.8439 33.9594 10.5571 33.8307 7.9834 33.5733H7.98338C6.62891 33.4379 5.95168 33.3702 5.48513 32.9892C5.32936 32.8621 5.19365 32.7121 5.0826 32.5445C4.75 32.0423 4.75 31.3617 4.75 30.0005V26.9998C4.75 25.6383 4.75 24.9575 5.08274 24.4553C5.19372 24.2878 5.32931 24.138 5.48494 24.0109C5.95155 23.6298 6.62893 23.5621 7.98369 23.4266C10.5579 23.1692 11.845 23.0405 12.3715 22.2925C12.5414 22.051 12.6557 21.7749 12.7063 21.4841C12.863 20.5829 12.0438 19.5817 10.4055 17.5793C9.54324 16.5254 9.11209 15.9984 9.05163 15.399C9.03147 15.1991 9.04153 14.9974 9.08147 14.8006C9.20129 14.2101 9.6827 13.7287 10.6455 12.7658L12.7672 10.6442C13.7298 9.68162 14.2111 9.20033 14.8013 9.08046C14.9984 9.04044 15.2003 9.03037 15.4004 9.05058C15.9997 9.11112 16.5265 9.54218 17.5802 10.4043C19.5819 12.0421 20.5827 12.8609 21.4836 12.7046C21.7749 12.6541 22.0514 12.5395 22.2932 12.3692C23.0407 11.8428 23.1694 10.5562 23.4267 7.9831C23.5621 6.62891 23.6298 5.95181 24.0106 5.48532C24.1379 5.3294 24.2879 5.19359 24.4557 5.08247C24.9578 4.75 25.6383 4.75 26.9992 4.75H30.0005C31.3617 4.75 32.0423 4.75 32.5445 5.08261C32.7121 5.19366 32.8621 5.32935 32.9892 5.48512ZM28.5 38C33.7467 38 38 33.7467 38 28.5C38 23.2533 33.7467 19 28.5 19C23.2533 19 19 23.2533 19 28.5C19 33.7467 23.2533 38 28.5 38Z" fill="#F0DFCE"/>
</svg>
