<svg width="24" height="24" viewBox="0 0 24 24" fill="none" xmlns="http://www.w3.org/2000/svg">
<rect x="4" y="4" width="12" height="9" rx="1" fill="#F0DFCE"/>
<path d="M2 10H16.4C16.9601 10 17.2401 10 17.454 10.109C17.6422 10.2049 17.7951 10.3578 17.891 10.546C18 10.7599 18 11.0399 18 11.6V18.4C18 18.9601 18 19.2401 17.891 19.454C17.7951 19.6422 17.6422 19.7951 17.454 19.891C17.2401 20 16.9601 20 16.4 20H3.6C3.03995 20 2.75992 20 2.54601 19.891C2.35785 19.7951 2.20487 19.6422 2.10899 19.454C2 19.2401 2 18.9601 2 18.4V10Z" fill="#C09162"/>
<path d="M2 9C2 8.05719 2 7.58579 2.29289 7.29289C2.58579 7 3.05719 7 4 7H7.40928C7.84793 7 8.06725 7 8.26148 7.0865C8.4557 7.173 8.60242 7.33602 8.89586 7.66207L11 10H2V9Z" fill="#C09162"/>
<rect x="8" y="13" width="9" height="3" rx="1" fill="#CBDFEE"/>
<path d="M21.25 14.067C21.5833 14.2594 21.5833 14.7406 21.25 14.933L16 17.9641C15.6667 18.1566 15.25 17.916 15.25 17.5311L15.25 11.4689C15.25 11.084 15.6667 10.8434 16 11.0359L21.25 14.067Z" fill="#CBDFEE"/>
</svg>
