<svg width="24" height="24" viewBox="0 0 24 24" fill="none" xmlns="http://www.w3.org/2000/svg">
<path d="M2 6C2 4.11438 2 3.17157 2.58579 2.58579C3.17157 2 4.11438 2 6 2H18C19.8856 2 20.8284 2 21.4142 2.58579C22 3.17157 22 4.11438 22 6V18C22 19.8856 22 20.8284 21.4142 21.4142C20.8284 22 19.8856 22 18 22H6C4.11438 22 3.17157 22 2.58579 21.4142C2 20.8284 2 19.8856 2 18V6Z" fill="#FF9934" stroke="#FF9934"/>
<path d="M12 12H22V18C22 19.8856 22 20.8284 21.4142 21.4142C20.8284 22 19.8856 22 18 22H12V12Z" fill="#3A4042"/>
<path d="M2 6C2 4.11438 2 3.17157 2.58579 2.58579C3.17157 2 4.11438 2 6 2H18C19.8856 2 20.8284 2 21.4142 2.58579C22 3.17157 22 4.11438 22 6V18C22 19.8856 22 20.8284 21.4142 21.4142C20.8284 22 19.8856 22 18 22H6C4.11438 22 3.17157 22 2.58579 21.4142C2 20.8284 2 19.8856 2 18V6Z" stroke="#FFD4AA"/>
<path d="M12 2V22" stroke="#FFD4AA"/>
<path d="M22 12L2 12" stroke="#FFD4AA"/>
<path d="M4 7H10M7 4L7 10" stroke="white" stroke-linecap="round"/>
<path d="M4.87868 15.1213L9.12132 19.364M9.12132 15.1213L4.87868 19.364" stroke="white" stroke-linecap="round"/>
<path d="M19.5 7.24261L14.2426 7.24262" stroke="white" stroke-linecap="round"/>
<path d="M19.5 16L14.2426 16" stroke="white" stroke-linecap="round"/>
<path d="M19.5 18.5L14.2426 18.5" stroke="white" stroke-linecap="round"/>
</svg>
