<svg width="38" height="38" viewBox="0 0 38 38" fill="none" xmlns="http://www.w3.org/2000/svg">
<path d="M6.33337 27.7083V10.2917C6.59726 8.44444 9.50004 4.75 19 4.75C28.5 4.75 31.4028 8.44444 31.6667 10.2917V27.7083C31.6667 29.2917 29.2917 32.4583 19.7917 32.4583C10.2917 32.4583 6.86115 29.2917 6.33337 27.7083Z" fill="url(#paint0_linear_2491_197849)"/>
<path d="M31.6667 10.1786C31.6667 13.1767 25.9956 15.6071 19 15.6071C12.0044 15.6071 6.33337 13.1767 6.33337 10.1786M31.6667 10.1786C31.6667 7.18045 25.9956 4.75 19 4.75C12.0044 4.75 6.33337 7.18045 6.33337 10.1786M31.6667 10.1786V19.0848M6.33337 10.1786V19.0848M6.33337 19.0848V27.3367C6.33337 30.2278 12.0044 32.5714 19 32.5714C25.9956 32.5714 31.6667 30.2278 31.6667 27.3367V19.0848M6.33337 19.0848C6.33337 22.0361 12.0044 24.4286 19 24.4286C25.9956 24.4286 31.6667 22.0361 31.6667 19.0848" stroke="#EFF6FF" stroke-width="1.5"/>
<circle cx="27.75" cy="27" r="8" fill="#EFF6FF"/>
<path d="M33 29.3333L33.3536 28.9798C33.5488 29.175 33.5488 29.4916 33.3536 29.6869L33 29.3333ZM26 29.8333C25.7239 29.8333 25.5 29.6095 25.5 29.3333C25.5 29.0572 25.7239 28.8333 26 28.8333V29.8333ZM31.0202 26.6464L33.3536 28.9798L32.6464 29.6869L30.3131 27.3536L31.0202 26.6464ZM33.3536 29.6869L31.0202 32.0202L30.3131 31.3131L32.6464 28.9798L33.3536 29.6869ZM33 29.8333H26V28.8333H33V29.8333Z" fill="#2C9ED7"/>
<path d="M22.5 24.6666L22.1464 24.3131C21.9512 24.5084 21.9512 24.8249 22.1464 25.0202L22.5 24.6666ZM29.5 25.1666C29.7761 25.1666 30 24.9428 30 24.6666C30 24.3905 29.7761 24.1666 29.5 24.1666V25.1666ZM24.4798 21.9798L22.1464 24.3131L22.8536 25.0202L25.1869 22.6869L24.4798 21.9798ZM22.1464 25.0202L24.4798 27.3535L25.1869 26.6464L22.8536 24.3131L22.1464 25.0202ZM22.5 25.1666H29.5V24.1666H22.5V25.1666Z" fill="#2C9ED7"/>
<defs>
<linearGradient id="paint0_linear_2491_197849" x1="20.2064" y1="4.75" x2="20.2064" y2="32.4583" gradientUnits="userSpaceOnUse">
<stop stop-color="#2C9ED7"/>
<stop offset="1" stop-color="#90D6FA"/>
</linearGradient>
</defs>
</svg>
