<svg width="57" height="57" viewBox="0 0 57 57" fill="none" xmlns="http://www.w3.org/2000/svg">
<rect x="9.5" y="9.5" width="28.5" height="21.375" rx="2" fill="#F0DFCE"/>
<path d="M4.75 23.75H41.15C41.7101 23.75 41.9901 23.75 42.204 23.859C42.3922 23.9549 42.5451 24.1078 42.641 24.296C42.75 24.5099 42.75 24.7899 42.75 25.35V45.9C42.75 46.4601 42.75 46.7401 42.641 46.954C42.5451 47.1422 42.3922 47.2951 42.204 47.391C41.9901 47.5 41.7101 47.5 41.15 47.5H6.35C5.78995 47.5 5.50992 47.5 5.29601 47.391C5.10785 47.2951 4.95487 47.1422 4.85899 46.954C4.75 46.7401 4.75 46.4601 4.75 45.9V23.75Z" fill="#C09162"/>
<path d="M4.75 18.625C4.75 17.6822 4.75 17.2108 5.04289 16.9179C5.33579 16.625 5.80719 16.625 6.75 16.625H18.8218C19.2604 16.625 19.4798 16.625 19.674 16.7115C19.8682 16.798 20.0149 16.961 20.3084 17.2871L26.125 23.75H4.75V18.625Z" fill="#C09162"/>
<rect x="19" y="30.875" width="21.375" height="7.125" rx="1" fill="#F0DFCE"/>
<path d="M51.5 34.0045C51.8333 34.1969 51.8333 34.6781 51.5 34.8705L36.9688 43.2601C36.6354 43.4526 36.2187 43.212 36.2187 42.8271L36.2187 26.0479C36.2187 25.663 36.6354 25.4224 36.9687 25.6149L51.5 34.0045Z" fill="#F0DFCE"/>
</svg>
