<svg width="57" height="57" viewBox="0 0 57 57" fill="none" xmlns="http://www.w3.org/2000/svg">
<path d="M52.25 37.9162V12.6463C52.25 11.1816 50.7274 10.2137 49.4011 10.8354L40.2444 15.1276C39.8175 15.3277 39.3335 15.3706 38.8781 15.2486L18.1219 9.68891C17.6665 9.56691 17.1825 9.60975 16.7556 9.80988L5.90113 14.8979C5.19867 15.2272 4.75 15.933 4.75 16.7088V41.9787C4.75 43.4434 6.27262 44.4113 7.59887 43.7896L16.7556 39.4974C17.1825 39.2973 17.6665 39.2544 18.1219 39.3764L38.8781 44.9361C39.3335 45.0581 39.8175 45.0152 40.2444 44.8151L51.0989 39.7271C51.8013 39.3978 52.25 38.692 52.25 37.9162Z" stroke="#E4BE98" stroke-width="2"/>
<path d="M40.375 45.125V14.25" stroke="#E4BE98" stroke-width="2"/>
<path d="M16.625 39.1875L16.625 9.5" stroke="#E4BE98" stroke-width="2"/>
<path d="M21.375 32.0625L20.6276 31.3981C20.2908 31.777 20.2908 32.348 20.6276 32.7269L21.375 32.0625ZM30.875 33.0625C31.4273 33.0625 31.875 32.6148 31.875 32.0625C31.875 31.5102 31.4273 31.0625 30.875 31.0625V33.0625ZM23.7943 27.8356L20.6276 31.3981L22.1224 32.7269L25.2891 29.1644L23.7943 27.8356ZM20.6276 32.7269L23.7943 36.2894L25.2891 34.9606L22.1224 31.3981L20.6276 32.7269ZM21.375 33.0625H30.875V31.0625H21.375V33.0625Z" fill="#F0DFCE"/>
<path d="M35.625 22.5625L36.3724 21.8981C36.7092 22.277 36.7092 22.848 36.3724 23.2269L35.625 22.5625ZM26.125 23.5625C25.5727 23.5625 25.125 23.1148 25.125 22.5625C25.125 22.0102 25.5727 21.5625 26.125 21.5625V23.5625ZM33.2057 18.3356L36.3724 21.8981L34.8776 23.2269L31.7109 19.6644L33.2057 18.3356ZM36.3724 23.2269L33.2057 26.7894L31.7109 25.4606L34.8776 21.8981L36.3724 23.2269ZM35.625 23.5625H26.125V21.5625H35.625V23.5625Z" fill="#F0DFCE"/>
</svg>
