<svg width="39" height="38" viewBox="0 0 39 38" fill="none" xmlns="http://www.w3.org/2000/svg">
<path d="M6.83337 27.7083V10.2917C7.09726 8.44444 10 4.75 19.5 4.75C29 4.75 31.9028 8.44444 32.1667 10.2917V27.7083C32.1667 29.2917 29.7917 32.4583 20.2917 32.4583C10.7917 32.4583 7.36115 29.2917 6.83337 27.7083Z" fill="url(#paint0_linear_2491_197848)"/>
<path d="M32.1667 10.1786C32.1667 13.1767 26.4956 15.6071 19.5 15.6071C12.5044 15.6071 6.83337 13.1767 6.83337 10.1786M32.1667 10.1786C32.1667 7.18045 26.4956 4.75 19.5 4.75C12.5044 4.75 6.83337 7.18045 6.83337 10.1786M32.1667 10.1786V19.0848M6.83337 10.1786V19.0848M6.83337 19.0848V27.3367C6.83337 30.2278 12.5044 32.5714 19.5 32.5714C26.4956 32.5714 32.1667 30.2278 32.1667 27.3367V19.0848M6.83337 19.0848C6.83337 22.0361 12.5044 24.4286 19.5 24.4286C26.4956 24.4286 32.1667 22.0361 32.1667 19.0848" stroke="#2C9ED7" stroke-width="1.5"/>
<circle cx="28.25" cy="27" r="8" fill="#EFF6FF"/>
<path d="M33.5 29.3333L33.8536 28.9798C34.0488 29.175 34.0488 29.4916 33.8536 29.6869L33.5 29.3333ZM26.5 29.8333C26.2239 29.8333 26 29.6095 26 29.3333C26 29.0572 26.2239 28.8333 26.5 28.8333V29.8333ZM31.5202 26.6464L33.8536 28.9798L33.1464 29.6869L30.8131 27.3536L31.5202 26.6464ZM33.8536 29.6869L31.5202 32.0202L30.8131 31.3131L33.1464 28.9798L33.8536 29.6869ZM33.5 29.8333H26.5V28.8333H33.5V29.8333Z" fill="#2C9ED7"/>
<path d="M23 24.6667L22.6464 24.3132C22.4512 24.5084 22.4512 24.825 22.6464 25.0203L23 24.6667ZM30 25.1667C30.2761 25.1667 30.5 24.9428 30.5 24.6667C30.5 24.3906 30.2761 24.1667 30 24.1667V25.1667ZM24.9798 21.9798L22.6464 24.3132L23.3536 25.0203L25.6869 22.6869L24.9798 21.9798ZM22.6464 25.0203L24.9798 27.3536L25.6869 26.6465L23.3536 24.3132L22.6464 25.0203ZM23 25.1667H30V24.1667H23V25.1667Z" fill="#2C9ED7"/>
<defs>
<linearGradient id="paint0_linear_2491_197848" x1="20.7064" y1="4.75" x2="20.7064" y2="32.4583" gradientUnits="userSpaceOnUse">
<stop stop-color="#2C9ED7"/>
<stop offset="1" stop-color="#90D6FA"/>
</linearGradient>
</defs>
</svg>
