<svg width="24" height="24" viewBox="0 0 24 24" fill="none" xmlns="http://www.w3.org/2000/svg">
<path d="M2 6C2 4.11438 2 3.17157 2.58579 2.58579C3.17157 2 4.11438 2 6 2H18C19.8856 2 20.8284 2 21.4142 2.58579C22 3.17157 22 4.11438 22 6V18C22 19.8856 22 20.8284 21.4142 21.4142C20.8284 22 19.8856 22 18 22H6C4.11438 22 3.17157 22 2.58579 21.4142C2 20.8284 2 19.8856 2 18V6Z" stroke="#639AC4"/>
<path d="M12 2V22" stroke="#639AC4"/>
<path d="M22 12L2 12" stroke="#639AC4"/>
<path d="M10 4V10" stroke="#91BCDD"/>
<path d="M8 6V10" stroke="#91BCDD"/>
<path d="M6 5V10" stroke="#91BCDD"/>
<path d="M4 7V10" stroke="#91BCDD"/>
<path d="M4.59016 17.7963L4 17.2407V19H10V14L7.44262 16.4074L6.7541 15.7593L4.59016 17.7963Z" fill="#91BCDD" stroke="#91BCDD"/>
<path d="M18.3335 18.666L19.2763 19.6088" stroke="#639AC4" stroke-linecap="round"/>
<circle cx="16.6667" cy="16.6667" r="2.16667" fill="#CBDFEE" stroke="#639AC4"/>
<path d="M19.434 9H14.5472C14.2642 8.94815 14 8.75802 14 8.29133C14 7.75206 14.4906 7.65181 14.7358 7.66909C14.7962 6.89474 15.4654 6.93162 15.7925 7.04685C15.7862 6.78182 15.9396 6.21027 16.6038 6.04434C17.434 5.83693 17.9057 6.40732 18.0377 6.71844C18.2013 6.65506 18.6226 6.59399 19 6.85672C19.3774 7.11944 19.4088 7.50777 19.3774 7.66909C19.5849 7.68061 20 7.82119 20 8.29133C20 8.76147 19.6226 8.95967 19.434 9Z" fill="#639AC4"/>
</svg>
