<svg width="60" height="52" viewBox="0 0 60 52" fill="none" xmlns="http://www.w3.org/2000/svg">
<rect x="25" y="38" width="9" height="4" fill="#533314"/>
<path d="M21 42H38" stroke="#C09162" stroke-width="2" stroke-linecap="round"/>
<rect x="8.5" y="11.5" width="44" height="26" rx="1.5" fill="#F0DFCE" stroke="#C09162"/>
<path d="M10 11.5H51C51.8284 11.5 52.5 12.1716 52.5 13V17.5H8.5V13C8.5 12.1716 9.17157 11.5 10 11.5Z" fill="#E4BE98" stroke="#C09162"/>
<circle cx="37.5" cy="14.5" r="1.5" fill="#F0DFCE"/>
<circle cx="42.5" cy="14.5" r="1.5" fill="#F0DFCE"/>
<circle cx="47.5" cy="14.5" r="1.5" fill="#F0DFCE"/>
<rect x="12" y="20" width="16" height="4" rx="1" fill="white"/>
<rect x="12" y="25" width="16" height="4" rx="1" fill="white"/>
<rect x="12" y="30" width="16" height="4" rx="1" fill="white"/>
<path d="M16 22C16 22.5523 15.5523 23 15 23C14.4477 23 14 22.5523 14 22C14 21.4477 14.4477 21 15 21C15.5523 21 16 21.4477 16 22Z" fill="#F0DFCE"/>
<path d="M16 27C16 27.5523 15.5523 28 15 28C14.4477 28 14 27.5523 14 27C14 26.4477 14.4477 26 15 26C15.5523 26 16 26.4477 16 27Z" fill="#F0DFCE"/>
<path d="M16 32C16 32.5523 15.5523 33 15 33C14.4477 33 14 32.5523 14 32C14 31.4477 14.4477 31 15 31C15.5523 31 16 31.4477 16 32Z" fill="#F0DFCE"/>
<path d="M35.0297 25.0699V29.951H34.0553V27.8741H31.9744V29.951H31V25.0699H31.9744V27.0769H34.0553V25.0699H35.0297Z" fill="#905923"/>
<path d="M38.2436 30C37.7889 30 37.3713 29.8928 36.9909 29.6783C36.6104 29.4639 36.3088 29.1678 36.0861 28.7902C35.8634 28.4079 35.752 27.9767 35.752 27.4965C35.752 27.021 35.8634 26.5944 36.0861 26.2168C36.3088 25.8345 36.6104 25.5361 36.9909 25.3217C37.3713 25.1072 37.7889 25 38.2436 25C38.7029 25 39.1205 25.1072 39.4963 25.3217C39.8768 25.5361 40.1761 25.8345 40.3941 26.2168C40.6169 26.5944 40.7282 27.021 40.7282 27.4965C40.7282 27.9767 40.6169 28.4079 40.3941 28.7902C40.1761 29.1678 39.8768 29.4639 39.4963 29.6783C39.1159 29.8928 38.6983 30 38.2436 30ZM38.2436 29.1259C38.5359 29.1259 38.7934 29.0606 39.0161 28.9301C39.2388 28.7949 39.4128 28.6037 39.5381 28.3566C39.6634 28.1096 39.726 27.8228 39.726 27.4965C39.726 27.1702 39.6634 26.8858 39.5381 26.6434C39.4128 26.3963 39.2388 26.2075 39.0161 26.0769C38.7934 25.9464 38.5359 25.8811 38.2436 25.8811C37.9513 25.8811 37.6915 25.9464 37.4641 26.0769C37.2414 26.2075 37.0674 26.3963 36.9421 26.6434C36.8169 26.8858 36.7542 27.1702 36.7542 27.4965C36.7542 27.8228 36.8169 28.1096 36.9421 28.3566C37.0674 28.6037 37.2414 28.7949 37.4641 28.9301C37.6915 29.0606 37.9513 29.1259 38.2436 29.1259Z" fill="#905923"/>
<path d="M43.1304 30C42.7917 30 42.4855 29.9417 42.2117 29.8252C41.9426 29.7086 41.7292 29.5408 41.5714 29.3217C41.4137 29.1026 41.3325 28.8438 41.3278 28.5455H42.3718C42.3857 28.7459 42.4553 28.9044 42.5806 29.021C42.7105 29.1375 42.8868 29.1958 43.1095 29.1958C43.3369 29.1958 43.5155 29.1422 43.6454 29.035C43.7753 28.9231 43.8403 28.7786 43.8403 28.6014C43.8403 28.4569 43.7962 28.338 43.708 28.2448C43.6199 28.1515 43.5085 28.0793 43.374 28.028C43.2441 27.972 43.0631 27.9114 42.8311 27.8462C42.5156 27.7529 42.2581 27.662 42.0586 27.5734C41.8637 27.4802 41.6944 27.3427 41.5505 27.1608C41.4113 26.9744 41.3417 26.7273 41.3417 26.4196C41.3417 26.1305 41.4137 25.8788 41.5575 25.6643C41.7013 25.4499 41.9032 25.2867 42.163 25.1748C42.4228 25.0583 42.7198 25 43.0538 25C43.5549 25 43.9609 25.1235 44.2718 25.3706C44.5873 25.6131 44.7613 25.9534 44.7937 26.3916H43.722C43.7127 26.2238 43.6408 26.0862 43.5062 25.979C43.3763 25.8671 43.2023 25.8112 42.9842 25.8112C42.794 25.8112 42.6409 25.8601 42.5249 25.958C42.4135 26.0559 42.3579 26.1981 42.3579 26.3846C42.3579 26.5152 42.3996 26.6247 42.4831 26.7133C42.5713 26.7972 42.678 26.8671 42.8033 26.9231C42.9332 26.9744 43.1141 27.035 43.3461 27.1049C43.6616 27.1981 43.9191 27.2914 44.1187 27.3846C44.3182 27.4779 44.4898 27.6177 44.6337 27.8042C44.7775 27.9907 44.8494 28.2354 44.8494 28.5385C44.8494 28.7995 44.7821 29.042 44.6476 29.2657C44.513 29.4895 44.3158 29.669 44.056 29.8042C43.7962 29.9347 43.4876 30 43.1304 30Z" fill="#905923"/>
<path d="M49 25.0699V25.8601H47.7055V29.951H46.7311V25.8601H45.4366V25.0699H49Z" fill="#905923"/>
</svg>
