<svg width="24" height="21" viewBox="0 0 24 21" fill="none" xmlns="http://www.w3.org/2000/svg">
<rect x="10" y="15.1992" width="3.6" height="1.6" fill="#4579A0"/>
<path d="M8.3999 16.8008H15.1999" stroke="#639AC4" stroke-linecap="round"/>
<rect x="3.44995" y="4.65039" width="17.5" height="10.3" rx="0.75" fill="#CBDFEE" stroke="#639AC4" stroke-width="0.5"/>
<path d="M5.19995 4.90039H19.2C20.0284 4.90039 20.7 5.57196 20.7 6.40039V6.70039H3.69995V6.40039C3.69995 5.57196 4.37152 4.90039 5.19995 4.90039Z" fill="#639AC4" stroke="#639AC4"/>
<ellipse cx="14.9999" cy="5.79922" rx="0.6" ry="0.6" fill="#CBDFEE"/>
<ellipse cx="16.9999" cy="5.79922" rx="0.6" ry="0.6" fill="#CBDFEE"/>
<ellipse cx="18.9999" cy="5.79922" rx="0.6" ry="0.6" fill="#CBDFEE"/>
<rect x="4.80005" y="8" width="6.4" height="1.6" rx="0.5" fill="#91BCDD"/>
<rect x="4.80005" y="10" width="6.4" height="1.6" rx="0.5" fill="#91BCDD"/>
<rect x="4.80005" y="12" width="6.4" height="1.6" rx="0.5" fill="#91BCDD"/>
<path d="M6.4001 8.80039C6.4001 9.0213 6.22101 9.20039 6.0001 9.20039C5.77918 9.20039 5.6001 9.0213 5.6001 8.80039C5.6001 8.57948 5.77918 8.40039 6.0001 8.40039C6.22101 8.40039 6.4001 8.57948 6.4001 8.80039Z" fill="#E1E4E9"/>
<path d="M6.4001 10.8004C6.4001 11.0213 6.22101 11.2004 6.0001 11.2004C5.77918 11.2004 5.6001 11.0213 5.6001 10.8004C5.6001 10.5795 5.77918 10.4004 6.0001 10.4004C6.22101 10.4004 6.4001 10.5795 6.4001 10.8004Z" fill="#E1E4E9"/>
<path d="M6.4001 12.8004C6.4001 13.0213 6.22101 13.2004 6.0001 13.2004C5.77918 13.2004 5.6001 13.0213 5.6001 12.8004C5.6001 12.5795 5.77918 12.4004 6.0001 12.4004C6.22101 12.4004 6.4001 12.5795 6.4001 12.8004Z" fill="#E1E4E9"/>
<path d="M14.0118 10.028V11.9804H13.622V11.1497H12.7896V11.9804H12.3999V10.028H12.7896V10.8308H13.622V10.028H14.0118Z" fill="#1F3F59"/>
<path d="M15.2973 12C15.1155 12 14.9484 11.9571 14.7962 11.8713C14.6441 11.7855 14.5234 11.6671 14.4343 11.5161C14.3453 11.3632 14.3007 11.1907 14.3007 10.9986C14.3007 10.8084 14.3453 10.6378 14.4343 10.4867C14.5234 10.3338 14.6441 10.2145 14.7962 10.1287C14.9484 10.0429 15.1155 10 15.2973 10C15.4811 10 15.6481 10.0429 15.7984 10.1287C15.9506 10.2145 16.0703 10.3338 16.1576 10.4867C16.2466 10.6378 16.2912 10.8084 16.2912 10.9986C16.2912 11.1907 16.2466 11.3632 16.1576 11.5161C16.0703 11.6671 15.9506 11.7855 15.7984 11.8713C15.6463 11.9571 15.4792 12 15.2973 12ZM15.2973 11.6503C15.4143 11.6503 15.5173 11.6242 15.6064 11.572C15.6954 11.5179 15.765 11.4415 15.8151 11.3427C15.8653 11.2438 15.8903 11.1291 15.8903 10.9986C15.8903 10.8681 15.8653 10.7543 15.8151 10.6573C15.765 10.5585 15.6954 10.483 15.6064 10.4308C15.5173 10.3786 15.4143 10.3524 15.2973 10.3524C15.1804 10.3524 15.0765 10.3786 14.9856 10.4308C14.8965 10.483 14.8269 10.5585 14.7768 10.6573C14.7267 10.7543 14.7016 10.8681 14.7016 10.9986C14.7016 11.1291 14.7267 11.2438 14.7768 11.3427C14.8269 11.4415 14.8965 11.5179 14.9856 11.572C15.0765 11.6242 15.1804 11.6503 15.2973 11.6503Z" fill="#1F3F59"/>
<path d="M17.2521 12C17.1166 12 16.9941 11.9767 16.8846 11.9301C16.7769 11.8834 16.6916 11.8163 16.6285 11.7287C16.5654 11.641 16.5329 11.5375 16.531 11.4182H16.9486C16.9542 11.4984 16.982 11.5618 17.0321 11.6084C17.0841 11.655 17.1546 11.6783 17.2437 11.6783C17.3346 11.6783 17.4061 11.6569 17.4581 11.614C17.51 11.5692 17.536 11.5114 17.536 11.4406C17.536 11.3828 17.5184 11.3352 17.4831 11.2979C17.4479 11.2606 17.4033 11.2317 17.3495 11.2112C17.2975 11.1888 17.2251 11.1646 17.1324 11.1385C17.0061 11.1012 16.9031 11.0648 16.8233 11.0294C16.7454 10.9921 16.6777 10.9371 16.6201 10.8643C16.5644 10.7897 16.5366 10.6909 16.5366 10.5678C16.5366 10.4522 16.5654 10.3515 16.6229 10.2657C16.6804 10.18 16.7612 10.1147 16.8651 10.0699C16.969 10.0233 17.0878 10 17.2214 10C17.4219 10 17.5843 10.0494 17.7086 10.1483C17.8348 10.2452 17.9044 10.3814 17.9174 10.5566H17.4887C17.485 10.4895 17.4562 10.4345 17.4024 10.3916C17.3504 10.3469 17.2808 10.3245 17.1936 10.3245C17.1175 10.3245 17.0563 10.3441 17.0099 10.3832C16.9653 10.4224 16.943 10.4793 16.943 10.5538C16.943 10.6061 16.9598 10.6499 16.9932 10.6853C17.0284 10.7189 17.0711 10.7469 17.1212 10.7692C17.1732 10.7897 17.2456 10.814 17.3384 10.842C17.4646 10.8793 17.5676 10.9166 17.6474 10.9538C17.7272 10.9911 17.7958 11.0471 17.8534 11.1217C17.9109 11.1963 17.9397 11.2942 17.9397 11.4154C17.9397 11.5198 17.9128 11.6168 17.8589 11.7063C17.8051 11.7958 17.7262 11.8676 17.6223 11.9217C17.5184 11.9739 17.395 12 17.2521 12Z" fill="#1F3F59"/>
<path d="M19.5999 10.028V10.3441H19.0821V11.9804H18.6924V10.3441H18.1746V10.028H19.5999Z" fill="#1F3F59"/>
</svg>
