<svg width="58" height="43" viewBox="0 0 58 43" fill="none" xmlns="http://www.w3.org/2000/svg">
<path d="M8.89443 23.5528L13.2764 21.3618C13.6088 21.1956 14 21.4373 14 21.809L14 26.191C14 26.5627 13.6088 26.8044 13.2764 26.6382L8.89443 24.4472C8.5259 24.263 8.5259 23.737 8.89443 23.5528Z" fill="#ED3737"/>
<path d="M12.5 24C16.6421 24 20 27.3566 20 31.4973C20 35.6379 16.6421 38.9946 12.5 38.9946C10 39.0987 5 37.745 5 31.4973" stroke="#ED3737" stroke-width="2" stroke-linecap="round"/>
<rect x="24" width="34" height="18" rx="4" fill="#676F76"/>
<path d="M33.6106 12L32.2826 9.72H31.4026V12H30.6746V6.424H32.4746C32.8959 6.424 33.2506 6.496 33.5386 6.64C33.8319 6.784 34.0506 6.97867 34.1946 7.224C34.3386 7.46933 34.4106 7.74933 34.4106 8.064C34.4106 8.448 34.2986 8.78667 34.0746 9.08C33.8559 9.37333 33.5253 9.568 33.0826 9.664L34.4826 12H33.6106ZM31.4026 9.136H32.4746C32.8693 9.136 33.1653 9.04 33.3626 8.848C33.5599 8.65067 33.6586 8.38933 33.6586 8.064C33.6586 7.73333 33.5599 7.47733 33.3626 7.296C33.1706 7.11467 32.8746 7.024 32.4746 7.024H31.4026V9.136ZM39.5418 9.64C39.5418 9.77867 39.5338 9.92533 39.5178 10.08H36.0138C36.0404 10.512 36.1871 10.8507 36.4538 11.096C36.7258 11.336 37.0538 11.456 37.4378 11.456C37.7524 11.456 38.0138 11.384 38.2218 11.24C38.4351 11.0907 38.5844 10.8933 38.6698 10.648H39.4538C39.3364 11.0693 39.1018 11.4133 38.7498 11.68C38.3978 11.9413 37.9604 12.072 37.4378 12.072C37.0218 12.072 36.6484 11.9787 36.3178 11.792C35.9924 11.6053 35.7364 11.3413 35.5498 11C35.3631 10.6533 35.2698 10.2533 35.2698 9.8C35.2698 9.34667 35.3604 8.94933 35.5418 8.608C35.7231 8.26667 35.9764 8.00533 36.3018 7.824C36.6324 7.63733 37.0111 7.544 37.4378 7.544C37.8538 7.544 38.2218 7.63467 38.5418 7.816C38.8618 7.99733 39.1071 8.248 39.2778 8.568C39.4538 8.88267 39.5418 9.24 39.5418 9.64ZM38.7898 9.488C38.7898 9.21067 38.7284 8.97333 38.6058 8.776C38.4831 8.57333 38.3151 8.42133 38.1018 8.32C37.8938 8.21333 37.6618 8.16 37.4058 8.16C37.0378 8.16 36.7231 8.27733 36.4618 8.512C36.2058 8.74667 36.0591 9.072 36.0218 9.488H38.7898ZM42.0547 12.072C41.7187 12.072 41.4174 12.016 41.1507 11.904C40.8841 11.7867 40.6734 11.6267 40.5187 11.424C40.3641 11.216 40.2787 10.9787 40.2627 10.712H41.0147C41.0361 10.9307 41.1374 11.1093 41.3187 11.248C41.5054 11.3867 41.7481 11.456 42.0467 11.456C42.3241 11.456 42.5427 11.3947 42.7027 11.272C42.8627 11.1493 42.9427 10.9947 42.9427 10.808C42.9427 10.616 42.8574 10.4747 42.6867 10.384C42.5161 10.288 42.2521 10.1947 41.8947 10.104C41.5694 10.0187 41.3027 9.93333 41.0947 9.848C40.8921 9.75733 40.7161 9.62667 40.5667 9.456C40.4227 9.28 40.3507 9.05067 40.3507 8.768C40.3507 8.544 40.4174 8.33867 40.5507 8.152C40.6841 7.96533 40.8734 7.81867 41.1187 7.712C41.3641 7.6 41.6441 7.544 41.9587 7.544C42.4441 7.544 42.8361 7.66667 43.1347 7.912C43.4334 8.15733 43.5934 8.49333 43.6147 8.92H42.8867C42.8707 8.69067 42.7774 8.50667 42.6067 8.368C42.4414 8.22933 42.2174 8.16 41.9347 8.16C41.6734 8.16 41.4654 8.216 41.3107 8.328C41.1561 8.44 41.0787 8.58667 41.0787 8.768C41.0787 8.912 41.1241 9.032 41.2147 9.128C41.3107 9.21867 41.4281 9.29333 41.5667 9.352C41.7107 9.40533 41.9081 9.46667 42.1587 9.536C42.4734 9.62133 42.7294 9.70667 42.9267 9.792C43.1241 9.872 43.2921 9.99467 43.4307 10.16C43.5747 10.3253 43.6494 10.5413 43.6547 10.808C43.6547 11.048 43.5881 11.264 43.4547 11.456C43.3214 11.648 43.1321 11.8 42.8867 11.912C42.6467 12.0187 42.3694 12.072 42.0547 12.072ZM48.6824 9.64C48.6824 9.77867 48.6744 9.92533 48.6584 10.08H45.1544C45.1811 10.512 45.3277 10.8507 45.5944 11.096C45.8664 11.336 46.1944 11.456 46.5784 11.456C46.8931 11.456 47.1544 11.384 47.3624 11.24C47.5757 11.0907 47.7251 10.8933 47.8104 10.648H48.5944C48.4771 11.0693 48.2424 11.4133 47.8904 11.68C47.5384 11.9413 47.1011 12.072 46.5784 12.072C46.1624 12.072 45.7891 11.9787 45.4584 11.792C45.1331 11.6053 44.8771 11.3413 44.6904 11C44.5037 10.6533 44.4104 10.2533 44.4104 9.8C44.4104 9.34667 44.5011 8.94933 44.6824 8.608C44.8637 8.26667 45.1171 8.00533 45.4424 7.824C45.7731 7.63733 46.1517 7.544 46.5784 7.544C46.9944 7.544 47.3624 7.63467 47.6824 7.816C48.0024 7.99733 48.2477 8.248 48.4184 8.568C48.5944 8.88267 48.6824 9.24 48.6824 9.64ZM47.9304 9.488C47.9304 9.21067 47.8691 8.97333 47.7464 8.776C47.6237 8.57333 47.4557 8.42133 47.2424 8.32C47.0344 8.21333 46.8024 8.16 46.5464 8.16C46.1784 8.16 45.8637 8.27733 45.6024 8.512C45.3464 8.74667 45.1997 9.072 45.1624 9.488H47.9304ZM50.5313 8.216V10.8C50.5313 11.0133 50.5767 11.1653 50.6673 11.256C50.758 11.3413 50.9153 11.384 51.1393 11.384H51.6753V12H51.0193C50.614 12 50.31 11.9067 50.1073 11.72C49.9047 11.5333 49.8033 11.2267 49.8033 10.8V8.216H49.2353V7.616H49.8033V6.512H50.5313V7.616H51.6753V8.216H50.5313Z" fill="white"/>
</svg>
