<svg width="61" height="61" viewBox="0 0 61 61" fill="none" xmlns="http://www.w3.org/2000/svg">
<path d="M5.5 9.5C5.5 7.61438 5.5 6.67157 6.08579 6.08579C6.67157 5.5 7.61438 5.5 9.5 5.5H51.5C53.3856 5.5 54.3284 5.5 54.9142 6.08579C55.5 6.67157 55.5 7.61438 55.5 9.5V51.5C55.5 53.3856 55.5 54.3284 54.9142 54.9142C54.3284 55.5 53.3856 55.5 51.5 55.5H9.5C7.61438 55.5 6.67157 55.5 6.08579 54.9142C5.5 54.3284 5.5 53.3856 5.5 51.5V9.5Z" stroke="#32C795" stroke-width="2"/>
<path d="M30.5 5.5V55.5" stroke="#32C795" stroke-width="2"/>
<path d="M55.5 30.5L5.5 30.5" stroke="#32C795" stroke-width="2"/>
<path fill-rule="evenodd" clip-rule="evenodd" d="M42.9305 49.2986C46.7409 49.2986 49.8298 46.2097 49.8298 42.3993C49.8298 38.5889 46.7409 35.5 42.9305 35.5C39.1202 35.5 36.0312 38.5889 36.0312 42.3993C36.0312 42.3993 36.0312 42.3993 36.0312 42.3993H42.9305L42.9305 49.2986Z" fill="#92F3D3"/>
<path fill-rule="evenodd" clip-rule="evenodd" d="M35.5 42.9297H42.3993V49.8289C42.3993 49.8289 42.3993 49.8289 42.3993 49.8289C38.5889 49.8289 35.5 46.74 35.5 42.9297Z" fill="#32C795"/>
<path d="M36.75 11.3C36.75 11.02 36.75 10.88 36.8045 10.773C36.8524 10.6789 36.9289 10.6024 37.023 10.5545C37.13 10.5 37.27 10.5 37.55 10.5H45.1686C45.2909 10.5 45.3521 10.5 45.4096 10.5138C45.4606 10.5261 45.5094 10.5463 45.5541 10.5737C45.6046 10.6046 45.6478 10.6478 45.7343 10.7343L49.0157 14.0157C49.1022 14.1022 49.1454 14.1454 49.1763 14.1959C49.2037 14.2406 49.2239 14.2894 49.2362 14.3404C49.25 14.3979 49.25 14.4591 49.25 14.5814V24.7C49.25 24.98 49.25 25.12 49.1955 25.227C49.1476 25.3211 49.0711 25.3976 48.977 25.4455C48.87 25.5 48.73 25.5 48.45 25.5H37.55C37.27 25.5 37.13 25.5 37.023 25.4455C36.9289 25.3976 36.8524 25.3211 36.8045 25.227C36.75 25.12 36.75 24.98 36.75 24.7V11.3Z" fill="#92F3D3" stroke="#32C795"/>
<path d="M44.25 10.5V14.7C44.25 14.98 44.25 15.12 44.3045 15.227C44.3524 15.3211 44.4289 15.3976 44.523 15.4455C44.63 15.5 44.77 15.5 45.05 15.5H49.25" stroke="#32C795"/>
<path d="M40.5 18.2C40.5 18.0895 40.5895 18 40.7 18H45.3C45.4105 18 45.5 18.0895 45.5 18.2V22.8C45.5 22.9105 45.4105 23 45.3 23H40.7C40.5895 23 40.5 22.9105 40.5 22.8V18.2Z" fill="#EBFFF8" stroke="#32C795" stroke-width="0.5"/>
<path d="M40.5 20.5H45.5" stroke="#32C795" stroke-width="0.5"/>
<path d="M43 18L43 23" stroke="#32C795" stroke-width="0.5"/>
<path d="M10.5 36.5C10.5 36.0286 10.5 35.7929 10.6464 35.6464C10.7929 35.5 11.0286 35.5 11.5 35.5H24.5C24.9714 35.5 25.2071 35.5 25.3536 35.6464C25.5 35.7929 25.5 36.0286 25.5 36.5V40.5H10.5V36.5Z" fill="#92F3D3"/>
<path d="M10.5 36.5C10.5 36.0286 10.5 35.7929 10.6464 35.6464C10.7929 35.5 11.0286 35.5 11.5 35.5H24.5C24.9714 35.5 25.2071 35.5 25.3536 35.6464C25.5 35.7929 25.5 36.0286 25.5 36.5V49.5C25.5 49.9714 25.5 50.2071 25.3536 50.3536C25.2071 50.5 24.9714 50.5 24.5 50.5H11.5C11.0286 50.5 10.7929 50.5 10.6464 50.3536C10.5 50.2071 10.5 49.9714 10.5 49.5V36.5Z" stroke="#32C795"/>
<path d="M15.5 50.4999L15.5 40.5" stroke="#32C795"/>
<path d="M20.5 50.5001L20.5 40.5" stroke="#32C795"/>
<path d="M25.5 40.5L10.5 40.5" stroke="#32C795"/>
<path d="M25.5 45.5L10.5 45.5" stroke="#32C795"/>
<path fill-rule="evenodd" clip-rule="evenodd" d="M19.5901 11.4005V11.4005L19.627 11.7695C19.7086 12.5863 19.7495 12.9947 20.0259 13.1092C20.3023 13.2236 20.6199 12.9637 21.2552 12.444L21.5422 12.2092C21.8751 11.9368 22.0415 11.8006 22.2339 11.8102C22.4264 11.8198 22.5784 11.9719 22.8825 12.276L23.724 13.1175L23.724 13.1175C24.0281 13.4216 24.1802 13.5737 24.1898 13.7661C24.1994 13.9585 24.0632 14.125 23.7909 14.4578L23.5561 14.7448C23.0363 15.3801 22.7764 15.6977 22.8909 15.9741C23.0054 16.2506 23.4138 16.2914 24.2305 16.3731L24.5995 16.41C25.0275 16.4528 25.2415 16.4742 25.3707 16.617C25.5 16.7599 25.5 16.9749 25.5 17.405V18.595C25.5 19.0251 25.5 19.2402 25.3707 19.383C25.2415 19.5259 25.0275 19.5473 24.5995 19.5901H24.5995L24.2308 19.6269C23.414 19.7086 23.0057 19.7494 22.8912 20.0259C22.7767 20.3023 23.0366 20.6199 23.5564 21.2552L23.5564 21.2552L23.7909 21.5418C24.0632 21.8747 24.1994 22.0412 24.1898 22.2336C24.1802 22.426 24.0282 22.5781 23.724 22.8822L22.8826 23.7237C22.5784 24.0278 22.4264 24.1798 22.2339 24.1894C22.0415 24.199 21.8751 24.0629 21.5422 23.7905L21.2553 23.5557C20.62 23.036 20.3023 22.7761 20.0259 22.8905C19.7495 23.005 19.7087 23.4134 19.627 24.2302L19.5901 24.5995V24.5995C19.5473 25.0275 19.5259 25.2415 19.383 25.3707C19.2402 25.5 19.0251 25.5 18.595 25.5H17.405C16.9749 25.5 16.7599 25.5 16.617 25.3707C16.4742 25.2415 16.4528 25.0275 16.41 24.5995L16.3731 24.2306C16.2914 23.4138 16.2506 23.0054 15.9741 22.8909C15.6977 22.7764 15.3801 23.0363 14.7448 23.5561L14.4578 23.791C14.1249 24.0633 13.9584 24.1995 13.766 24.1899C13.5736 24.1803 13.4215 24.0282 13.1174 23.7241L12.2759 22.8826C11.9718 22.5785 11.8198 22.4264 11.8102 22.234C11.8006 22.0416 11.9367 21.8752 12.2091 21.5423L12.4439 21.2552C12.9637 20.6199 13.2236 20.3023 13.1091 20.0259C12.9946 19.7495 12.5863 19.7086 11.7695 19.627L11.4005 19.5901H11.4005C10.9725 19.5473 10.7585 19.5259 10.6293 19.383C10.5 19.2402 10.5 19.0251 10.5 18.595V17.405C10.5 16.9749 10.5 16.7599 10.6293 16.617C10.7585 16.4742 10.9725 16.4528 11.4005 16.41L11.7698 16.373C12.5865 16.2914 12.9949 16.2505 13.1094 15.9741C13.2239 15.6977 12.964 15.3801 12.4442 14.7448L12.2091 14.4574C11.9367 14.1245 11.8006 13.9581 11.8102 13.7657C11.8198 13.5732 11.9718 13.4212 12.276 13.1171L13.1174 12.2756C13.4216 11.9715 13.5736 11.8194 13.766 11.8098C13.9585 11.8002 14.1249 11.9364 14.4578 12.2087L14.7448 12.4436C15.3801 12.9634 15.6978 13.2233 15.9742 13.1088C16.2506 12.9943 16.2914 12.5859 16.3731 11.7691L16.41 11.4005C16.4528 10.9725 16.4742 10.7585 16.617 10.6293C16.7599 10.5 16.9749 10.5 17.405 10.5H18.595C19.0251 10.5 19.2402 10.5 19.383 10.6293C19.5259 10.7585 19.5473 10.9725 19.5901 11.4005ZM18 21C19.6568 21 21 19.6569 21 18C21 16.3432 19.6568 15 18 15C16.3431 15 15 16.3432 15 18C15 19.6569 16.3431 21 18 21Z" fill="url(#paint0_linear_2148_174225)"/>
<defs>
<linearGradient id="paint0_linear_2148_174225" x1="18.7143" y1="10.5" x2="18.7143" y2="25.5" gradientUnits="userSpaceOnUse">
<stop stop-color="#098461"/>
<stop offset="1" stop-color="#32C795"/>
</linearGradient>
</defs>
</svg>
