<svg width="57" height="57" viewBox="0 0 57 57" fill="none" xmlns="http://www.w3.org/2000/svg">
<path d="M8.34112 40.8708C10.2096 35.0997 16.2645 32.2938 22.4399 32.2938H34.5601C40.7355 32.2938 46.7904 35.0997 48.6589 40.8708C49.159 42.4155 49.5827 44.1293 49.8423 45.9788C50.1424 48.1163 48.3329 49.875 46.1322 49.875H10.8678C8.6671 49.875 6.85758 48.1163 7.15766 45.9788C7.4173 44.1293 7.841 42.4155 8.34112 40.8708Z" fill="#90D6FA"/>
<path d="M40.1552 16.2754C40.1552 22.6408 34.937 27.8009 28.5 27.8009C22.063 27.8009 16.8448 22.6408 16.8448 16.2754C16.8448 9.91011 22.063 4.75 28.5 4.75C34.937 4.75 40.1552 9.91011 40.1552 16.2754Z" fill="#90D6FA"/>
<circle cx="28.5" cy="47.5" r="9.5" fill="white"/>
<path fill-rule="evenodd" clip-rule="evenodd" d="M27.5478 46.2336L33.9511 46.1976C34.0184 46.1973 34.0839 46.2195 34.137 46.2609L34.9314 46.8791C35.0706 46.9874 35.0867 47.1919 34.9662 47.3208L34.4781 47.8429C34.2569 48.0794 33.886 48.0919 33.6495 47.8707C33.4131 47.6495 33.0421 47.6619 32.821 47.8984L32.7314 47.9942C32.5349 48.2044 32.2051 48.2154 31.995 48.0188C31.7848 47.8222 31.4548 47.8335 31.2582 48.0437C31.0617 48.2539 30.7317 48.2652 30.5215 48.0686L30.498 48.0466C30.3008 47.8621 29.9915 47.8725 29.8071 48.0697C29.6227 48.2669 29.3133 48.2773 29.1162 48.0928L29.0926 48.0708C28.8824 47.8742 28.5527 47.8852 28.3561 48.0955L28.2398 48.2199C28.1146 48.3538 27.9414 48.4325 27.7582 48.4387L27.6206 48.4433C27.5011 48.7315 27.3288 49.0034 27.1032 49.2447C26.0951 50.3229 24.4047 50.38 23.3275 49.3724C22.2503 48.3647 22.1943 46.6739 23.2024 45.5957C24.2105 44.5176 25.9009 44.4604 26.9781 45.468C27.2194 45.6938 27.4095 45.9539 27.5478 46.2336ZM24.3593 47.1243C24.5432 47.2964 24.5528 47.5851 24.3807 47.7691C24.2086 47.9532 23.92 47.963 23.7361 47.7909C23.5522 47.6189 23.5426 47.3302 23.7147 47.1461C23.8868 46.9621 24.1754 46.9523 24.3593 47.1243Z" fill="#2C9ED7"/>
</svg>
