<svg width="200" height="200" viewBox="0 0 200 200" fill="none" xmlns="http://www.w3.org/2000/svg">
<path d="M29.2671 143.406C35.8233 123.157 57.0684 113.312 78.7364 113.312H121.264C142.932 113.312 164.177 123.157 170.733 143.406C172.488 148.826 173.974 154.839 174.885 161.329C175.938 168.829 169.589 175 161.867 175H38.1326C30.4109 175 24.0617 168.829 25.1146 161.329C26.0256 154.839 27.5123 148.826 29.2671 143.406Z" fill="#2C9ED7"/>
<path d="M140.895 57.1068C140.895 79.4412 122.586 97.5469 100 97.5469C77.4141 97.5469 59.1046 79.4412 59.1046 57.1068C59.1046 34.7723 77.4141 16.6667 100 16.6667C122.586 16.6667 140.895 34.7723 140.895 57.1068Z" fill="#2C9ED7"/>
<ellipse cx="100" cy="166.667" rx="33.3333" ry="33.3333" fill="#90D6FA"/>
<path fill-rule="evenodd" clip-rule="evenodd" d="M96.6591 162.223L119.387 162.095C119.455 162.095 119.52 162.117 119.573 162.159L123.217 164.994C123.356 165.102 123.372 165.307 123.252 165.436L120.254 168.642C119.877 169.045 119.244 169.067 118.841 168.689L117.297 167.245C116.893 166.868 116.261 166.889 115.883 167.292L114.281 169.006C113.904 169.409 113.271 169.43 112.868 169.053L111.658 167.921C111.255 167.544 110.622 167.565 110.245 167.968L109.111 169.181C108.734 169.584 108.102 169.605 107.698 169.228L106.488 168.096C106.085 167.719 105.452 167.74 105.075 168.143L104.098 169.188C103.721 169.592 103.088 169.613 102.684 169.236L101.474 168.104C101.071 167.726 100.438 167.747 100.061 168.151L98.6838 169.624C98.5027 169.818 98.2522 169.931 97.9873 169.94L96.9144 169.977C96.4952 170.988 95.8906 171.942 95.099 172.789C91.5619 176.572 85.6306 176.772 81.851 173.236C78.0715 169.701 77.8749 163.768 81.412 159.985C84.9491 156.202 90.8804 156.001 94.66 159.537C95.5067 160.329 96.1737 161.242 96.6591 162.223ZM85.4715 165.349C86.1167 165.952 86.1503 166.965 85.5464 167.611C84.9425 168.257 83.9299 168.291 83.2846 167.688C82.6393 167.084 82.6057 166.071 83.2096 165.425C83.8135 164.779 84.8262 164.745 85.4715 165.349Z" fill="white"/>
</svg>
