<svg width="24" height="24" viewBox="0 0 24 24" fill="none" xmlns="http://www.w3.org/2000/svg">
<path d="M18.7641 9.82494C18.7641 14.4839 14.2756 18.9928 12.6113 20.5045C12.261 20.8227 11.7391 20.8227 11.3888 20.5045C9.72459 18.9928 5.23608 14.4839 5.23608 9.82494C5.23608 6.05563 8.26443 3 12.0001 3C15.7357 3 18.7641 6.05563 18.7641 9.82494Z" fill="#EFF6FF"/>
<circle cx="12" cy="10" r="4.75" stroke="#2C9ED7" stroke-width="0.5"/>
<path d="M14.75 10C14.75 11.3432 14.4228 12.5471 13.9069 13.4069C13.3881 14.2717 12.7061 14.75 12 14.75C11.2939 14.75 10.6119 14.2717 10.0931 13.4069C9.57718 12.5471 9.25 11.3432 9.25 10C9.25 8.65681 9.57718 7.45288 10.0931 6.59309C10.6119 5.72832 11.2939 5.25 12 5.25C12.7061 5.25 13.3881 5.72832 13.9069 6.59309C14.4228 7.45288 14.75 8.65681 14.75 10Z" stroke="#2C9ED7" stroke-width="0.5"/>
<path d="M16 12.5C16 11.8306 14.2091 10.5 12 10.5C9.79086 10.5 8 11.8306 8 12.5" stroke="#2C9ED7" stroke-width="0.5"/>
<path d="M8 7.5C8 8.16944 9.79086 9.5 12 9.5C14.2091 9.5 16 8.16944 16 7.5" stroke="#2C9ED7" stroke-width="0.5"/>
</svg>
