<svg width="57" height="57" viewBox="0 0 57 57" fill="none" xmlns="http://www.w3.org/2000/svg">
<path d="M44.5645 23.3342C44.5645 35.3227 32.0509 46.8927 29.1124 49.4444C28.7551 49.7546 28.245 49.7546 27.8877 49.4444C24.9492 46.8927 12.4355 35.3227 12.4355 23.3342C12.4355 14.3821 19.6279 7.125 28.5 7.125C37.3722 7.125 44.5645 14.3821 44.5645 23.3342Z" fill="#EFF6FF"/>
<circle cx="28.5" cy="23.75" r="11.375" stroke="#2C9ED7"/>
<path d="M35.125 23.75C35.125 26.9542 34.3447 29.8308 33.1094 31.8896C31.8681 33.9585 30.2229 35.125 28.5 35.125C26.7771 35.125 25.1319 33.9585 23.8906 31.8896C22.6553 29.8308 21.875 26.9542 21.875 23.75C21.875 20.5458 22.6553 17.6692 23.8906 15.6104C25.1319 13.5415 26.7771 12.375 28.5 12.375C30.2229 12.375 31.8681 13.5415 33.1094 15.6104C34.3447 17.6692 35.125 20.5458 35.125 23.75Z" stroke="#2C9ED7"/>
<path d="M38 29.6875C38 28.0976 33.7467 24.9375 28.5 24.9375C23.2533 24.9375 19 28.0976 19 29.6875" stroke="#2C9ED7"/>
<path d="M19 17.8125C19 19.4024 23.2533 22.5625 28.5 22.5625C33.7467 22.5625 38 19.4024 38 17.8125" stroke="#2C9ED7"/>
</svg>
