<svg width="200" height="200" viewBox="0 0 200 200" fill="none" xmlns="http://www.w3.org/2000/svg">
<path d="M156.367 81.8745C156.367 126.583 106.768 169.632 100.622 174.794C100.26 175.099 99.7401 175.099 99.3778 174.794C93.2322 169.632 43.6333 126.583 43.6333 81.8745C43.6333 50.4636 68.8695 25 100 25C131.13 25 156.367 50.4636 156.367 81.8745Z" fill="#2C9ED7"/>
<path d="M139.167 83.3332C139.167 104.964 121.631 122.5 100 122.5C78.369 122.5 60.8335 104.964 60.8335 83.3332C60.8335 61.702 78.369 44.1665 100 44.1665C121.631 44.1665 139.167 61.702 139.167 83.3332Z" stroke="#EFF6FF" stroke-width="5"/>
<path d="M122.5 83.3332C122.5 94.4639 119.788 104.42 115.534 111.51C111.25 118.649 105.68 122.5 100 122.5C94.3196 122.5 88.7498 118.649 84.4661 111.51C80.2121 104.42 77.5 94.4639 77.5 83.3332C77.5 72.2024 80.2121 62.2465 84.4661 55.1566C88.7498 48.017 94.3196 44.1665 100 44.1665C105.68 44.1665 111.25 48.017 115.534 55.1566C119.788 62.2465 122.5 72.2024 122.5 83.3332Z" stroke="#EFF6FF" stroke-width="5"/>
<path d="M133.333 104.167C133.333 98.5879 118.41 87.4998 100 87.4998C81.5907 87.4998 66.6668 98.5879 66.6668 104.167" stroke="#EFF6FF" stroke-width="5"/>
<path d="M66.6665 62.5C66.6665 68.0786 81.5903 79.1667 99.9998 79.1667C118.409 79.1667 133.333 68.0786 133.333 62.5" stroke="#EFF6FF" stroke-width="5"/>
</svg>
