<svg width="200" height="200" viewBox="0 0 200 200" fill="none" xmlns="http://www.w3.org/2000/svg">
<path fill-rule="evenodd" clip-rule="evenodd" d="M100.602 159.655C105.886 155.238 144.164 122.051 144.164 87.5961C144.164 63.2047 124.391 43.4316 99.9999 43.4316C75.6085 43.4316 55.8354 63.2047 55.8354 87.5961C55.8354 122.051 94.1136 155.238 99.3977 159.655C99.7582 159.956 100.242 159.956 100.602 159.655ZM99.9999 106.524C110.453 106.524 118.927 98.0495 118.927 87.5961C118.927 77.1426 110.453 68.6685 99.9999 68.6685C89.5464 68.6685 81.0723 77.1426 81.0723 87.5961C81.0723 98.0495 89.5464 106.524 99.9999 106.524Z" fill="#2C9ED7"/>
</svg>
