<svg width="24" height="24" viewBox="0 0 24 24" fill="none" xmlns="http://www.w3.org/2000/svg">
<path fill-rule="evenodd" clip-rule="evenodd" d="M12.6041 18.6908C13.994 17.4171 17.2997 14.0192 17.2997 10.5116C17.2997 7.58468 14.9269 5.21191 11.9999 5.21191C9.07297 5.21191 6.7002 7.58468 6.7002 10.5116C6.7002 14.0192 10.0059 17.4171 11.3957 18.6908C11.7422 19.0083 12.2577 19.0083 12.6041 18.6908ZM11.9999 12.783C13.2543 12.783 14.2712 11.7661 14.2712 10.5116C14.2712 9.25723 13.2543 8.24033 11.9999 8.24033C10.7455 8.24033 9.72861 9.25723 9.72861 10.5116C9.72861 11.7661 10.7455 12.783 11.9999 12.783Z" fill="#EFF6FF"/>
</svg>
