<svg width="57" height="57" viewBox="0 0 57 57" fill="none" xmlns="http://www.w3.org/2000/svg">
<path fill-rule="evenodd" clip-rule="evenodd" d="M29.1091 45.1281C31.6265 42.9401 41.0868 34.1092 41.0868 24.9648C41.0868 18.0133 35.4515 12.3779 28.4999 12.3779C21.5484 12.3779 15.9131 18.0133 15.9131 24.9648C15.9131 34.1092 25.3734 42.9401 27.8908 45.1281C28.2455 45.4364 28.7544 45.4364 29.1091 45.1281ZM28.4999 30.3592C31.4792 30.3592 33.8943 27.944 33.8943 24.9648C33.8943 21.9856 31.4792 19.5704 28.4999 19.5704C25.5207 19.5704 23.1056 21.9856 23.1056 24.9648C23.1056 27.944 25.5207 30.3592 28.4999 30.3592Z" fill="#EFF6FF"/>
</svg>
