<svg width="24" height="24" viewBox="0 0 24 24" fill="none" xmlns="http://www.w3.org/2000/svg">
<path fill-rule="evenodd" clip-rule="evenodd" d="M16.1511 4.72751C17.3103 4.43771 18.1268 4.23489 18.7504 4.17149C19.361 4.10941 19.685 4.19326 19.9231 4.37915C20.1612 4.56504 20.3211 4.85902 20.409 5.46647C20.4988 6.08689 20.5 6.92812 20.5 8.12301V15.8768C20.5 17.0717 20.4988 17.9129 20.409 18.5333C20.3211 19.1408 20.1612 19.4348 19.9231 19.6207C19.685 19.8066 19.361 19.8904 18.7504 19.8283C18.1268 19.7649 17.3103 19.5621 16.1511 19.2723L14.1511 18.7723C13.4118 18.5875 12.9003 18.4587 12.5179 18.3131C12.1481 18.1722 11.9526 18.0342 11.8177 17.8615C11.6828 17.6887 11.5964 17.4655 11.5494 17.0726C11.5008 16.6664 11.5 16.1389 11.5 15.3768V13.9999H10.5V15.3768V15.408V15.408C10.5 16.1315 10.5 16.7188 10.5565 17.1914C10.6154 17.684 10.7408 18.1071 11.0295 18.4769C11.3182 18.8466 11.6982 19.0709 12.1619 19.2475C12.6066 19.417 13.1765 19.5594 13.8784 19.7349L13.8784 19.7349L13.9086 19.7424L15.9086 20.2424L15.9487 20.2525L15.9487 20.2525C17.0586 20.53 17.9452 20.7516 18.6493 20.8232C19.3749 20.897 20.0074 20.8235 20.5385 20.4089C21.0696 19.9942 21.2943 19.3983 21.3987 18.6765C21.5 17.9761 21.5 17.0622 21.5 15.9182V15.8768V8.12301V8.08166C21.5 6.93763 21.5 6.02373 21.3987 5.3233C21.2943 4.60147 21.0696 4.00561 20.5385 3.59095C20.0074 3.17628 19.3749 3.10285 18.6493 3.17661C17.9452 3.24819 17.0586 3.46986 15.9487 3.74734L15.9086 3.75737L13.9086 4.25737L13.8783 4.26493C13.1765 4.44039 12.6066 4.58284 12.1619 4.75227C11.6982 4.92891 11.3182 5.15318 11.0295 5.52293C10.7408 5.89268 10.6154 6.31577 10.5565 6.80844C10.5 7.28098 10.5 7.86835 10.5 8.59179V8.59182V8.62301V9.99991H11.5V8.62301C11.5 7.86089 11.5008 7.33343 11.5494 6.92717C11.5964 6.53426 11.6828 6.31112 11.8177 6.13834C11.9526 5.96557 12.1481 5.82763 12.5179 5.68675C12.9003 5.54109 13.4118 5.41236 14.1511 5.22751L16.1511 4.72751Z" fill="#2C9ED7"/>
<path d="M3 12L2.29289 11.2929C1.90237 11.6834 1.90237 12.3166 2.29289 12.7071L3 12ZM15 13C15.5523 13 16 12.5523 16 12C16 11.4477 15.5523 11 15 11V13ZM6.29289 7.29289L2.29289 11.2929L3.70711 12.7071L7.70711 8.70711L6.29289 7.29289ZM2.29289 12.7071L6.29289 16.7071L7.70711 15.2929L3.70711 11.2929L2.29289 12.7071ZM3 13H15V11H3V13Z" fill="#2C9ED7"/>
</svg>
