<svg width="200" height="200" viewBox="0 0 200 200" fill="none" xmlns="http://www.w3.org/2000/svg">
<path fill-rule="evenodd" clip-rule="evenodd" d="M135.577 22.562C135.61 22.7652 135.633 23.0014 135.681 23.4737C135.77 24.3656 135.814 24.8115 135.87 25.1081C136.804 30.0731 142.529 32.4445 146.7 29.5938C146.949 29.4235 147.296 29.1397 147.989 28.5722L147.99 28.572C148.357 28.2715 148.54 28.1213 148.707 28.0006C151.367 26.0735 155.009 26.2552 157.464 28.4374C157.618 28.5741 157.786 28.7419 158.121 29.0775L162.589 33.5448C162.924 33.8805 163.092 34.0483 163.229 34.2021C165.411 36.6572 165.593 40.2993 163.666 42.9593C163.545 43.1259 163.395 43.3096 163.094 43.677C162.526 44.3708 162.243 44.7177 162.072 44.9668C159.222 49.1377 161.593 54.8627 166.558 55.7962C166.855 55.852 167.301 55.8966 168.192 55.9857L168.193 55.9858L168.193 55.9858C168.665 56.033 168.901 56.0566 169.105 56.0891C172.348 56.6074 174.795 59.3112 174.988 62.5901C175 62.7956 175 63.033 175 63.5077V69.8259C175 70.3001 175 70.5372 174.988 70.7424C174.795 74.0217 172.348 76.7258 169.104 77.244C168.901 77.2764 168.665 77.3 168.193 77.3472C167.302 77.4363 166.857 77.4808 166.561 77.5364C161.595 78.4694 159.223 84.1957 162.075 88.3668C162.245 88.6155 162.528 88.9618 163.095 89.6544C163.395 90.0212 163.545 90.2046 163.666 90.3709C165.593 93.0312 165.411 96.674 163.229 99.1292C163.092 99.2827 162.925 99.4503 162.59 99.7853L158.122 104.253C157.786 104.589 157.618 104.757 157.464 104.893C155.009 107.076 151.367 107.257 148.707 105.33C148.541 105.209 148.357 105.059 147.99 104.759L147.99 104.759L147.989 104.758C147.296 104.191 146.949 103.907 146.7 103.737C142.529 100.886 136.804 103.258 135.87 108.223C135.815 108.519 135.77 108.965 135.681 109.858L135.681 109.858C135.634 110.331 135.61 110.568 135.577 110.772C135.059 114.015 132.355 116.461 129.077 116.654C128.871 116.667 128.633 116.667 128.158 116.667H121.841C121.366 116.667 121.129 116.667 120.924 116.654C117.645 116.461 114.941 114.015 114.423 110.771C114.39 110.568 114.367 110.332 114.319 109.859L114.319 109.859C114.23 108.967 114.185 108.521 114.13 108.225C113.196 103.26 107.471 100.888 103.3 103.739C103.051 103.909 102.704 104.193 102.01 104.761C101.643 105.061 101.459 105.212 101.292 105.333C98.6325 107.259 94.9905 107.078 92.5354 104.896C92.3816 104.759 92.2138 104.591 91.8783 104.256L91.878 104.255L87.4108 99.7883C87.0752 99.4526 86.9073 99.2847 86.7706 99.1309C84.5885 96.6759 84.4068 93.0338 86.3338 90.3738C86.4545 90.2072 86.6048 90.0235 86.9053 89.6562L86.9055 89.656L86.9057 89.6558C87.4732 88.9621 87.757 88.6153 87.9273 88.3662C90.778 84.1953 88.4066 78.4702 83.4416 77.5368C83.145 77.481 82.699 77.4364 81.8072 77.3472C81.3349 77.3 81.0987 77.2764 80.8955 77.2439C77.652 76.7256 75.205 74.0218 75.0121 70.7428C75 70.5374 75 70.3 75 69.8254V63.5082C75 63.033 75 62.7954 75.0121 62.5897C75.2053 59.3111 77.6519 56.6076 80.895 56.0892C81.0985 56.0567 81.3349 56.033 81.8078 55.9857C82.7007 55.8964 83.1472 55.8518 83.4442 55.7959C88.4085 54.862 90.7795 49.1379 87.9296 44.9673C87.7591 44.7178 87.4749 44.3704 86.9064 43.6756L86.9064 43.6756L86.9063 43.6755C86.6052 43.3074 86.4546 43.1234 86.3337 42.9564C84.4072 40.2967 84.5888 36.6553 86.7704 34.2004C86.9073 34.0463 87.0754 33.8782 87.4116 33.5421L87.4117 33.5419L91.8783 29.0753L91.8784 29.0753C92.214 28.7396 92.3818 28.5718 92.5357 28.435C94.9907 26.2529 98.6328 26.0713 101.293 27.9983C101.459 28.119 101.643 28.2695 102.011 28.5703L102.011 28.5704C102.704 29.1377 103.051 29.4213 103.3 29.5914C107.471 32.443 113.197 30.0712 114.13 25.1054C114.186 24.8092 114.23 24.3639 114.319 23.4732L114.319 23.473C114.367 23.0013 114.39 22.7655 114.423 22.5625C114.941 19.3186 117.645 16.8713 120.924 16.6786C121.129 16.6665 121.366 16.6665 121.84 16.6665H128.159C128.634 16.6665 128.871 16.6665 129.076 16.6786C132.355 16.8715 135.059 19.3185 135.577 22.562ZM125 86.6665C136.046 86.6665 145 77.7122 145 66.6665C145 55.6208 136.046 46.6665 125 46.6665C113.954 46.6665 105 55.6208 105 66.6665C105 77.7122 113.954 86.6665 125 86.6665Z" fill="url(#paint0_linear_1289_91672)"/>
<path fill-rule="evenodd" clip-rule="evenodd" d="M57.7354 103.616L57.7585 103.676C57.7809 103.736 57.7921 103.765 57.7998 103.785C59.2284 107.469 64.1631 108.118 66.4963 104.93C66.5089 104.913 66.5274 104.887 66.5644 104.836L66.6023 104.783C68.1007 102.724 70.9072 102.12 73.1199 103.381L73.1761 103.413L76.8237 105.519L76.8799 105.551C79.0778 106.838 79.958 109.57 78.924 111.897L78.8974 111.956L78.8963 111.959C78.8709 112.015 78.8581 112.043 78.8496 112.063C77.2554 115.677 80.2854 119.626 84.1894 119.021C84.2105 119.018 84.2418 119.013 84.3044 119.003L84.3686 118.992C86.8841 118.596 89.2956 120.153 89.969 122.609L89.9859 122.672L91.076 126.741L91.0926 126.803C91.7376 129.266 90.4277 131.821 88.0508 132.736L87.9905 132.758C87.932 132.781 87.9027 132.792 87.8831 132.799C84.1992 134.228 83.5494 139.163 86.7381 141.496C86.7551 141.509 86.7804 141.527 86.8311 141.563L86.8829 141.601C88.9424 143.099 89.5464 145.906 88.2856 148.119L88.2538 148.174L86.1476 151.822L86.115 151.879C84.829 154.076 82.0965 154.957 79.7694 153.923L79.7102 153.896L79.7088 153.895C79.6519 153.87 79.6234 153.857 79.604 153.848C75.9894 152.254 72.0407 155.284 72.6451 159.188C72.6471 159.201 72.6497 159.217 72.6538 159.242C72.6564 159.259 72.6597 159.279 72.6638 159.304L72.6744 159.369C73.0706 161.884 71.5134 164.295 69.0579 164.969L68.9943 164.986L64.9265 166.076L64.8637 166.093C62.4002 166.737 59.8457 165.428 58.9313 163.051L58.9082 162.99C58.8858 162.931 58.8746 162.901 58.8668 162.881C57.4382 159.198 52.5036 158.549 50.1704 161.736C50.1578 161.754 50.1393 161.779 50.1024 161.831L50.1022 161.831L50.0642 161.884C48.5658 163.943 45.7594 164.547 43.5467 163.286L43.4903 163.254L39.8429 161.148L39.7866 161.115C37.5888 159.829 36.7086 157.097 37.7425 154.77L37.7692 154.711C37.7953 154.653 37.8083 154.624 37.8169 154.604C39.4112 150.99 36.3812 147.041 32.4772 147.645C32.4561 147.649 32.4248 147.654 32.3622 147.664L32.2982 147.674C29.7827 148.071 27.3712 146.513 26.6978 144.058L26.6809 143.995L25.5909 139.927L25.574 139.863C24.9295 137.4 26.239 134.846 28.6154 133.931L28.6768 133.908C28.7368 133.885 28.7668 133.874 28.7869 133.866C32.4695 132.438 33.1191 127.504 29.9317 125.17C29.9143 125.158 29.8883 125.139 29.8361 125.101L29.836 125.101L29.7823 125.063C27.7238 123.564 27.1199 120.758 28.3799 118.546L28.4128 118.489L30.5184 114.842L30.551 114.785C31.8371 112.587 34.5695 111.707 36.8966 112.741L36.9562 112.768C37.0137 112.794 37.0425 112.807 37.0618 112.815C40.6766 114.41 44.626 111.38 44.0211 107.475C44.0178 107.455 44.0128 107.424 44.0027 107.362L43.9924 107.299C43.5958 104.783 45.1534 102.371 47.6096 101.698L47.6715 101.681L51.7402 100.591L51.8029 100.574C54.2665 99.9294 56.821 101.239 57.7354 103.616ZM61.7843 146.212C68.8972 144.307 73.1183 136.995 71.2124 129.883C69.3065 122.77 61.9953 118.549 54.8825 120.454C47.7696 122.36 43.5485 129.671 45.4544 136.784C47.3603 143.897 54.6714 148.118 61.7843 146.212Z" fill="#90D6FA"/>
<path d="M41.0489 33.927C41.3483 33.0057 42.6517 33.0057 42.9511 33.9271L45.3677 41.3647C45.5016 41.7768 45.8855 42.0557 46.3188 42.0557H54.1392C55.1079 42.0557 55.5107 43.2953 54.727 43.8647L48.4001 48.4615C48.0496 48.7161 47.903 49.1675 48.0369 49.5795L50.4535 57.0172C50.7529 57.9385 49.6984 58.7047 48.9147 58.1353L42.5878 53.5385C42.2373 53.2839 41.7627 53.2839 41.4122 53.5385L35.0853 58.1353C34.3016 58.7047 33.2471 57.9385 33.5465 57.0172L35.9631 49.5795C36.097 49.1675 35.9504 48.7161 35.5999 48.4615L29.273 43.8647C28.4893 43.2953 28.8921 42.0557 29.8608 42.0557H37.6812C38.1145 42.0557 38.4984 41.7768 38.6323 41.3647L41.0489 33.927Z" fill="#818990"/>
<path d="M149.524 126.464C149.674 126.003 150.326 126.003 150.476 126.464L151.908 130.873C151.975 131.079 152.167 131.219 152.384 131.219H157.021C157.505 131.219 157.706 131.839 157.315 132.123L153.563 134.849C153.388 134.976 153.315 135.202 153.382 135.408L154.815 139.818C154.964 140.278 154.437 140.661 154.045 140.377L150.294 137.651C150.119 137.524 149.881 137.524 149.706 137.651L145.955 140.377C145.563 140.661 145.036 140.278 145.185 139.818L146.618 135.408C146.685 135.202 146.612 134.976 146.437 134.849L142.685 132.123C142.294 131.839 142.495 131.219 142.979 131.219H147.616C147.833 131.219 148.025 131.079 148.092 130.873L149.524 126.464Z" fill="#818990"/>
<defs>
<linearGradient id="paint0_linear_1289_91672" x1="129.762" y1="16.6665" x2="129.762" y2="116.667" gradientUnits="userSpaceOnUse">
<stop stop-color="#2C9ED7"/>
<stop offset="1" stop-color="#90D6FA"/>
</linearGradient>
</defs>
</svg>
