<svg width="57" height="57" viewBox="0 0 57 57" fill="none" xmlns="http://www.w3.org/2000/svg">
<path fill-rule="evenodd" clip-rule="evenodd" d="M38.669 6.68994L38.669 6.69005C38.6936 6.93626 38.7059 7.05936 38.7211 7.14128C38.9846 8.56557 40.6276 9.24615 41.8211 8.42534C41.8897 8.37813 41.9855 8.29979 42.177 8.14311C42.2784 8.06014 42.3291 8.01866 42.375 7.98524C43.1363 7.43139 44.1808 7.48348 44.8833 8.11034C44.9256 8.14816 44.972 8.19449 45.0646 8.28713L46.3378 9.56032C46.4305 9.65298 46.4768 9.69931 46.5146 9.7417C47.1415 10.4441 47.1936 11.4886 46.6397 12.2499C46.6063 12.2959 46.5648 12.3465 46.4819 12.4479L46.4818 12.448C46.3251 12.6395 46.2468 12.7353 46.1996 12.8039C45.3788 13.9974 46.0593 15.6404 47.4836 15.9039C47.5655 15.9191 47.6887 15.9314 47.9349 15.956L47.9349 15.956L47.935 15.956C48.0654 15.969 48.1306 15.9756 48.1867 15.9844C49.1166 16.1311 49.8183 16.9065 49.8718 17.8464C49.875 17.9032 49.875 17.9687 49.875 18.0997V19.9004C49.875 20.0313 49.875 20.0968 49.8718 20.1534C49.8184 21.0935 49.1166 21.869 48.1865 22.0156C48.1305 22.0245 48.0653 22.031 47.935 22.044L47.9348 22.044C47.6891 22.0686 47.5662 22.0809 47.4844 22.096C46.0599 22.3593 45.3792 24.0027 46.2003 25.1963C46.2474 25.2648 46.3256 25.3604 46.482 25.5516L46.4821 25.5516C46.5649 25.6528 46.6063 25.7034 46.6397 25.7493C47.1937 26.5107 47.1416 27.5553 46.5145 28.2578C46.4768 28.3001 46.4305 28.3464 46.338 28.4389L45.0647 29.7122C44.972 29.8049 44.9257 29.8512 44.8833 29.889C44.1809 30.5159 43.1364 30.568 42.3751 30.0141C42.3291 29.9807 42.2784 29.9392 42.177 29.8563L42.177 29.8562C41.9855 29.6996 41.8898 29.6212 41.8211 29.574C40.6277 28.7532 38.9846 29.4338 38.7212 30.8581C38.706 30.94 38.6937 31.0632 38.669 31.3096L38.669 31.3098C38.656 31.4404 38.6494 31.5056 38.6406 31.5618C38.4938 32.4916 37.7185 33.1933 36.7787 33.2468C36.7219 33.25 36.6563 33.25 36.5251 33.25H34.7247C34.5937 33.25 34.5282 33.25 34.4714 33.2468C33.5315 33.1933 32.7561 32.4916 32.6094 31.5617C32.6006 31.5056 32.594 31.4404 32.581 31.31L32.581 31.3099C32.5564 31.0637 32.5441 30.9405 32.5289 30.8586C32.2654 29.4344 30.6224 28.7538 29.4289 29.5746C29.3603 29.6218 29.2645 29.7001 29.073 29.8568L29.073 29.8569L29.0729 29.8569C28.9715 29.9399 28.9208 29.9814 28.8748 30.0148C28.1135 30.5686 27.0691 30.5165 26.3667 29.8897C26.3243 29.8519 26.2779 29.8055 26.1852 29.7128L24.9121 28.4397C24.8194 28.347 24.7731 28.3007 24.7353 28.2583C24.1084 27.5559 24.0563 26.5114 24.6102 25.7501C24.6436 25.7042 24.6851 25.6535 24.768 25.5521L24.7681 25.552L24.7681 25.5519C24.9248 25.3605 25.0031 25.2647 25.0503 25.1961C25.8711 24.0026 25.1906 22.3596 23.7663 22.0961C23.6844 22.0809 23.5613 22.0686 23.315 22.044C23.1847 22.031 23.1195 22.0244 23.0634 22.0156C22.1334 21.8689 21.4317 21.0935 21.3782 20.1535C21.375 20.0968 21.375 20.0313 21.375 19.9003V18.0999C21.375 17.9687 21.375 17.9031 21.3782 17.8463C21.4317 16.9065 22.1334 16.1312 23.0632 15.9844C23.1194 15.9756 23.1847 15.969 23.3152 15.956C23.5617 15.9313 23.685 15.919 23.767 15.9038C25.1911 15.6402 25.8716 13.9974 25.051 12.804C25.0037 12.7353 24.9253 12.6394 24.7683 12.4476C24.6852 12.346 24.6436 12.2951 24.6101 12.2491C24.0564 11.4879 24.1085 10.4436 24.7352 9.74121C24.7731 9.69874 24.8195 9.65233 24.9123 9.5595L26.1853 8.28652C26.278 8.19384 26.3243 8.1475 26.3667 8.10967C27.0691 7.48284 28.1136 7.43075 28.8749 7.98457C28.9209 8.018 28.9716 8.05953 29.0731 8.14259C29.2645 8.2992 29.3603 8.37751 29.4288 8.42466C30.6223 9.2457 32.2656 8.56501 32.529 7.14052C32.5441 7.0587 32.5564 6.93576 32.581 6.68986C32.594 6.55965 32.6005 6.49454 32.6094 6.4385C32.756 5.50842 33.5315 4.80659 34.4716 4.75322C34.5282 4.75 34.5937 4.75 34.7245 4.75H36.5253C36.6563 4.75 36.7218 4.75 36.7785 4.75322C37.7185 4.80666 38.4939 5.5084 38.6406 6.43835C38.6494 6.49445 38.656 6.55962 38.669 6.68994ZM35.625 24.7C38.773 24.7 41.325 22.148 41.325 19C41.325 15.852 38.773 13.3 35.625 13.3C32.477 13.3 29.925 15.852 29.925 19C29.925 22.148 32.477 24.7 35.625 24.7Z" fill="white"/>
<path fill-rule="evenodd" clip-rule="evenodd" d="M14.746 28.6684C15.4588 28.4774 16.2003 28.8576 16.4612 29.5478C16.8665 30.6196 18.3021 30.8086 18.9709 29.8782C19.4016 29.279 20.2162 29.1037 20.8553 29.4727L21.8948 30.0729C22.5338 30.4418 22.7893 31.2349 22.4858 31.9075C22.0145 32.952 22.896 34.1007 24.0268 33.9158C24.755 33.7966 25.455 34.2487 25.646 34.9615L25.9567 36.121C26.1477 36.8337 25.7675 37.5752 25.0774 37.8361C24.0057 38.2413 23.8166 39.6768 24.7469 40.3455C25.346 40.7762 25.5213 41.5907 25.1524 42.2296L24.5521 43.2693C24.1832 43.9084 23.39 44.1639 22.7175 43.8603C21.673 43.389 20.5243 44.2707 20.7092 45.4015C20.8284 46.1298 20.3763 46.83 19.6634 47.021L18.5041 47.3316C17.7914 47.5226 17.0499 47.1424 16.7889 46.4522C16.3837 45.3804 14.948 45.1914 14.2792 46.1218C13.8485 46.721 13.0338 46.8963 12.3948 46.5273L11.3553 45.9272C10.7162 45.5582 10.4607 44.765 10.7643 44.0925C11.2356 43.048 10.3542 41.8992 9.22329 42.0842C8.49508 42.2033 7.79509 41.7512 7.60411 41.0385L7.29346 39.8791C7.10246 39.1663 7.48267 38.4248 8.17294 38.1638C9.24487 37.7585 9.43383 36.3227 8.50331 35.6538C7.90408 35.2231 7.72872 34.4083 8.09772 33.7692L8.6978 32.7298C9.06675 32.0908 9.86 31.8353 10.5326 32.1388C11.5769 32.6101 12.7258 31.7288 12.5408 30.5981C12.4217 29.8699 12.8737 29.17 13.5864 28.9791L14.746 28.6684ZM17.6086 41.6705C19.6357 41.1273 20.8388 39.0437 20.2956 37.0165C19.7524 34.9893 17.6687 33.7863 15.6416 34.3295C13.6144 34.8727 12.4114 36.9563 12.9545 38.9835C13.4977 41.0107 15.5814 42.2137 17.6086 41.6705Z" fill="#EFF6FF"/>
</svg>
