<svg width="48" height="48" viewBox="0 0 48 48" fill="none" xmlns="http://www.w3.org/2000/svg">
<rect x="6" y="18" width="8" height="13" rx="0.5" fill="#4579A0"/>
<rect x="34" y="18" width="8" height="13" rx="0.5" fill="#4579A0"/>
<rect x="3" y="18" width="42" height="11.6667" rx="2" fill="#91BCDD" stroke="#639AC4"/>
<path d="M12.1 23.8C12.1 25.0703 11.0703 26.1 9.8 26.1C8.52974 26.1 7.5 25.0703 7.5 23.8C7.5 22.5297 8.52974 21.5 9.8 21.5C11.0703 21.5 12.1 22.5297 12.1 23.8Z" fill="#E1E4E9" stroke="#639AC4"/>
<path d="M23 21.625C23 21.2798 23.2798 21 23.625 21H27.375C27.7202 21 28 21.2798 28 21.625V24.125C28 24.4702 27.7202 24.75 27.375 24.75H23.625C23.2798 24.75 23 24.4702 23 24.125V21.625Z" fill="#1F3F59"/>
<path d="M24.25 25.375C24.25 25.7202 24.5298 26 24.875 26H26.125C26.4702 26 26.75 25.7202 26.75 25.375V24.125C26.75 23.7798 26.4702 23.5 26.125 23.5H24.875C24.5298 23.5 24.25 23.7798 24.25 24.125V25.375Z" fill="#1F3F59"/>
<path d="M30 21.625C30 21.2798 30.2798 21 30.625 21H34.375C34.7202 21 35 21.2798 35 21.625V24.125C35 24.4702 34.7202 24.75 34.375 24.75H30.625C30.2798 24.75 30 24.4702 30 24.125V21.625Z" fill="#1F3F59"/>
<path d="M31.25 25.375C31.25 25.7202 31.5298 26 31.875 26H33.125C33.4702 26 33.75 25.7202 33.75 25.375V24.125C33.75 23.7798 33.4702 23.5 33.125 23.5H31.875C31.5298 23.5 31.25 23.7798 31.25 24.125V25.375Z" fill="#1F3F59"/>
<path d="M37 21.625C37 21.2798 37.2798 21 37.625 21H41.375C41.7202 21 42 21.2798 42 21.625V24.125C42 24.4702 41.7202 24.75 41.375 24.75H37.625C37.2798 24.75 37 24.4702 37 24.125V21.625Z" fill="#1F3F59"/>
<path d="M38.25 25.375C38.25 25.7202 38.5298 26 38.875 26H40.125C40.4702 26 40.75 25.7202 40.75 25.375V24.125C40.75 23.7798 40.4702 23.5 40.125 23.5H38.875C38.5298 23.5 38.25 23.7798 38.25 24.125V25.375Z" fill="#1F3F59"/>
</svg>
