<svg width="57" height="57" viewBox="0 0 57 57" fill="none" xmlns="http://www.w3.org/2000/svg">
<path fill-rule="evenodd" clip-rule="evenodd" d="M36.5 46.7338C42.7679 46.4088 47.75 41.2237 47.75 34.8749C47.75 28.5262 42.7679 23.3411 36.5 23.0161V30.0396C38.8972 30.3464 40.75 32.3943 40.75 34.8749C40.75 37.3556 38.8972 39.4035 36.5 39.7103V46.7338Z" fill="#90D6FA"/>
<path d="M4.75 9.9125C4.75 9.35245 4.75 9.07242 4.85899 8.85851C4.95487 8.67035 5.10785 8.51737 5.29601 8.42149C5.50992 8.3125 5.78995 8.3125 6.35 8.3125H23.0873C23.3318 8.3125 23.4541 8.3125 23.5692 8.34013C23.6713 8.36463 23.7688 8.40503 23.8583 8.45986C23.9592 8.5217 24.0457 8.60818 24.2186 8.78113L35.1564 19.7189C35.3293 19.8918 35.4158 19.9783 35.4776 20.0792C35.5325 20.1687 35.5729 20.2662 35.5974 20.3683C35.625 20.4834 35.625 20.6057 35.625 20.8502V47.0875C35.625 47.6476 35.625 47.9276 35.516 48.1415C35.4201 48.3297 35.2672 48.4826 35.079 48.5785C34.8651 48.6875 34.5851 48.6875 34.025 48.6875H6.35C5.78995 48.6875 5.50992 48.6875 5.29601 48.5785C5.10785 48.4826 4.95487 48.3297 4.85899 48.1415C4.75 47.9276 4.75 47.6476 4.75 47.0875V9.9125Z" fill="white" fill-opacity="0.5" stroke="#EFF6FF" stroke-width="2"/>
<path d="M21.375 8.3125V20.1625C21.375 21.0026 21.375 21.4226 21.5385 21.7435C21.6823 22.0257 21.9118 22.2552 22.194 22.399C22.5149 22.5625 22.9349 22.5625 23.775 22.5625H35.625" stroke="#EFF6FF" stroke-width="2"/>
<path d="M16.716 37.084C15.94 37.084 15.232 36.904 14.592 36.544C13.952 36.176 13.444 35.668 13.068 35.02C12.7 34.364 12.516 33.628 12.516 32.812C12.516 31.996 12.7 31.264 13.068 30.616C13.444 29.96 13.952 29.452 14.592 29.092C15.232 28.724 15.94 28.54 16.716 28.54C17.5 28.54 18.212 28.724 18.852 29.092C19.492 29.452 19.996 29.956 20.364 30.604C20.732 31.252 20.916 31.988 20.916 32.812C20.916 33.636 20.732 34.372 20.364 35.02C19.996 35.668 19.492 36.176 18.852 36.544C18.212 36.904 17.5 37.084 16.716 37.084ZM16.716 36.136C17.3 36.136 17.824 36 18.288 35.728C18.76 35.456 19.128 35.068 19.392 34.564C19.664 34.06 19.8 33.476 19.8 32.812C19.8 32.14 19.664 31.556 19.392 31.06C19.128 30.556 18.764 30.168 18.3 29.896C17.836 29.624 17.308 29.488 16.716 29.488C16.124 29.488 15.596 29.624 15.132 29.896C14.668 30.168 14.3 30.556 14.028 31.06C13.764 31.556 13.632 32.14 13.632 32.812C13.632 33.476 13.764 34.06 14.028 34.564C14.3 35.068 14.668 35.456 15.132 35.728C15.604 36 16.132 36.136 16.716 36.136ZM25.0096 37.084C24.4576 37.084 23.9616 36.988 23.5216 36.796C23.0896 36.596 22.7496 36.324 22.5016 35.98C22.2536 35.628 22.1256 35.224 22.1176 34.768H23.2816C23.3216 35.16 23.4816 35.492 23.7616 35.764C24.0496 36.028 24.4656 36.16 25.0096 36.16C25.5296 36.16 25.9376 36.032 26.2336 35.776C26.5376 35.512 26.6896 35.176 26.6896 34.768C26.6896 34.448 26.6016 34.188 26.4256 33.988C26.2496 33.788 26.0296 33.636 25.7656 33.532C25.5016 33.428 25.1456 33.316 24.6976 33.196C24.1456 33.052 23.7016 32.908 23.3656 32.764C23.0376 32.62 22.7536 32.396 22.5136 32.092C22.2816 31.78 22.1656 31.364 22.1656 30.844C22.1656 30.388 22.2816 29.984 22.5136 29.632C22.7456 29.28 23.0696 29.008 23.4856 28.816C23.9096 28.624 24.3936 28.528 24.9376 28.528C25.7216 28.528 26.3616 28.724 26.8576 29.116C27.3616 29.508 27.6456 30.028 27.7096 30.676H26.5096C26.4696 30.356 26.3016 30.076 26.0056 29.836C25.7096 29.588 25.3176 29.464 24.8296 29.464C24.3736 29.464 24.0016 29.584 23.7136 29.824C23.4256 30.056 23.2816 30.384 23.2816 30.808C23.2816 31.112 23.3656 31.36 23.5336 31.552C23.7096 31.744 23.9216 31.892 24.1696 31.996C24.4256 32.092 24.7816 32.204 25.2376 32.332C25.7896 32.484 26.2336 32.636 26.5696 32.788C26.9056 32.932 27.1936 33.16 27.4336 33.472C27.6736 33.776 27.7936 34.192 27.7936 34.72C27.7936 35.128 27.6856 35.512 27.4696 35.872C27.2536 36.232 26.9336 36.524 26.5096 36.748C26.0856 36.972 25.5856 37.084 25.0096 37.084Z" fill="#2C9ED7"/>
</svg>
