<svg width="200" height="200" viewBox="0 0 200 200" fill="none" xmlns="http://www.w3.org/2000/svg">
<path d="M33.3333 125V70.8334C34.7221 61.1111 49.9999 41.6667 99.9999 41.6667C150 41.6667 165.278 61.1111 166.667 70.8334V120.833C166.667 129.167 154.167 154.167 104.167 154.167C54.1666 154.167 36.111 133.333 33.3333 125Z" fill="#2C9ED7"/>
<path d="M166.667 79.5365C166.667 100.451 136.819 117.406 99.9999 117.406C63.1809 117.406 33.3333 100.451 33.3333 79.5365M166.667 79.5365C166.667 58.6216 136.819 41.6667 99.9999 41.6667C63.1809 41.6667 33.3333 58.6216 33.3333 79.5365M166.667 79.5365V80.9172V117.406C166.667 137.574 136.819 153.924 99.9999 153.924C63.1809 153.924 33.3333 137.574 33.3333 117.406L33.3333 80.9172V79.5365" stroke="#90D6FA" stroke-width="5"/>
<path d="M58.3333 83.3333H83.3333M83.3333 83.3333L74.9999 75M83.3333 83.3333L74.9999 91.6667" stroke="white" stroke-width="5" stroke-linecap="round" stroke-linejoin="round"/>
<path d="M141.667 83.3333H116.667M116.667 83.3333L125 75M116.667 83.3333L125 91.6667" stroke="white" stroke-width="5" stroke-linecap="round" stroke-linejoin="round"/>
<path d="M99.9999 91.6667L99.9999 104.167M99.9999 104.167L108.333 100M99.9999 104.167L91.6666 100" stroke="white" stroke-width="5" stroke-linecap="round" stroke-linejoin="round"/>
<path d="M99.9999 70.8333L99.9999 58.3333M99.9999 58.3333L108.333 62.5M99.9999 58.3333L91.6666 62.5" stroke="white" stroke-width="5" stroke-linecap="round" stroke-linejoin="round"/>
</svg>
