<svg width="24" height="24" viewBox="0 0 24 24" fill="none" xmlns="http://www.w3.org/2000/svg">
<path d="M12 4V20" stroke="#90D6FA" stroke-linecap="round"/>
<path d="M20 12L4 12" stroke="#90D6FA" stroke-linecap="round"/>
<path d="M18 12C18 15.3137 15.3137 18 12 18C8.68629 18 6 15.3137 6 12C6 8.68629 8.68629 6 12 6C15.3137 6 18 8.68629 18 12Z" fill="#2C9ED7"/>
<path d="M9.17068 13.7363C9.43293 12.9264 10.2827 12.5325 11.1495 12.5325H12.8505C13.7173 12.5325 14.5671 12.9264 14.8293 13.7363C14.8995 13.9531 14.959 14.1937 14.9954 14.4532C15.0375 14.7533 14.7836 15.0001 14.4747 15.0001H9.5253C9.21644 15.0001 8.96247 14.7533 9.00458 14.4532C9.04102 14.1937 9.10049 13.9531 9.17068 13.7363Z" fill="#EFF6FF"/>
<path d="M13.6358 10.2844C13.6358 11.1777 12.9034 11.902 12 11.902C11.0966 11.902 10.3642 11.1777 10.3642 10.2844C10.3642 9.39097 11.0966 8.66675 12 8.66675C12.9034 8.66675 13.6358 9.39097 13.6358 10.2844Z" fill="#EFF6FF"/>
<circle cx="12" cy="3" r="2" fill="#2C9ED7"/>
<circle cx="21" cy="12" r="2" transform="rotate(90 21 12)" fill="#2C9ED7"/>
<circle cx="12" cy="21" r="2" fill="#2C9ED7"/>
<circle cx="3" cy="12" r="2" transform="rotate(90 3 12)" fill="#2C9ED7"/>
</svg>
