<svg width="48" height="48" viewBox="0 0 48 48" fill="none" xmlns="http://www.w3.org/2000/svg">
<rect x="8" y="40" width="30" height="3" rx="1" fill="#6F7379"/>
<rect x="21" y="41" width="32" height="4" rx="1" transform="rotate(-90 21 41)" fill="#6F7379"/>
<rect x="8" y="9" width="30" height="8.33333" rx="1" fill="#91BCDD" stroke="#639AC4"/>
<rect x="8" y="19" width="30" height="8.33333" rx="1" fill="#91BCDD" stroke="#639AC4"/>
<rect x="8" y="29" width="30" height="8.33333" rx="1" fill="#91BCDD" stroke="#639AC4"/>
<path d="M15.25 13.1667C15.25 13.9491 14.6157 14.5833 13.8333 14.5833C13.0509 14.5833 12.4166 13.9491 12.4166 13.1667C12.4166 12.3843 13.0509 11.75 13.8333 11.75C14.6157 11.75 15.25 12.3843 15.25 13.1667Z" fill="#E1E4E9" stroke="#639AC4" stroke-width="0.5"/>
<path d="M15.25 23.1667C15.25 23.9491 14.6157 24.5833 13.8333 24.5833C13.0509 24.5833 12.4166 23.9491 12.4166 23.1667C12.4166 22.3843 13.0509 21.75 13.8333 21.75C14.6157 21.75 15.25 22.3843 15.25 23.1667Z" fill="#E1E4E9" stroke="#639AC4" stroke-width="0.5"/>
<path d="M15.25 33.1667C15.25 33.9491 14.6157 34.5833 13.8333 34.5833C13.0509 34.5833 12.4166 33.9491 12.4166 33.1667C12.4166 32.3843 13.0509 31.75 13.8333 31.75C14.6157 31.75 15.25 32.3843 15.25 33.1667Z" fill="#E1E4E9" stroke="#639AC4" stroke-width="0.5"/>
<path d="M21.3334 13.1667H33" stroke="#EFF2F6" stroke-linecap="round"/>
<path d="M21.3334 23.1667H33" stroke="#EFF2F6" stroke-linecap="round"/>
<path d="M21.3334 33.1667H33" stroke="#EFF2F6" stroke-linecap="round"/>
<circle cx="36" cy="34" r="9" fill="#CBDFEE"/>
<path fill-rule="evenodd" clip-rule="evenodd" d="M36.6011 38.8805C37.7122 37.8348 39.9747 35.3967 39.9747 32.8836C39.9747 30.6884 38.1952 28.9088 35.9999 28.9088C33.8047 28.9088 32.0251 30.6884 32.0251 32.8836C32.0251 35.3967 34.2877 37.8348 35.3988 38.8805C35.7409 39.2026 36.2589 39.2026 36.6011 38.8805ZM35.9999 34.5871C36.9408 34.5871 37.7034 33.8245 37.7034 32.8836C37.7034 31.9428 36.9408 31.1802 35.9999 31.1802C35.0591 31.1802 34.2965 31.9428 34.2965 32.8836C34.2965 33.8245 35.0591 34.5871 35.9999 34.5871Z" fill="#4579A0"/>
</svg>
