<svg width="200" height="200" viewBox="0 0 200 200" fill="none" xmlns="http://www.w3.org/2000/svg">
<path d="M25.3003 176.739L56.3813 176.739L67.1479 164.994C69.5856 162.335 76.9665 163.147 80.3522 163.886C87.4623 165.733 103.551 169.869 111.027 171.642C118.503 173.415 125.518 171.495 128.091 170.313C133.576 168.318 146.171 163.531 152.672 160.34C159.172 157.149 161.474 155.021 161.813 154.357C180.99 133.082 184.701 125.695 184.159 124.661C181.721 120.672 177.658 122.888 174.205 124.882C171.442 126.478 159.855 135.738 154.167 140.909C157.814 149.75 151.284 150.805 140.367 152.57L140.28 152.584C131.504 154.002 119.781 154.988 116.667 154.545C119.037 154.176 127.921 153.483 137.5 150C144.394 147.493 149.797 146.415 150 145.454C150.203 140.357 149.624 137.071 133.576 138.179C120.737 139.065 112.246 137.662 109.605 136.849C82.9525 110.965 53.6753 129.564 47.6461 133.525C31.8712 151.032 33.3334 154.545 25.3003 176.739Z" fill="#2C9ED7"/>
<path fill-rule="evenodd" clip-rule="evenodd" d="M107.632 25.7756C108.489 26.5513 108.617 27.8352 108.874 30.403L108.956 31.2281C109.446 36.1287 109.691 38.579 111.35 39.266C113.008 39.9529 114.914 38.3936 118.726 35.2748L119.368 34.7497C121.365 33.1156 122.364 32.2985 123.518 32.3561C124.673 32.4137 125.585 33.326 127.41 35.1508L131.516 39.2568C133.341 41.0816 134.253 41.994 134.311 43.1485C134.368 44.303 133.551 45.3016 131.917 47.2989L131.392 47.9409C128.273 51.7527 126.714 53.6586 127.401 55.317C128.087 56.9755 130.538 57.2205 135.438 57.7106L136.264 57.7931C138.832 58.0499 140.115 58.1783 140.891 59.0354C141.667 59.8924 141.667 61.1827 141.667 63.7633V69.5702C141.667 72.1508 141.667 73.4411 140.891 74.2981C140.115 75.1552 138.832 75.2836 136.264 75.5404L135.44 75.6228C130.539 76.1128 128.089 76.3579 127.402 78.0163C126.715 79.6748 128.274 81.5807 131.393 85.3924L131.917 86.0327C133.551 88.0299 134.368 89.0286 134.311 90.1831C134.253 91.3376 133.341 92.25 131.516 94.0747L127.41 98.1808C125.585 100.006 124.673 100.918 123.518 100.975C122.364 101.033 121.365 100.216 119.368 98.5819L118.726 98.0569C114.914 94.9382 113.008 93.3788 111.35 94.0658C109.692 94.7527 109.446 97.203 108.956 102.104L108.874 102.93C108.617 105.498 108.489 106.782 107.632 107.558C106.774 108.333 105.484 108.333 102.904 108.333H97.0967C94.5161 108.333 93.2258 108.333 92.3687 107.558C91.5117 106.782 91.3833 105.498 91.1265 102.93L91.044 102.105C90.5539 97.2044 90.3089 94.7541 88.6504 94.0671C86.992 93.3802 85.0861 94.9395 81.2743 98.0583L80.6323 98.5835C78.6351 100.218 77.6364 101.035 76.4819 100.977C75.3274 100.92 74.415 100.007 72.5903 98.1824L68.4842 94.0764C66.6595 92.2516 65.7471 91.3392 65.6895 90.1847C65.6319 89.0302 66.449 88.0316 68.0831 86.0343L68.6082 85.3925C71.7269 81.5808 73.2863 79.6749 72.5994 78.0164C71.9124 76.358 69.4621 76.113 64.5615 75.6229L63.7364 75.5404C61.1686 75.2836 59.8847 75.1552 59.109 74.2981C58.3334 73.4411 58.3334 72.1508 58.3334 69.5702L58.3334 63.7633C58.3334 61.1827 58.3334 59.8924 59.109 59.0354C59.8847 58.1783 61.1686 58.0499 63.7364 57.7931L64.5629 57.7105C69.4635 57.2204 71.9138 56.9754 72.6008 55.3169C73.2877 53.6585 71.7283 51.7526 68.6096 47.9408L68.0831 47.2973L68.0831 47.2973C66.4489 45.3 65.6319 44.3014 65.6895 43.1469C65.747 41.9923 66.6594 41.08 68.4842 39.2552L72.5902 35.1492C74.415 33.3244 75.3274 32.412 76.4819 32.3544C77.6364 32.2969 78.635 33.1139 80.6323 34.7481L81.2745 35.2735C85.0862 38.3922 86.9921 39.9516 88.6506 39.2646C90.309 38.5777 90.5541 36.1274 91.0441 31.2268L91.1265 30.403C91.3833 27.8352 91.5117 26.5513 92.3687 25.7756C93.2258 25 94.5161 25 97.0967 25H102.904C105.484 25 106.774 25 107.632 25.7756ZM99.9999 83.3332C109.205 83.3332 116.667 75.8712 116.667 66.6665C116.667 57.4618 109.205 49.9998 99.9999 49.9998C90.7951 49.9998 83.3332 57.4618 83.3332 66.6665C83.3332 75.8712 90.7951 83.3332 99.9999 83.3332Z" fill="#818990"/>
</svg>
