<svg width="204" height="200" viewBox="0 0 204 200" fill="none" xmlns="http://www.w3.org/2000/svg">
<path fill-rule="evenodd" clip-rule="evenodd" d="M91.5688 88.7161L187.802 88.866C188.026 88.8663 188.244 88.9421 188.42 89.0812L203.19 100.747C204.113 101.476 204.211 102.84 203.401 103.693L191.704 116.025C189.804 118.028 186.64 118.111 184.637 116.211L179.267 111.115C177.264 109.214 174.1 109.297 172.199 111.301L166.431 117.382C164.53 119.385 161.366 119.468 159.363 117.568L155.396 113.803C153.393 111.902 150.229 111.985 148.328 113.989L144.557 117.964C142.657 119.967 139.493 120.051 137.49 118.15L133.522 114.385C131.519 112.484 128.355 112.567 126.455 114.571L123.35 117.844C121.449 119.848 118.285 119.931 116.282 118.03L112.315 114.265C110.312 112.364 107.147 112.448 105.247 114.451L100.125 119.85C99.2133 120.812 97.9566 121.372 96.6317 121.407L92.4136 121.52C90.6095 125.783 88.0232 129.801 84.6493 133.358C69.5731 149.252 44.4783 149.92 28.5984 134.85C12.7185 119.78 12.0669 94.6786 27.1431 78.7845C42.2193 62.8904 67.3142 62.2224 83.1941 77.2926C86.7519 80.669 89.5454 84.549 91.5688 88.7161ZM44.1524 101.595C46.8636 104.168 46.9749 108.453 44.4009 111.167C41.8269 113.881 37.5424 113.995 34.8312 111.422C32.12 108.849 32.0088 104.563 34.5828 101.849C37.1567 99.1358 41.4412 99.0218 44.1524 101.595Z" fill="url(#paint0_linear_1301_95782)"/>
<path fill-rule="evenodd" clip-rule="evenodd" d="M77.634 126.703C89.0331 114.685 88.5404 95.7061 76.5337 84.3116C64.5269 72.9172 45.5528 73.4222 34.1537 85.4397C22.7546 97.4572 23.2472 116.436 35.254 127.831C47.2607 139.225 66.2349 138.72 77.634 126.703ZM44.3987 111.166C46.9726 108.453 46.8614 104.167 44.1502 101.594C41.439 99.0213 37.1545 99.1353 34.5805 101.849C32.0065 104.563 32.1178 108.848 34.829 111.421C37.5402 113.994 41.8247 113.88 44.3987 111.166Z" fill="#90D6FA"/>
<defs>
<linearGradient id="paint0_linear_1301_95782" x1="150.748" y1="47.2155" x2="44.9676" y2="151.488" gradientUnits="userSpaceOnUse">
<stop stop-color="#2C9ED7"/>
<stop offset="1" stop-color="#90D6FA"/>
</linearGradient>
</defs>
</svg>
