<svg width="24" height="24" viewBox="0 0 24 24" fill="none" xmlns="http://www.w3.org/2000/svg">
<path fill-rule="evenodd" clip-rule="evenodd" d="M6.92595 6.94275C5.42356 8.03091 4.21631 9.3485 3.47621 10.2514C3.04903 10.7726 3.00409 10.8637 3.00409 11.0062C3.00409 11.1487 3.04903 11.2397 3.47621 11.7609C4.21631 12.6638 5.42356 13.9814 6.92595 15.0696C8.43252 16.1608 10.1922 16.9898 12.0478 16.9898C13.9034 16.9898 15.6631 16.1608 17.1697 15.0696C18.672 13.9814 19.8793 12.6638 20.6194 11.7609C21.0466 11.2397 21.0915 11.1487 21.0915 11.0062C21.0915 10.8637 21.0466 10.7726 20.6194 10.2514C19.8793 9.3485 18.672 8.03091 17.1697 6.94275C15.6631 5.85155 13.9034 5.02252 12.0478 5.02252C10.1922 5.02252 8.43252 5.85155 6.92595 6.94275ZM6.33935 6.13286C7.93308 4.97854 9.8977 4.02252 12.0478 4.02252C14.1979 4.02252 16.1625 4.97854 17.7562 6.13286C19.3542 7.29021 20.6232 8.6786 21.3928 9.61751C21.4127 9.64183 21.4326 9.666 21.4525 9.69007C21.784 10.0927 22.0915 10.466 22.0915 11.0062C22.0915 11.5463 21.784 11.9196 21.4524 12.3223C21.4326 12.3463 21.4127 12.3705 21.3928 12.3948C20.6232 13.3337 19.3542 14.7221 17.7562 15.8795C16.1625 17.0338 14.1979 17.9898 12.0478 17.9898C9.8977 17.9898 7.93308 17.0338 6.33936 15.8795C4.74145 14.7221 3.4724 13.3337 2.70282 12.3948C2.68288 12.3705 2.66297 12.3463 2.64315 12.3223C2.31157 11.9196 2.00409 11.5463 2.00409 11.0062C2.00409 10.466 2.31157 10.0927 2.64315 9.69007C2.66297 9.666 2.68288 9.64183 2.70282 9.61751C3.4724 8.6786 4.74145 7.29021 6.33935 6.13286Z" fill="#2C9ED7"/>
<circle cx="12" cy="11" r="4.5" fill="url(#paint0_linear_738_42816)" stroke="#EFF6FF"/>
<circle cx="1" cy="1" r="1" transform="matrix(1 0 0 -1 10 14)" fill="#EFF6FF"/>
<defs>
<linearGradient id="paint0_linear_738_42816" x1="12.4762" y1="6" x2="12.4762" y2="16" gradientUnits="userSpaceOnUse">
<stop stop-color="#2C9ED7"/>
<stop offset="1" stop-color="#90D6FA"/>
</linearGradient>
</defs>
</svg>
