<svg width="24" height="24" viewBox="0 0 24 24" fill="none" xmlns="http://www.w3.org/2000/svg">
<circle cx="12" cy="12" r="9" fill="#FFF3F3" stroke="#FFF3F3"/>
<path d="M13.488 7.88L13.28 15.64H11.76L11.552 7.88H13.488ZM12.576 19.112C12.2453 19.112 11.968 19 11.744 18.776C11.52 18.552 11.408 18.2747 11.408 17.944C11.408 17.6133 11.52 17.336 11.744 17.112C11.968 16.888 12.2453 16.776 12.576 16.776C12.896 16.776 13.168 16.888 13.392 17.112C13.616 17.336 13.728 17.6133 13.728 17.944C13.728 18.2747 13.616 18.552 13.392 18.776C13.168 19 12.896 19.112 12.576 19.112Z" fill="#ED3737"/>
</svg>
