<svg width="24" height="24" viewBox="0 0 24 24" fill="none" xmlns="http://www.w3.org/2000/svg">
<circle cx="12" cy="12" r="9" fill="#ED3737"/>
<path d="M12.8701 5.90909L12.7423 15.3182H11.2593L11.1315 5.90909H12.8701ZM12.0008 19.1023C11.6855 19.1023 11.4149 18.9893 11.189 18.7635C10.9632 18.5376 10.8502 18.267 10.8502 17.9517C10.8502 17.6364 10.9632 17.3658 11.189 17.1399C11.4149 16.9141 11.6855 16.8011 12.0008 16.8011C12.3161 16.8011 12.5867 16.9141 12.8126 17.1399C13.0384 17.3658 13.1514 17.6364 13.1514 17.9517C13.1514 18.1605 13.0981 18.3523 12.9916 18.527C12.8893 18.7017 12.7508 18.8423 12.5761 18.9489C12.4056 19.0511 12.2139 19.1023 12.0008 19.1023Z" fill="white"/>
</svg>
